{"glyphs":{"0":{"ha":833,"x_min":47,"x_max":810,"o":"m 407 -11 q 140 103 232 -11 q 47 433 47 217 q 95 738 47 611 q 233 933 143 865 q 450 1000 324 1000 q 717 886 625 1000 q 810 556 810 772 q 762 251 810 378 q 624 56 714 124 q 407 -11 533 -11 m 413 185 q 521 288 483 185 q 558 590 558 390 q 531 753 558 701 q 446 804 504 804 q 338 699 375 804 q 300 399 300 594 q 327 236 300 288 q 413 185 354 185 z "},"1":{"ha":833,"x_min":101,"x_max":803,"o":"m 803 207 l 785 0 l 101 0 l 118 207 l 328 207 l 368 704 l 163 592 l 179 815 l 499 989 l 653 989 l 590 207 l 803 207 z "},"2":{"ha":833,"x_min":50,"x_max":779,"o":"m 394 207 l 765 207 l 749 0 l 50 0 l 67 192 l 415 526 q 524 711 524 631 q 495 778 524 756 q 406 800 467 800 q 154 711 289 800 l 89 896 q 442 1001 224 1001 q 689 925 599 1001 q 779 713 779 849 q 740 567 779 635 q 601 403 700 499 l 394 207 z "},"3":{"ha":833,"x_min":11,"x_max":779,"o":"m 607 504 q 725 427 682 481 q 768 296 768 374 q 722 138 768 207 q 588 28 676 68 q 376 -11 500 -11 q 174 17 268 -11 q 11 94 79 44 l 107 279 q 379 190 236 190 q 488 218 451 190 q 524 299 524 246 q 489 376 524 353 q 381 400 454 400 l 231 400 l 247 600 l 372 600 q 488 626 450 600 q 526 706 526 651 q 406 800 526 800 q 279 777 344 800 q 154 711 214 754 l 89 896 q 243 974 151 946 q 440 1001 335 1001 q 616 969 539 1001 q 736 879 693 938 q 779 744 779 821 q 607 504 779 571 z "},"4":{"ha":833,"x_min":19,"x_max":819,"o":"m 803 167 l 675 167 l 663 0 l 408 0 l 421 167 l 19 167 l 35 358 l 528 989 l 739 989 l 690 365 l 819 365 l 803 167 m 436 365 l 454 596 l 276 365 l 436 365 z "},"5":{"ha":833,"x_min":38,"x_max":800,"o":"m 494 649 q 653 611 583 649 q 761 506 722 574 q 800 353 800 439 q 694 85 800 181 q 401 -11 588 -11 q 201 17 294 -11 q 38 94 107 44 l 133 279 q 397 190 251 190 q 513 225 472 190 q 554 324 554 260 q 516 417 554 385 q 406 450 478 450 q 319 438 363 450 q 243 403 276 425 l 100 403 l 146 989 l 799 989 l 783 792 l 385 792 l 369 628 q 494 649 426 649 z "},"6":{"ha":833,"x_min":44,"x_max":842,"o":"m 507 649 q 655 610 589 649 q 758 501 721 571 q 794 343 794 432 q 750 160 794 240 q 626 33 706 79 q 444 -12 546 -12 q 149 103 253 -12 q 44 432 44 218 q 99 734 44 606 q 256 932 154 863 q 496 1001 358 1001 q 682 974 590 1001 q 842 896 774 946 l 746 711 q 627 778 689 756 q 510 800 565 800 q 310 558 343 800 q 396 624 343 600 q 507 649 449 649 m 435 188 q 519 226 488 188 q 551 328 551 264 q 520 417 551 385 q 436 450 489 450 q 349 413 382 450 q 315 313 315 376 q 349 222 315 257 q 435 188 382 188 z "},"7":{"ha":833,"x_min":65,"x_max":835,"o":"m 835 989 l 821 794 l 340 0 l 65 0 l 539 782 l 86 782 l 101 989 l 835 989 z "},"8":{"ha":833,"x_min":19,"x_max":814,"o":"m 619 510 q 755 423 706 485 q 804 281 804 361 q 751 122 804 188 q 606 22 697 56 q 403 -11 514 -11 q 121 60 222 -11 q 19 265 19 131 q 80 420 19 356 q 243 510 140 485 q 125 596 168 538 q 82 725 82 654 q 134 875 82 813 q 274 969 186 938 q 469 1001 363 1001 q 648 971 569 1001 q 770 884 726 940 q 814 751 814 828 q 760 600 814 665 q 619 510 707 535 m 436 579 q 536 625 504 594 q 568 713 568 656 q 536 782 568 758 q 449 806 504 806 q 359 778 394 806 q 324 694 324 750 q 436 579 324 608 m 413 185 q 521 216 478 185 q 564 307 564 247 q 525 380 564 351 q 424 421 486 408 q 264 290 264 390 q 303 210 264 236 q 413 185 342 185 z "},"9":{"ha":833,"x_min":15,"x_max":811,"o":"m 413 1001 q 707 886 603 1001 q 811 557 811 771 q 756 256 811 385 q 600 58 701 128 q 361 -12 499 -12 q 175 15 265 -12 q 15 93 85 43 l 111 278 q 230 211 168 233 q 347 189 292 189 q 482 250 431 189 q 547 432 533 311 q 460 365 513 390 q 351 340 408 340 q 202 379 268 340 q 99 488 136 418 q 63 646 63 557 q 108 829 63 749 q 232 956 153 910 q 413 1001 311 1001 m 419 539 q 508 576 475 539 q 542 676 542 613 q 511 767 542 732 q 432 801 481 801 q 340 763 375 801 q 306 661 306 725 q 336 572 306 604 q 419 539 367 539 z "},"\u0000":{"ha":0,"x_min":0,"x_max":0,"o":""},"\r":{"ha":403,"x_min":0,"x_max":0,"o":""}," ":{"ha":403,"x_min":0,"x_max":0,"o":""},"A":{"ha":1068,"x_min":-58,"x_max":1072,"o":"m 750 204 l 310 204 l 207 0 l -58 0 l 481 989 l 689 989 l 1072 0 l 822 0 l 750 204 m 681 400 l 568 715 l 410 400 l 681 400 z "},"Á":{"ha":1068,"x_min":-58,"x_max":1072,"o":"m 750 204 l 310 204 l 207 0 l -58 0 l 481 989 l 689 989 l 1072 0 l 822 0 l 750 204 m 681 400 l 568 715 l 410 400 l 681 400 m 513 1074 l 671 1293 l 907 1293 l 665 1074 l 513 1074 z "},"Ă":{"ha":1068,"x_min":-58,"x_max":1072,"o":"m 750 204 l 310 204 l 207 0 l -58 0 l 481 989 l 689 989 l 1072 0 l 822 0 l 750 204 m 681 400 l 568 715 l 410 400 l 681 400 m 604 1085 q 437 1127 507 1085 q 344 1239 367 1169 l 458 1285 q 518 1244 478 1260 q 608 1228 558 1228 q 695 1243 654 1228 q 757 1285 736 1258 l 861 1239 q 767 1128 836 1171 q 604 1085 697 1085 z "},"Ắ":{"ha":1068,"x_min":-58,"x_max":1072,"o":"m 750 204 l 310 204 l 207 0 l -58 0 l 481 989 l 689 989 l 1072 0 l 822 0 l 750 204 m 681 400 l 568 715 l 410 400 l 681 400 m 681 1422 l 900 1422 l 672 1225 l 531 1225 l 681 1422 m 600 1067 q 434 1107 503 1067 q 343 1221 365 1147 l 428 1254 q 501 1204 449 1224 q 610 1185 553 1185 q 707 1205 654 1185 q 782 1254 760 1225 l 860 1221 q 757 1108 828 1149 q 600 1067 686 1067 z "},"Ặ":{"ha":1068,"x_min":-58,"x_max":1072,"o":"m 750 204 l 310 204 l 207 0 l -58 0 l 481 989 l 689 989 l 1072 0 l 822 0 l 750 204 m 681 400 l 568 715 l 410 400 l 681 400 m 614 -79 l 596 -289 l 374 -289 l 393 -79 l 614 -79 m 604 1085 q 437 1127 507 1085 q 344 1239 367 1169 l 458 1285 q 518 1244 478 1260 q 608 1228 558 1228 q 695 1243 654 1228 q 757 1285 736 1258 l 861 1239 q 767 1128 836 1171 q 604 1085 697 1085 z "},"Ằ":{"ha":1068,"x_min":-58,"x_max":1072,"o":"m 750 204 l 310 204 l 207 0 l -58 0 l 481 989 l 689 989 l 1072 0 l 822 0 l 750 204 m 681 400 l 568 715 l 410 400 l 681 400 m 346 1422 l 542 1422 l 672 1225 l 531 1225 l 346 1422 m 600 1067 q 434 1107 503 1067 q 343 1221 365 1147 l 428 1254 q 501 1204 449 1224 q 610 1185 553 1185 q 707 1205 654 1185 q 782 1254 760 1225 l 860 1221 q 757 1108 828 1149 q 600 1067 686 1067 z "},"Ẳ":{"ha":1068,"x_min":-58,"x_max":1072,"o":"m 750 204 l 310 204 l 207 0 l -58 0 l 481 989 l 689 989 l 1072 0 l 822 0 l 750 204 m 681 400 l 568 715 l 410 400 l 681 400 m 547 1257 q 569 1298 550 1283 q 614 1324 588 1313 q 640 1339 640 1335 q 618 1346 640 1346 q 519 1333 578 1346 l 497 1408 q 642 1431 561 1431 q 749 1410 710 1431 q 788 1354 788 1389 q 769 1308 788 1324 q 714 1279 750 1293 q 675 1262 689 1271 q 660 1238 661 1253 l 658 1228 l 543 1228 l 547 1257 m 600 1067 q 434 1107 503 1067 q 343 1221 365 1147 l 428 1254 q 501 1204 449 1224 q 610 1185 553 1185 q 707 1205 654 1185 q 782 1254 760 1225 l 860 1221 q 757 1108 828 1149 q 600 1067 686 1067 z "},"Ẵ":{"ha":1068,"x_min":-58,"x_max":1072,"o":"m 750 204 l 310 204 l 207 0 l -58 0 l 481 989 l 689 989 l 1072 0 l 822 0 l 750 204 m 681 400 l 568 715 l 410 400 l 681 400 m 703 1276 q 593 1296 660 1276 q 559 1304 586 1297 q 507 1311 532 1311 q 473 1306 486 1311 q 456 1281 460 1300 l 353 1281 q 407 1387 356 1346 q 521 1428 458 1428 q 633 1408 567 1428 q 721 1393 688 1393 q 751 1399 740 1393 q 765 1424 763 1404 l 868 1424 q 842 1347 867 1381 q 780 1295 818 1314 q 703 1276 742 1276 m 600 1067 q 434 1107 503 1067 q 343 1221 365 1147 l 428 1254 q 501 1204 449 1224 q 610 1185 553 1185 q 707 1205 654 1185 q 782 1254 760 1225 l 860 1221 q 757 1108 828 1149 q 600 1067 686 1067 z "},"Â":{"ha":1068,"x_min":-58,"x_max":1072,"o":"m 750 204 l 310 204 l 207 0 l -58 0 l 481 989 l 689 989 l 1072 0 l 822 0 l 750 204 m 681 400 l 568 715 l 410 400 l 681 400 m 328 1074 l 539 1293 l 675 1293 l 853 1074 l 671 1074 l 604 1182 l 508 1074 l 328 1074 z "},"Ấ":{"ha":1068,"x_min":-58,"x_max":1072,"o":"m 750 204 l 310 204 l 207 0 l -58 0 l 481 989 l 689 989 l 1072 0 l 822 0 l 750 204 m 681 400 l 568 715 l 410 400 l 681 400 m 838 1422 l 1049 1422 l 857 1225 l 739 1225 l 838 1422 m 536 1263 l 674 1263 l 853 1074 l 676 1074 l 600 1156 l 507 1074 l 328 1074 l 536 1263 z "},"Ậ":{"ha":1068,"x_min":-58,"x_max":1072,"o":"m 750 204 l 310 204 l 207 0 l -58 0 l 481 989 l 689 989 l 1072 0 l 822 0 l 750 204 m 681 400 l 568 715 l 410 400 l 681 400 m 614 -79 l 596 -289 l 374 -289 l 393 -79 l 614 -79 m 328 1074 l 539 1293 l 675 1293 l 853 1074 l 671 1074 l 604 1182 l 508 1074 l 328 1074 z "},"Ầ":{"ha":1068,"x_min":-58,"x_max":1072,"o":"m 750 204 l 310 204 l 207 0 l -58 0 l 481 989 l 689 989 l 1072 0 l 822 0 l 750 204 m 681 400 l 568 715 l 410 400 l 681 400 m 642 1422 l 828 1422 l 914 1225 l 797 1225 l 642 1422 m 536 1263 l 674 1263 l 853 1074 l 676 1074 l 600 1156 l 507 1074 l 328 1074 l 536 1263 z "},"Ẩ":{"ha":1068,"x_min":-58,"x_max":1072,"o":"m 750 204 l 310 204 l 207 0 l -58 0 l 481 989 l 689 989 l 1072 0 l 822 0 l 750 204 m 681 400 l 568 715 l 410 400 l 681 400 m 740 1257 q 763 1298 743 1283 q 810 1324 783 1313 q 836 1339 836 1335 q 813 1346 836 1346 q 715 1333 771 1346 l 693 1408 q 838 1431 754 1431 q 944 1410 904 1431 q 983 1354 983 1389 q 965 1308 983 1324 q 910 1279 946 1293 q 872 1261 885 1269 q 857 1238 858 1253 l 856 1228 l 738 1228 l 740 1257 m 536 1263 l 674 1263 l 853 1074 l 676 1074 l 600 1156 l 507 1074 l 328 1074 l 536 1263 z "},"Ẫ":{"ha":1068,"x_min":-58,"x_max":1072,"o":"m 750 204 l 310 204 l 207 0 l -58 0 l 481 989 l 689 989 l 1072 0 l 822 0 l 750 204 m 681 400 l 568 715 l 410 400 l 681 400 m 354 1289 q 408 1398 357 1357 q 522 1439 460 1439 q 573 1434 550 1439 q 633 1418 596 1429 q 722 1400 690 1400 q 753 1406 742 1400 q 767 1433 764 1413 l 869 1433 q 844 1355 868 1389 q 782 1302 819 1321 q 704 1283 744 1283 q 651 1289 676 1283 q 594 1306 626 1294 q 508 1324 540 1324 q 474 1317 488 1324 q 457 1289 461 1310 l 354 1289 m 536 1263 l 674 1263 l 853 1074 l 676 1074 l 600 1156 l 507 1074 l 328 1074 l 536 1263 z "},"Ȁ":{"ha":1068,"x_min":-58,"x_max":1072,"o":"m 750 204 l 310 204 l 207 0 l -58 0 l 481 989 l 689 989 l 1072 0 l 822 0 l 750 204 m 681 400 l 568 715 l 410 400 l 681 400 m 306 1293 l 458 1293 l 549 1074 l 428 1074 l 306 1293 m 511 1293 l 663 1293 l 753 1074 l 632 1074 l 511 1293 z "},"Ä":{"ha":1068,"x_min":-58,"x_max":1072,"o":"m 750 204 l 310 204 l 207 0 l -58 0 l 481 989 l 689 989 l 1072 0 l 822 0 l 750 204 m 681 400 l 568 715 l 410 400 l 681 400 m 581 1289 l 564 1079 l 339 1079 l 357 1289 l 581 1289 m 860 1289 l 842 1079 l 618 1079 l 636 1289 l 860 1289 z "},"Ạ":{"ha":1068,"x_min":-58,"x_max":1072,"o":"m 750 204 l 310 204 l 207 0 l -58 0 l 481 989 l 689 989 l 1072 0 l 822 0 l 750 204 m 681 400 l 568 715 l 410 400 l 681 400 m 614 -79 l 596 -289 l 374 -289 l 393 -79 l 614 -79 z "},"À":{"ha":1068,"x_min":-58,"x_max":1072,"o":"m 750 204 l 310 204 l 207 0 l -58 0 l 481 989 l 689 989 l 1072 0 l 822 0 l 750 204 m 681 400 l 568 715 l 410 400 l 681 400 m 319 1293 l 531 1293 l 665 1074 l 513 1074 l 319 1293 z "},"Ả":{"ha":1068,"x_min":-58,"x_max":1072,"o":"m 750 204 l 310 204 l 207 0 l -58 0 l 481 989 l 689 989 l 1072 0 l 822 0 l 750 204 m 681 400 l 568 715 l 410 400 l 681 400 m 647 1074 l 532 1074 l 536 1106 q 553 1143 538 1131 q 597 1168 569 1156 q 624 1181 617 1176 q 632 1194 632 1186 q 597 1210 632 1210 q 511 1196 561 1210 l 488 1276 q 626 1299 551 1299 q 737 1274 696 1299 q 778 1215 778 1250 q 758 1169 778 1186 q 703 1138 739 1153 q 663 1116 676 1125 q 649 1093 650 1107 l 647 1074 z "},"Ȃ":{"ha":1068,"x_min":-58,"x_max":1072,"o":"m 750 204 l 310 204 l 207 0 l -58 0 l 481 989 l 689 989 l 1072 0 l 822 0 l 750 204 m 681 400 l 568 715 l 410 400 l 681 400 m 593 1283 q 760 1242 690 1283 q 853 1129 831 1200 l 739 1085 q 679 1126 719 1110 q 589 1142 639 1142 q 501 1126 542 1142 q 440 1085 461 1111 l 336 1129 q 431 1240 361 1197 q 593 1283 500 1283 z "},"Ā":{"ha":1068,"x_min":-58,"x_max":1072,"o":"m 750 204 l 310 204 l 207 0 l -58 0 l 481 989 l 689 989 l 1072 0 l 822 0 l 750 204 m 681 400 l 568 715 l 410 400 l 681 400 m 382 1258 l 831 1258 l 818 1108 l 369 1108 l 382 1258 z "},"Ą":{"ha":1068,"x_min":-58,"x_max":1072,"o":"m 951 -154 q 1029 -139 981 -154 l 1043 -251 q 906 -278 974 -278 q 772 -236 822 -278 q 721 -128 721 -194 q 813 25 721 -29 l 750 204 l 310 204 l 207 0 l -58 0 l 481 989 l 689 989 l 1072 0 l 983 0 q 910 -25 942 0 q 879 -89 879 -50 q 899 -137 879 -119 q 951 -154 918 -154 m 681 400 l 568 715 l 410 400 l 681 400 z "},"Å":{"ha":1068,"x_min":-58,"x_max":1072,"o":"m 750 204 l 310 204 l 207 0 l -58 0 l 479 986 q 436 1094 436 1032 q 483 1203 436 1158 q 594 1249 529 1249 q 707 1204 661 1249 q 753 1094 753 1160 q 738 1026 753 1057 q 694 972 722 994 l 1072 0 l 822 0 l 750 204 m 594 1154 q 553 1137 569 1154 q 538 1094 538 1119 q 553 1051 538 1069 q 594 1032 569 1032 q 636 1051 619 1032 q 653 1094 653 1069 q 636 1137 653 1119 q 594 1154 619 1154 m 681 400 l 568 715 l 410 400 l 681 400 z "},"Ǻ":{"ha":1068,"x_min":-58,"x_max":1072,"o":"m 750 204 l 310 204 l 207 0 l -58 0 l 479 986 q 436 1094 436 1032 q 483 1203 436 1158 q 594 1249 529 1249 q 663 1235 628 1249 l 747 1329 l 985 1329 l 743 1147 q 753 1094 753 1124 q 738 1026 753 1057 q 694 972 722 994 l 1072 0 l 822 0 l 750 204 m 594 1154 q 553 1137 569 1154 q 538 1094 538 1119 q 553 1051 538 1069 q 594 1032 569 1032 q 636 1051 619 1032 q 653 1094 653 1069 q 636 1137 653 1119 q 594 1154 619 1154 m 681 400 l 568 715 l 410 400 l 681 400 z "},"Ã":{"ha":1068,"x_min":-58,"x_max":1072,"o":"m 750 204 l 310 204 l 207 0 l -58 0 l 481 989 l 689 989 l 1072 0 l 822 0 l 750 204 m 681 400 l 568 715 l 410 400 l 681 400 m 339 1075 q 396 1244 346 1192 q 519 1297 446 1297 q 567 1288 544 1297 q 618 1260 589 1278 q 663 1235 646 1243 q 696 1228 679 1228 q 757 1293 747 1228 l 860 1293 q 802 1124 853 1176 q 678 1071 751 1071 q 633 1080 653 1071 q 579 1108 613 1089 q 537 1132 554 1124 q 503 1140 519 1140 q 442 1075 451 1140 l 339 1075 z "},"Æ":{"ha":1408,"x_min":-89,"x_max":1413,"o":"m 978 789 l 975 603 l 1356 603 l 1338 403 l 972 403 l 969 200 l 1353 200 l 1335 0 l 725 0 l 729 204 l 335 204 l 199 0 l -89 0 l 619 989 l 1413 989 l 1399 789 l 978 789 m 742 789 l 726 789 l 467 400 l 733 400 l 742 789 z "},"Ǽ":{"ha":1408,"x_min":-89,"x_max":1413,"o":"m 978 789 l 975 603 l 1356 603 l 1338 403 l 972 403 l 969 200 l 1353 200 l 1335 0 l 725 0 l 729 204 l 335 204 l 199 0 l -89 0 l 619 989 l 1413 989 l 1399 789 l 978 789 m 742 789 l 726 789 l 467 400 l 733 400 l 742 789 m 664 1074 l 822 1293 l 1058 1293 l 817 1074 l 664 1074 z "},"B":{"ha":975,"x_min":64,"x_max":943,"o":"m 771 511 q 890 425 847 488 q 933 281 933 363 q 831 74 933 147 q 561 0 729 0 l 64 0 l 140 989 l 607 989 q 856 919 769 989 q 943 739 943 850 q 900 601 943 657 q 771 511 857 544 m 543 601 q 658 622 625 601 q 692 697 692 643 q 660 768 692 744 q 560 792 629 792 l 381 792 l 365 601 l 543 601 m 539 197 q 656 219 621 197 q 690 301 690 242 q 658 379 690 354 q 556 404 626 404 l 350 404 l 333 197 l 539 197 z "},"C":{"ha":951,"x_min":75,"x_max":949,"o":"m 560 -12 q 301 45 410 -12 q 133 210 192 103 q 75 464 75 318 q 141 748 75 626 q 327 935 207 869 q 607 1001 447 1001 q 793 974 706 1001 q 949 893 881 946 l 854 708 q 738 775 794 754 q 619 796 681 796 q 413 708 486 796 q 339 464 339 619 q 397 263 339 332 q 565 193 454 193 q 685 215 624 193 q 821 281 747 236 l 886 96 q 746 17 836 47 q 560 -12 656 -12 z "},"Ć":{"ha":951,"x_min":75,"x_max":949,"o":"m 560 -12 q 301 45 410 -12 q 133 210 192 103 q 75 464 75 318 q 141 748 75 626 q 327 935 207 869 q 607 1001 447 1001 q 793 974 706 1001 q 949 893 881 946 l 854 708 q 738 775 794 754 q 619 796 681 796 q 413 708 486 796 q 339 464 339 619 q 397 263 339 332 q 565 193 454 193 q 685 215 624 193 q 821 281 747 236 l 886 96 q 746 17 836 47 q 560 -12 656 -12 m 538 1074 l 696 1293 l 932 1293 l 690 1074 l 538 1074 z "},"Č":{"ha":951,"x_min":75,"x_max":949,"o":"m 560 -12 q 301 45 410 -12 q 133 210 192 103 q 75 464 75 318 q 141 748 75 626 q 327 935 207 869 q 607 1001 447 1001 q 793 974 706 1001 q 949 893 881 946 l 854 708 q 738 775 794 754 q 619 796 681 796 q 413 708 486 796 q 339 464 339 619 q 397 263 339 332 q 565 193 454 193 q 685 215 624 193 q 821 281 747 236 l 886 96 q 746 17 836 47 q 560 -12 656 -12 m 894 1293 l 683 1074 l 544 1074 l 369 1293 l 551 1293 l 629 1183 l 714 1293 l 894 1293 z "},"Ç":{"ha":951,"x_min":75,"x_max":949,"o":"m 886 96 q 756 20 840 50 q 581 -12 672 -10 l 571 -56 l 574 -56 q 659 -81 626 -56 q 692 -151 692 -107 q 640 -242 692 -206 q 497 -278 589 -278 q 419 -272 458 -278 q 351 -254 379 -265 l 374 -164 q 490 -183 440 -183 q 543 -153 543 -183 q 503 -129 543 -129 q 457 -136 488 -129 l 432 -106 l 454 -4 q 175 149 275 25 q 75 464 75 272 q 141 748 75 626 q 327 935 207 869 q 607 1001 447 1001 q 793 974 706 1001 q 949 893 881 946 l 854 708 q 738 775 794 754 q 619 796 681 796 q 413 708 486 796 q 339 464 339 619 q 397 263 339 332 q 565 193 454 193 q 685 215 624 193 q 821 281 747 236 l 886 96 z "},"Ḉ":{"ha":951,"x_min":75,"x_max":949,"o":"m 690 1074 l 538 1074 l 696 1293 l 932 1293 l 690 1074 m 886 96 q 756 20 840 50 q 581 -12 672 -10 l 571 -56 l 574 -56 q 659 -81 626 -56 q 692 -151 692 -107 q 640 -242 692 -206 q 497 -278 589 -278 q 419 -272 458 -278 q 351 -254 379 -265 l 374 -164 q 490 -183 440 -183 q 543 -153 543 -183 q 503 -129 543 -129 q 457 -136 488 -129 l 432 -106 l 454 -4 q 175 149 275 25 q 75 464 75 272 q 141 748 75 626 q 327 935 207 869 q 607 1001 447 1001 q 793 974 706 1001 q 949 893 881 946 l 854 708 q 738 775 794 754 q 619 796 681 796 q 413 708 486 796 q 339 464 339 619 q 397 263 339 332 q 565 193 454 193 q 685 215 624 193 q 821 281 747 236 l 886 96 z "},"Ĉ":{"ha":951,"x_min":75,"x_max":949,"o":"m 560 -12 q 301 45 410 -12 q 133 210 192 103 q 75 464 75 318 q 141 748 75 626 q 327 935 207 869 q 607 1001 447 1001 q 793 974 706 1001 q 949 893 881 946 l 854 708 q 738 775 794 754 q 619 796 681 796 q 413 708 486 796 q 339 464 339 619 q 397 263 339 332 q 565 193 454 193 q 685 215 624 193 q 821 281 747 236 l 886 96 q 746 17 836 47 q 560 -12 656 -12 m 353 1074 l 564 1293 l 700 1293 l 878 1074 l 696 1074 l 629 1182 l 533 1074 l 353 1074 z "},"Ċ":{"ha":951,"x_min":75,"x_max":949,"o":"m 560 -12 q 301 45 410 -12 q 133 210 192 103 q 75 464 75 318 q 141 748 75 626 q 327 935 207 869 q 607 1001 447 1001 q 793 974 706 1001 q 949 893 881 946 l 854 708 q 738 775 794 754 q 619 796 681 796 q 413 708 486 796 q 339 464 339 619 q 397 263 339 332 q 565 193 454 193 q 685 215 624 193 q 821 281 747 236 l 886 96 q 746 17 836 47 q 560 -12 656 -12 m 765 1297 l 747 1071 l 485 1071 l 501 1297 l 765 1297 z "},"D":{"ha":1083,"x_min":63,"x_max":1033,"o":"m 139 989 l 544 989 q 803 933 693 989 q 974 772 914 876 q 1033 525 1033 667 q 967 241 1033 358 q 777 62 901 124 q 478 0 653 0 l 63 0 l 139 989 m 454 208 q 697 285 618 208 q 775 526 775 361 q 706 715 775 650 q 508 781 638 781 l 385 781 l 339 208 l 454 208 z "},"Ǆ":{"ha":1929,"x_min":63,"x_max":1915,"o":"m 139 989 l 544 989 q 803 933 693 989 q 974 772 914 876 q 1033 525 1033 667 q 967 241 1033 358 q 777 62 901 124 q 478 0 653 0 l 63 0 l 139 989 m 454 208 q 697 285 618 208 q 775 526 775 361 q 706 715 775 650 q 508 781 638 781 l 385 781 l 339 208 l 454 208 m 1901 801 l 1421 204 l 1871 204 l 1854 0 l 1108 0 l 1122 190 l 1601 785 l 1169 785 l 1185 989 l 1915 989 l 1901 801 m 1835 1293 l 1624 1074 l 1485 1074 l 1310 1293 l 1492 1293 l 1569 1183 l 1654 1293 l 1835 1293 z "},"Ð":{"ha":1136,"x_min":29,"x_max":1086,"o":"m 594 989 q 854 933 743 989 q 1026 772 965 876 q 1086 525 1086 667 q 1020 241 1086 358 q 829 62 954 124 q 531 0 704 0 l 114 0 l 144 401 l 29 401 l 44 596 l 160 596 l 190 989 l 594 989 m 507 208 q 747 285 669 208 q 825 526 825 363 q 756 715 825 649 q 560 781 688 781 l 436 781 l 422 596 l 679 596 l 663 401 l 407 401 l 392 208 l 507 208 z "},"Ď":{"ha":1083,"x_min":63,"x_max":1033,"o":"m 139 989 l 544 989 q 803 933 693 989 q 974 772 914 876 q 1033 525 1033 667 q 967 241 1033 358 q 777 62 901 124 q 478 0 653 0 l 63 0 l 139 989 m 454 208 q 697 285 618 208 q 775 526 775 361 q 706 715 775 650 q 508 781 638 781 l 385 781 l 339 208 l 454 208 m 878 1293 l 667 1074 l 528 1074 l 353 1293 l 535 1293 l 613 1183 l 697 1293 l 878 1293 z "},"Đ":{"ha":1136,"x_min":29,"x_max":1086,"o":"m 594 989 q 854 933 743 989 q 1026 772 965 876 q 1086 525 1086 667 q 1020 241 1086 358 q 829 62 954 124 q 531 0 704 0 l 114 0 l 144 401 l 29 401 l 44 596 l 160 596 l 190 989 l 594 989 m 507 208 q 747 285 669 208 q 825 526 825 363 q 756 715 825 649 q 560 781 688 781 l 436 781 l 422 596 l 679 596 l 663 401 l 407 401 l 392 208 l 507 208 z "},"Ḍ":{"ha":1083,"x_min":63,"x_max":1033,"o":"m 139 989 l 544 989 q 803 933 693 989 q 974 772 914 876 q 1033 525 1033 667 q 967 241 1033 358 q 777 62 901 124 q 478 0 653 0 l 63 0 l 139 989 m 454 208 q 697 285 618 208 q 775 526 775 361 q 706 715 775 650 q 508 781 638 781 l 385 781 l 339 208 l 454 208 m 621 -79 l 603 -289 l 381 -289 l 400 -79 l 621 -79 z "},"Ḏ":{"ha":1083,"x_min":63,"x_max":1033,"o":"m 139 989 l 544 989 q 803 933 693 989 q 974 772 914 876 q 1033 525 1033 667 q 967 241 1033 358 q 777 62 901 124 q 478 0 653 0 l 63 0 l 139 989 m 454 208 q 697 285 618 208 q 775 526 775 361 q 706 715 775 650 q 508 781 638 781 l 385 781 l 339 208 l 454 208 m 283 -114 l 731 -114 l 719 -254 l 272 -254 l 283 -114 z "},"ǅ":{"ha":1826,"x_min":63,"x_max":1797,"o":"m 139 989 l 544 989 q 803 933 693 989 q 974 772 914 876 q 1033 525 1033 667 q 967 241 1033 358 q 777 62 901 124 q 478 0 653 0 l 63 0 l 139 989 m 454 208 q 697 285 618 208 q 775 526 775 361 q 706 715 775 650 q 508 781 638 781 l 385 781 l 339 208 l 454 208 m 1783 539 l 1435 186 l 1771 186 l 1756 0 l 1121 0 l 1136 176 l 1476 519 l 1164 519 l 1178 706 l 1797 706 l 1783 539 m 1788 1085 l 1575 796 l 1429 796 l 1263 1085 l 1446 1085 l 1514 936 l 1593 1085 l 1788 1085 z "},"E":{"ha":838,"x_min":63,"x_max":846,"o":"m 379 789 l 364 603 l 788 603 l 769 403 l 349 403 l 332 200 l 782 200 l 767 0 l 63 0 l 140 989 l 846 989 l 829 789 l 379 789 z "},"É":{"ha":838,"x_min":63,"x_max":846,"o":"m 379 789 l 364 603 l 788 603 l 769 403 l 349 403 l 332 200 l 782 200 l 767 0 l 63 0 l 140 989 l 846 989 l 829 789 l 379 789 m 447 1074 l 606 1293 l 842 1293 l 600 1074 l 447 1074 z "},"Ĕ":{"ha":838,"x_min":63,"x_max":846,"o":"m 379 789 l 364 603 l 788 603 l 769 403 l 349 403 l 332 200 l 782 200 l 767 0 l 63 0 l 140 989 l 846 989 l 829 789 l 379 789 m 539 1085 q 372 1127 442 1085 q 279 1239 301 1169 l 393 1285 q 453 1244 413 1260 q 543 1228 493 1228 q 630 1243 589 1228 q 692 1285 671 1258 l 796 1239 q 701 1128 771 1171 q 539 1085 632 1085 z "},"Ě":{"ha":838,"x_min":63,"x_max":846,"o":"m 379 789 l 364 603 l 788 603 l 769 403 l 349 403 l 332 200 l 782 200 l 767 0 l 63 0 l 140 989 l 846 989 l 829 789 l 379 789 m 804 1293 l 593 1074 l 454 1074 l 279 1293 l 461 1293 l 539 1183 l 624 1293 l 804 1293 z "},"Ȩ":{"ha":838,"x_min":63,"x_max":846,"o":"m 379 789 l 364 603 l 788 603 l 769 403 l 349 403 l 332 200 l 782 200 l 767 0 l 492 0 l 479 -56 l 482 -56 q 567 -81 535 -56 q 600 -151 600 -107 q 549 -242 600 -206 q 406 -278 497 -278 q 327 -272 367 -278 q 260 -254 288 -265 l 282 -164 q 399 -183 349 -183 q 451 -153 451 -183 q 411 -129 451 -129 q 365 -136 397 -129 l 340 -106 l 364 0 l 63 0 l 140 989 l 846 989 l 829 789 l 379 789 z "},"Ḝ":{"ha":838,"x_min":63,"x_max":846,"o":"m 539 1085 q 372 1127 442 1085 q 279 1239 301 1169 l 393 1285 q 453 1244 413 1260 q 543 1228 493 1228 q 630 1243 589 1228 q 692 1285 671 1258 l 796 1239 q 701 1128 771 1171 q 539 1085 632 1085 m 379 789 l 364 603 l 788 603 l 769 403 l 349 403 l 332 200 l 782 200 l 767 0 l 492 0 l 479 -56 l 482 -56 q 567 -81 535 -56 q 600 -151 600 -107 q 549 -242 600 -206 q 406 -278 497 -278 q 327 -272 367 -278 q 260 -254 288 -265 l 282 -164 q 399 -183 349 -183 q 451 -153 451 -183 q 411 -129 451 -129 q 365 -136 397 -129 l 340 -106 l 364 0 l 63 0 l 140 989 l 846 989 l 829 789 l 379 789 z "},"Ê":{"ha":838,"x_min":63,"x_max":846,"o":"m 379 789 l 364 603 l 788 603 l 769 403 l 349 403 l 332 200 l 782 200 l 767 0 l 63 0 l 140 989 l 846 989 l 829 789 l 379 789 m 263 1074 l 474 1293 l 610 1293 l 788 1074 l 606 1074 l 539 1182 l 443 1074 l 263 1074 z "},"Ế":{"ha":838,"x_min":63,"x_max":983,"o":"m 379 789 l 364 603 l 788 603 l 769 403 l 349 403 l 332 200 l 782 200 l 767 0 l 63 0 l 140 989 l 846 989 l 829 789 l 379 789 m 772 1422 l 983 1422 l 792 1225 l 674 1225 l 772 1422 m 471 1263 l 608 1263 l 788 1074 l 611 1074 l 535 1156 l 442 1074 l 263 1074 l 471 1263 z "},"Ệ":{"ha":838,"x_min":63,"x_max":846,"o":"m 379 789 l 364 603 l 788 603 l 769 403 l 349 403 l 332 200 l 782 200 l 767 0 l 63 0 l 140 989 l 846 989 l 829 789 l 379 789 m 546 -79 l 528 -289 l 306 -289 l 325 -79 l 546 -79 m 263 1074 l 474 1293 l 610 1293 l 788 1074 l 606 1074 l 539 1182 l 443 1074 l 263 1074 z "},"Ề":{"ha":838,"x_min":63,"x_max":849,"o":"m 379 789 l 364 603 l 788 603 l 769 403 l 349 403 l 332 200 l 782 200 l 767 0 l 63 0 l 140 989 l 846 989 l 829 789 l 379 789 m 576 1422 l 763 1422 l 849 1225 l 732 1225 l 576 1422 m 471 1263 l 608 1263 l 788 1074 l 611 1074 l 535 1156 l 442 1074 l 263 1074 l 471 1263 z "},"Ể":{"ha":838,"x_min":63,"x_max":918,"o":"m 379 789 l 364 603 l 788 603 l 769 403 l 349 403 l 332 200 l 782 200 l 767 0 l 63 0 l 140 989 l 846 989 l 829 789 l 379 789 m 675 1257 q 698 1298 678 1283 q 744 1324 718 1313 q 771 1339 771 1335 q 747 1346 771 1346 q 650 1333 706 1346 l 628 1408 q 772 1431 689 1431 q 878 1410 839 1431 q 918 1354 918 1389 q 899 1308 918 1324 q 844 1279 881 1293 q 806 1261 819 1269 q 792 1238 793 1253 l 790 1228 l 672 1228 l 675 1257 m 471 1263 l 608 1263 l 788 1074 l 611 1074 l 535 1156 l 442 1074 l 263 1074 l 471 1263 z "},"Ễ":{"ha":838,"x_min":63,"x_max":846,"o":"m 379 789 l 364 603 l 788 603 l 769 403 l 349 403 l 332 200 l 782 200 l 767 0 l 63 0 l 140 989 l 846 989 l 829 789 l 379 789 m 289 1289 q 343 1398 292 1357 q 457 1439 394 1439 q 508 1434 485 1439 q 568 1418 531 1429 q 657 1400 625 1400 q 688 1406 676 1400 q 701 1433 699 1413 l 804 1433 q 778 1355 803 1389 q 717 1302 754 1321 q 639 1283 679 1283 q 586 1289 611 1283 q 529 1306 561 1294 q 443 1324 475 1324 q 409 1317 422 1324 q 392 1289 396 1310 l 289 1289 m 471 1263 l 608 1263 l 788 1074 l 611 1074 l 535 1156 l 442 1074 l 263 1074 l 471 1263 z "},"Ȅ":{"ha":838,"x_min":63,"x_max":846,"o":"m 379 789 l 364 603 l 788 603 l 769 403 l 349 403 l 332 200 l 782 200 l 767 0 l 63 0 l 140 989 l 846 989 l 829 789 l 379 789 m 240 1293 l 393 1293 l 483 1074 l 363 1074 l 240 1293 m 446 1293 l 597 1293 l 688 1074 l 567 1074 l 446 1293 z "},"Ë":{"ha":838,"x_min":63,"x_max":846,"o":"m 379 789 l 364 603 l 788 603 l 769 403 l 349 403 l 332 200 l 782 200 l 767 0 l 63 0 l 140 989 l 846 989 l 829 789 l 379 789 m 515 1289 l 499 1079 l 274 1079 l 292 1289 l 515 1289 m 794 1289 l 776 1079 l 553 1079 l 571 1289 l 794 1289 z "},"Ė":{"ha":838,"x_min":63,"x_max":846,"o":"m 379 789 l 364 603 l 788 603 l 769 403 l 349 403 l 332 200 l 782 200 l 767 0 l 63 0 l 140 989 l 846 989 l 829 789 l 379 789 m 675 1297 l 657 1071 l 394 1071 l 411 1297 l 675 1297 z "},"Ẹ":{"ha":838,"x_min":63,"x_max":846,"o":"m 379 789 l 364 603 l 788 603 l 769 403 l 349 403 l 332 200 l 782 200 l 767 0 l 63 0 l 140 989 l 846 989 l 829 789 l 379 789 m 546 -79 l 528 -289 l 306 -289 l 325 -79 l 546 -79 z "},"È":{"ha":838,"x_min":63,"x_max":846,"o":"m 379 789 l 364 603 l 788 603 l 769 403 l 349 403 l 332 200 l 782 200 l 767 0 l 63 0 l 140 989 l 846 989 l 829 789 l 379 789 m 254 1293 l 465 1293 l 600 1074 l 447 1074 l 254 1293 z "},"Ẻ":{"ha":838,"x_min":63,"x_max":846,"o":"m 379 789 l 364 603 l 788 603 l 769 403 l 349 403 l 332 200 l 782 200 l 767 0 l 63 0 l 140 989 l 846 989 l 829 789 l 379 789 m 582 1074 l 467 1074 l 471 1106 q 488 1143 472 1131 q 532 1168 504 1156 q 559 1181 551 1176 q 567 1194 567 1186 q 532 1210 567 1210 q 446 1196 496 1210 l 422 1276 q 561 1299 486 1299 q 672 1274 631 1299 q 713 1215 713 1250 q 693 1169 713 1186 q 638 1138 674 1153 q 598 1116 611 1125 q 583 1093 585 1107 l 582 1074 z "},"Ȇ":{"ha":838,"x_min":63,"x_max":846,"o":"m 379 789 l 364 603 l 788 603 l 769 403 l 349 403 l 332 200 l 782 200 l 767 0 l 63 0 l 140 989 l 846 989 l 829 789 l 379 789 m 528 1283 q 695 1242 625 1283 q 788 1129 765 1200 l 674 1085 q 614 1126 654 1110 q 524 1142 574 1142 q 436 1126 476 1142 q 375 1085 396 1111 l 271 1129 q 365 1240 296 1197 q 528 1283 435 1283 z "},"Ē":{"ha":838,"x_min":63,"x_max":846,"o":"m 379 789 l 364 603 l 788 603 l 769 403 l 349 403 l 332 200 l 782 200 l 767 0 l 63 0 l 140 989 l 846 989 l 829 789 l 379 789 m 317 1258 l 765 1258 l 753 1108 l 304 1108 l 317 1258 z "},"Ḗ":{"ha":838,"x_min":63,"x_max":860,"o":"m 379 789 l 364 603 l 788 603 l 769 403 l 349 403 l 332 200 l 782 200 l 767 0 l 63 0 l 140 989 l 846 989 l 829 789 l 379 789 m 317 1258 l 765 1258 l 753 1108 l 304 1108 l 317 1258 m 465 1299 l 624 1518 l 860 1518 l 618 1299 l 465 1299 z "},"Ḕ":{"ha":838,"x_min":63,"x_max":846,"o":"m 379 789 l 364 603 l 788 603 l 769 403 l 349 403 l 332 200 l 782 200 l 767 0 l 63 0 l 140 989 l 846 989 l 829 789 l 379 789 m 317 1258 l 765 1258 l 753 1108 l 304 1108 l 317 1258 m 272 1518 l 483 1518 l 618 1299 l 465 1299 l 272 1518 z "},"Ę":{"ha":838,"x_min":63,"x_max":844,"o":"m 379 789 l 364 603 l 788 603 l 769 403 l 349 403 l 332 200 l 782 200 l 767 0 l 733 0 q 667 -25 696 0 q 639 -89 639 -50 q 658 -137 639 -119 q 710 -154 678 -154 q 790 -139 740 -154 l 804 -251 q 667 -278 733 -278 q 531 -235 582 -278 q 481 -126 481 -193 q 496 -58 481 -90 q 542 0 511 -25 l 63 0 l 140 989 l 844 989 l 828 789 l 379 789 z "},"Ẽ":{"ha":838,"x_min":63,"x_max":846,"o":"m 379 789 l 364 603 l 788 603 l 769 403 l 349 403 l 332 200 l 782 200 l 767 0 l 63 0 l 140 989 l 846 989 l 829 789 l 379 789 m 274 1075 q 331 1244 281 1192 q 454 1297 381 1297 q 501 1288 479 1297 q 553 1260 524 1278 q 597 1235 581 1243 q 631 1228 614 1228 q 692 1293 682 1228 l 794 1293 q 737 1124 788 1176 q 613 1071 686 1071 q 567 1080 588 1071 q 514 1108 547 1089 q 472 1132 489 1124 q 438 1140 454 1140 q 376 1075 386 1140 l 274 1075 z "},"F":{"ha":811,"x_min":63,"x_max":831,"o":"m 382 785 l 368 604 l 771 604 l 756 401 l 351 401 l 319 0 l 63 0 l 140 989 l 831 989 l 814 785 l 382 785 z "},"G":{"ha":1043,"x_min":75,"x_max":983,"o":"m 983 558 l 946 65 q 773 8 872 28 q 560 -12 674 -12 q 302 46 411 -12 q 134 213 193 104 q 75 467 75 321 q 141 749 75 628 q 328 935 207 869 q 613 1001 450 1001 q 976 893 840 1001 l 882 708 q 764 776 822 754 q 629 797 706 797 q 413 710 489 797 q 338 465 338 622 q 402 257 338 329 q 597 185 467 185 q 722 201 656 185 l 736 382 l 563 382 l 576 558 l 983 558 z "},"Ğ":{"ha":1043,"x_min":75,"x_max":983,"o":"m 983 558 l 946 65 q 773 8 872 28 q 560 -12 674 -12 q 302 46 411 -12 q 134 213 193 104 q 75 467 75 321 q 141 749 75 628 q 328 935 207 869 q 613 1001 450 1001 q 976 893 840 1001 l 882 708 q 764 776 822 754 q 629 797 706 797 q 413 710 489 797 q 338 465 338 622 q 402 257 338 329 q 597 185 467 185 q 722 201 656 185 l 736 382 l 563 382 l 576 558 l 983 558 m 650 1085 q 483 1127 553 1085 q 390 1239 413 1169 l 504 1285 q 564 1244 524 1260 q 654 1228 604 1228 q 741 1243 700 1228 q 803 1285 782 1258 l 907 1239 q 813 1128 882 1171 q 650 1085 743 1085 z "},"Ǧ":{"ha":1043,"x_min":75,"x_max":983,"o":"m 983 558 l 946 65 q 773 8 872 28 q 560 -12 674 -12 q 302 46 411 -12 q 134 213 193 104 q 75 467 75 321 q 141 749 75 628 q 328 935 207 869 q 613 1001 450 1001 q 976 893 840 1001 l 882 708 q 764 776 822 754 q 629 797 706 797 q 413 710 489 797 q 338 465 338 622 q 402 257 338 329 q 597 185 467 185 q 722 201 656 185 l 736 382 l 563 382 l 576 558 l 983 558 m 915 1293 l 704 1074 l 565 1074 l 390 1293 l 572 1293 l 650 1183 l 735 1293 l 915 1293 z "},"Ĝ":{"ha":1043,"x_min":75,"x_max":983,"o":"m 983 558 l 946 65 q 773 8 872 28 q 560 -12 674 -12 q 302 46 411 -12 q 134 213 193 104 q 75 467 75 321 q 141 749 75 628 q 328 935 207 869 q 613 1001 450 1001 q 976 893 840 1001 l 882 708 q 764 776 822 754 q 629 797 706 797 q 413 710 489 797 q 338 465 338 622 q 402 257 338 329 q 597 185 467 185 q 722 201 656 185 l 736 382 l 563 382 l 576 558 l 983 558 m 374 1074 l 585 1293 l 721 1293 l 899 1074 l 717 1074 l 650 1182 l 554 1074 l 374 1074 z "},"Ģ":{"ha":1043,"x_min":75,"x_max":983,"o":"m 983 558 l 946 65 q 773 8 872 28 q 560 -12 674 -12 q 302 46 411 -12 q 134 213 193 104 q 75 467 75 321 q 141 749 75 628 q 328 935 207 869 q 613 1001 450 1001 q 976 893 840 1001 l 882 708 q 764 776 822 754 q 629 797 706 797 q 413 710 489 797 q 338 465 338 622 q 402 257 338 329 q 597 185 467 185 q 722 201 656 185 l 736 382 l 563 382 l 576 558 l 983 558 m 675 -89 l 668 -182 q 638 -302 661 -253 q 560 -394 614 -351 l 479 -336 q 532 -267 519 -304 l 421 -267 l 435 -89 l 675 -89 z "},"Ġ":{"ha":1043,"x_min":75,"x_max":983,"o":"m 983 558 l 946 65 q 773 8 872 28 q 560 -12 674 -12 q 302 46 411 -12 q 134 213 193 104 q 75 467 75 321 q 141 749 75 628 q 328 935 207 869 q 613 1001 450 1001 q 976 893 840 1001 l 882 708 q 764 776 822 754 q 629 797 706 797 q 413 710 489 797 q 338 465 338 622 q 402 257 338 329 q 597 185 467 185 q 722 201 656 185 l 736 382 l 563 382 l 576 558 l 983 558 m 786 1297 l 768 1071 l 506 1071 l 522 1297 l 786 1297 z "},"Ḡ":{"ha":1043,"x_min":75,"x_max":983,"o":"m 983 558 l 946 65 q 773 8 872 28 q 560 -12 674 -12 q 302 46 411 -12 q 134 213 193 104 q 75 467 75 321 q 141 749 75 628 q 328 935 207 869 q 613 1001 450 1001 q 976 893 840 1001 l 882 708 q 764 776 822 754 q 629 797 706 797 q 413 710 489 797 q 338 465 338 622 q 402 257 338 329 q 597 185 467 185 q 722 201 656 185 l 736 382 l 563 382 l 576 558 l 983 558 m 428 1258 l 876 1258 l 864 1108 l 415 1108 l 428 1258 z "},"H":{"ha":1089,"x_min":63,"x_max":1050,"o":"m 1050 989 l 972 0 l 715 0 l 747 400 l 350 400 l 318 0 l 63 0 l 140 989 l 397 989 l 367 604 l 764 604 l 796 989 l 1050 989 z "},"Ħ":{"ha":1192,"x_min":53,"x_max":1210,"o":"m 1196 706 l 1113 706 l 1056 0 l 801 0 l 833 400 l 435 400 l 403 0 l 146 0 l 203 706 l 53 706 l 67 894 l 218 894 l 226 989 l 481 989 l 474 894 l 872 894 l 879 989 l 1135 989 l 1128 894 l 1210 894 l 1196 706 m 857 706 l 458 706 l 450 604 l 849 604 l 857 706 z "},"Ḫ":{"ha":1089,"x_min":63,"x_max":1050,"o":"m 1050 989 l 972 0 l 715 0 l 747 400 l 350 400 l 318 0 l 63 0 l 140 989 l 397 989 l 367 604 l 764 604 l 796 989 l 1050 989 m 503 -326 q 335 -272 407 -326 q 238 -114 263 -217 l 350 -69 q 420 -148 376 -122 q 514 -174 464 -174 q 676 -69 607 -174 l 782 -114 q 678 -271 756 -215 q 503 -326 600 -326 z "},"Ĥ":{"ha":1089,"x_min":63,"x_max":1050,"o":"m 1050 989 l 972 0 l 715 0 l 747 400 l 350 400 l 318 0 l 63 0 l 140 989 l 397 989 l 367 604 l 764 604 l 796 989 l 1050 989 m 339 1074 l 550 1293 l 686 1293 l 864 1074 l 682 1074 l 615 1182 l 519 1074 l 339 1074 z "},"Ḥ":{"ha":1089,"x_min":63,"x_max":1050,"o":"m 1050 989 l 972 0 l 715 0 l 747 400 l 350 400 l 318 0 l 63 0 l 140 989 l 397 989 l 367 604 l 764 604 l 796 989 l 1050 989 m 624 -79 l 606 -289 l 383 -289 l 403 -79 l 624 -79 z "},"I":{"ha":439,"x_min":63,"x_max":400,"o":"m 139 989 l 400 989 l 322 0 l 63 0 l 139 989 z "},"Í":{"ha":439,"x_min":63,"x_max":594,"o":"m 139 989 l 400 989 l 322 0 l 63 0 l 139 989 m 200 1074 l 358 1293 l 594 1293 l 353 1074 l 200 1074 z "},"Ĭ":{"ha":439,"x_min":32,"x_max":549,"o":"m 139 989 l 400 989 l 322 0 l 63 0 l 139 989 m 292 1085 q 124 1127 194 1085 q 32 1239 54 1169 l 146 1285 q 206 1244 165 1260 q 296 1228 246 1228 q 383 1243 342 1228 q 444 1285 424 1258 l 549 1239 q 454 1128 524 1171 q 292 1085 385 1085 z "},"Î":{"ha":439,"x_min":15,"x_max":540,"o":"m 139 989 l 400 989 l 322 0 l 63 0 l 139 989 m 15 1074 l 226 1293 l 363 1293 l 540 1074 l 358 1074 l 292 1182 l 196 1074 l 15 1074 z "},"Ȉ":{"ha":439,"x_min":-7,"x_max":440,"o":"m 139 989 l 400 989 l 322 0 l 63 0 l 139 989 m -7 1293 l 146 1293 l 236 1074 l 115 1074 l -7 1293 m 199 1293 l 350 1293 l 440 1074 l 319 1074 l 199 1293 z "},"Ï":{"ha":439,"x_min":26,"x_max":547,"o":"m 139 989 l 400 989 l 322 0 l 63 0 l 139 989 m 268 1289 l 251 1079 l 26 1079 l 44 1289 l 268 1289 m 547 1289 l 529 1079 l 306 1079 l 324 1289 l 547 1289 z "},"Ḯ":{"ha":439,"x_min":26,"x_max":613,"o":"m 139 989 l 400 989 l 322 0 l 63 0 l 139 989 m 268 1289 l 251 1079 l 26 1079 l 44 1289 l 268 1289 m 547 1289 l 529 1079 l 306 1079 l 324 1289 l 547 1289 m 218 1299 l 376 1518 l 613 1518 l 371 1299 l 218 1299 z "},"İ":{"ha":439,"x_min":63,"x_max":428,"o":"m 139 989 l 400 989 l 322 0 l 63 0 l 139 989 m 428 1297 l 410 1071 l 147 1071 l 164 1297 l 428 1297 z "},"Ị":{"ha":439,"x_min":58,"x_max":400,"o":"m 139 989 l 400 989 l 322 0 l 63 0 l 139 989 m 299 -79 l 281 -289 l 58 -289 l 78 -79 l 299 -79 z "},"Ì":{"ha":439,"x_min":7,"x_max":400,"o":"m 139 989 l 400 989 l 322 0 l 63 0 l 139 989 m 7 1293 l 218 1293 l 353 1074 l 200 1074 l 7 1293 z "},"Ỉ":{"ha":439,"x_min":63,"x_max":465,"o":"m 139 989 l 400 989 l 322 0 l 63 0 l 139 989 m 335 1074 l 219 1074 l 224 1106 q 241 1143 225 1131 q 285 1168 257 1156 q 312 1181 304 1176 q 319 1194 319 1186 q 285 1210 319 1210 q 199 1196 249 1210 l 175 1276 q 314 1299 239 1299 q 424 1274 383 1299 q 465 1215 465 1250 q 446 1169 465 1186 q 390 1138 426 1153 q 351 1116 364 1125 q 336 1093 338 1107 l 335 1074 z "},"Ȋ":{"ha":439,"x_min":24,"x_max":540,"o":"m 139 989 l 400 989 l 322 0 l 63 0 l 139 989 m 281 1283 q 448 1242 378 1283 q 540 1129 518 1200 l 426 1085 q 367 1126 407 1110 q 276 1142 326 1142 q 189 1126 229 1142 q 128 1085 149 1111 l 24 1129 q 118 1240 49 1197 q 281 1283 188 1283 z "},"Ī":{"ha":439,"x_min":57,"x_max":518,"o":"m 139 989 l 400 989 l 322 0 l 63 0 l 139 989 m 69 1258 l 518 1258 l 506 1108 l 57 1108 l 69 1258 z "},"Į":{"ha":439,"x_min":19,"x_max":401,"o":"m 250 -154 q 328 -139 279 -154 l 343 -251 q 204 -278 274 -278 q 70 -235 121 -278 q 19 -124 19 -193 q 75 0 19 -47 l 63 0 l 139 989 l 401 989 l 324 0 l 299 0 q 208 -24 239 0 q 178 -89 178 -49 q 198 -137 178 -119 q 250 -154 218 -154 z "},"Ĩ":{"ha":439,"x_min":26,"x_max":547,"o":"m 139 989 l 400 989 l 322 0 l 63 0 l 139 989 m 26 1075 q 83 1244 33 1192 q 207 1297 133 1297 q 254 1288 232 1297 q 306 1260 276 1278 q 350 1235 333 1243 q 383 1228 367 1228 q 444 1293 435 1228 l 547 1293 q 490 1124 540 1176 q 365 1071 439 1071 q 320 1080 340 1071 q 267 1108 300 1089 q 224 1132 242 1124 q 190 1140 207 1140 q 129 1075 139 1140 l 26 1075 z "},"J":{"ha":560,"x_min":-43,"x_max":519,"o":"m -28 -40 q 68 -47 38 -47 q 156 -22 131 -47 q 186 74 181 4 l 258 989 l 519 989 l 449 78 q 355 -178 435 -96 q 104 -261 275 -261 q -43 -249 38 -261 l -28 -40 z "},"Ĵ":{"ha":560,"x_min":-43,"x_max":660,"o":"m -28 -40 q 68 -47 38 -47 q 156 -22 131 -47 q 186 74 181 4 l 258 989 l 519 989 l 449 78 q 355 -178 435 -96 q 104 -261 275 -261 q -43 -249 38 -261 l -28 -40 m 135 1074 l 346 1293 l 482 1293 l 660 1074 l 478 1074 l 411 1182 l 315 1074 l 135 1074 z "},"K":{"ha":981,"x_min":64,"x_max":1092,"o":"m 622 508 l 1031 0 l 728 0 l 360 446 l 325 0 l 64 0 l 140 989 l 403 989 l 369 563 l 778 989 l 1092 989 l 622 508 z "},"Ķ":{"ha":981,"x_min":64,"x_max":1092,"o":"m 622 508 l 1031 0 l 728 0 l 360 446 l 325 0 l 64 0 l 140 989 l 403 989 l 369 563 l 778 989 l 1092 989 l 622 508 m 581 -89 l 574 -182 q 543 -302 567 -253 q 465 -394 519 -351 l 385 -336 q 438 -267 425 -304 l 326 -267 l 340 -89 l 581 -89 z "},"L":{"ha":804,"x_min":63,"x_max":757,"o":"m 140 989 l 403 989 l 339 211 l 757 211 l 742 0 l 63 0 l 140 989 z "},"Ǉ":{"ha":1311,"x_min":63,"x_max":1274,"o":"m 140 989 l 403 989 l 339 211 l 715 211 l 700 0 l 63 0 l 140 989 m 725 -40 q 821 -47 788 -47 q 908 -22 883 -47 q 939 74 933 4 l 1010 989 l 1274 989 l 1201 78 q 1107 -178 1188 -96 q 856 -261 1026 -261 q 708 -249 790 -261 l 725 -40 z "},"Ĺ":{"ha":804,"x_min":63,"x_max":757,"o":"m 140 989 l 403 989 l 339 211 l 757 211 l 742 0 l 63 0 l 140 989 m 199 1074 l 357 1293 l 593 1293 l 351 1074 l 199 1074 z "},"Ľ":{"ha":804,"x_min":63,"x_max":757,"o":"m 140 989 l 403 989 l 339 211 l 757 211 l 742 0 l 63 0 l 140 989 m 504 715 l 525 989 l 678 989 l 618 715 l 504 715 z "},"Ļ":{"ha":804,"x_min":63,"x_max":757,"o":"m 140 989 l 403 989 l 339 211 l 757 211 l 742 0 l 63 0 l 140 989 m 526 -89 l 519 -182 q 489 -302 513 -253 q 411 -394 465 -351 l 331 -336 q 383 -267 371 -304 l 272 -267 l 286 -89 l 526 -89 z "},"Ŀ":{"ha":804,"x_min":63,"x_max":757,"o":"m 140 989 l 403 989 l 339 211 l 757 211 l 742 0 l 63 0 l 140 989 m 724 607 l 704 383 l 444 383 l 463 607 l 724 607 z "},"Ḷ":{"ha":804,"x_min":63,"x_max":757,"o":"m 140 989 l 403 989 l 339 211 l 757 211 l 742 0 l 63 0 l 140 989 m 519 -79 l 501 -289 l 279 -289 l 299 -79 l 519 -79 z "},"ǈ":{"ha":1206,"x_min":63,"x_max":1190,"o":"m 140 989 l 403 989 l 339 211 l 757 211 l 742 0 l 63 0 l 140 989 m 672 -100 q 740 -110 711 -110 q 817 -83 786 -110 q 851 -6 847 -57 l 908 706 l 1161 706 l 1104 -8 q 1013 -232 1093 -151 q 788 -312 932 -312 q 658 -293 706 -312 l 672 -100 m 1190 1051 l 1172 825 l 910 825 l 926 1051 l 1190 1051 z "},"Ḻ":{"ha":804,"x_min":63,"x_max":757,"o":"m 140 989 l 403 989 l 339 211 l 757 211 l 742 0 l 63 0 l 140 989 m 182 -114 l 629 -114 l 618 -254 l 171 -254 l 182 -114 z "},"Ł":{"ha":857,"x_min":7,"x_max":811,"o":"m 811 211 l 794 0 l 114 0 l 139 314 l 7 242 l 25 460 l 156 532 l 192 989 l 453 989 l 429 683 l 696 831 l 679 610 l 411 463 l 392 211 l 811 211 z "},"M":{"ha":1183,"x_min":67,"x_max":1140,"o":"m 1140 989 l 1064 0 l 836 0 l 871 449 l 647 0 l 482 0 l 328 447 l 293 0 l 67 0 l 143 989 l 346 989 l 589 306 l 938 989 l 1140 989 z "},"Ṃ":{"ha":1183,"x_min":67,"x_max":1140,"o":"m 1140 989 l 1064 0 l 836 0 l 871 449 l 647 0 l 482 0 l 328 447 l 293 0 l 67 0 l 143 989 l 346 989 l 589 306 l 938 989 l 1140 989 m 669 -79 l 651 -289 l 429 -289 l 449 -79 l 669 -79 z "},"N":{"ha":1064,"x_min":63,"x_max":1024,"o":"m 1024 989 l 946 0 l 751 0 l 349 551 l 304 0 l 63 0 l 140 989 l 331 989 l 735 436 l 781 989 l 1024 989 z "},"Ǌ":{"ha":1624,"x_min":63,"x_max":1583,"o":"m 1024 989 l 946 0 l 751 0 l 349 551 l 304 0 l 63 0 l 140 989 l 331 989 l 735 436 l 781 989 l 1024 989 m 1036 -40 q 1132 -47 1101 -47 q 1219 -22 1194 -47 q 1250 74 1244 4 l 1322 989 l 1583 989 l 1513 78 q 1419 -178 1499 -96 q 1168 -261 1339 -261 q 1021 -249 1101 -261 l 1036 -40 z "},"Ń":{"ha":1064,"x_min":63,"x_max":1024,"o":"m 1024 989 l 946 0 l 751 0 l 349 551 l 304 0 l 63 0 l 140 989 l 331 989 l 735 436 l 781 989 l 1024 989 m 510 1074 l 668 1293 l 904 1293 l 663 1074 l 510 1074 z "},"Ň":{"ha":1064,"x_min":63,"x_max":1024,"o":"m 1024 989 l 946 0 l 751 0 l 349 551 l 304 0 l 63 0 l 140 989 l 331 989 l 735 436 l 781 989 l 1024 989 m 867 1293 l 656 1074 l 517 1074 l 342 1293 l 524 1293 l 601 1183 l 686 1293 l 867 1293 z "},"Ņ":{"ha":1064,"x_min":63,"x_max":1024,"o":"m 1024 989 l 946 0 l 751 0 l 349 551 l 304 0 l 63 0 l 140 989 l 331 989 l 735 436 l 781 989 l 1024 989 m 618 -89 l 611 -182 q 581 -302 604 -253 q 503 -394 557 -351 l 422 -336 q 475 -267 463 -304 l 364 -267 l 378 -89 l 618 -89 z "},"Ṅ":{"ha":1064,"x_min":63,"x_max":1024,"o":"m 1024 989 l 946 0 l 751 0 l 349 551 l 304 0 l 63 0 l 140 989 l 331 989 l 735 436 l 781 989 l 1024 989 m 738 1297 l 719 1071 l 457 1071 l 474 1297 l 738 1297 z "},"Ṇ":{"ha":1064,"x_min":63,"x_max":1024,"o":"m 1024 989 l 946 0 l 751 0 l 349 551 l 304 0 l 63 0 l 140 989 l 331 989 l 735 436 l 781 989 l 1024 989 m 611 -79 l 593 -289 l 371 -289 l 390 -79 l 611 -79 z "},"Ŋ":{"ha":1064,"x_min":63,"x_max":1024,"o":"m 1024 989 l 951 71 q 851 -169 938 -90 q 596 -257 764 -249 l 474 -264 l 460 -71 l 575 -65 q 667 -31 633 -62 q 704 53 700 0 l 706 64 l 349 551 l 304 0 l 63 0 l 140 989 l 331 989 l 735 436 l 781 989 l 1024 989 z "},"ǋ":{"ha":1465,"x_min":63,"x_max":1450,"o":"m 1024 989 l 946 0 l 751 0 l 349 551 l 304 0 l 63 0 l 140 989 l 331 989 l 735 436 l 781 989 l 1024 989 m 932 -100 q 1000 -110 971 -110 q 1076 -83 1046 -110 q 1111 -6 1107 -57 l 1168 706 l 1421 706 l 1364 -8 q 1272 -232 1353 -151 q 1047 -312 1192 -312 q 918 -293 965 -312 l 932 -100 m 1450 1051 l 1432 825 l 1169 825 l 1186 1051 l 1450 1051 z "},"Ṉ":{"ha":1064,"x_min":63,"x_max":1024,"o":"m 1024 989 l 946 0 l 751 0 l 349 551 l 304 0 l 63 0 l 140 989 l 331 989 l 735 436 l 781 989 l 1024 989 m 274 -114 l 721 -114 l 710 -254 l 263 -254 l 274 -114 z "},"Ñ":{"ha":1064,"x_min":63,"x_max":1024,"o":"m 1024 989 l 946 0 l 751 0 l 349 551 l 304 0 l 63 0 l 140 989 l 331 989 l 735 436 l 781 989 l 1024 989 m 336 1075 q 393 1244 343 1192 q 517 1297 443 1297 q 564 1288 542 1297 q 615 1260 586 1278 q 660 1235 643 1243 q 693 1228 676 1228 q 754 1293 744 1228 l 857 1293 q 799 1124 850 1176 q 675 1071 749 1071 q 630 1080 650 1071 q 576 1108 610 1089 q 534 1132 551 1124 q 500 1140 517 1140 q 439 1075 449 1140 l 336 1075 z "},"O":{"ha":1118,"x_min":75,"x_max":1067,"o":"m 565 -14 q 306 44 417 -14 q 135 210 194 101 q 75 464 75 318 q 137 747 75 625 q 313 936 199 869 q 576 1003 426 1003 q 836 945 725 1003 q 1007 779 947 888 q 1067 525 1067 671 q 1005 242 1067 364 q 829 53 943 119 q 565 -14 715 -14 m 563 186 q 741 276 675 186 q 807 525 807 367 q 747 730 807 657 q 581 803 688 803 q 400 713 465 803 q 335 464 335 622 q 394 258 335 331 q 563 186 453 186 z "},"Ó":{"ha":1118,"x_min":75,"x_max":1067,"o":"m 565 -14 q 306 44 417 -14 q 135 210 194 101 q 75 464 75 318 q 137 747 75 625 q 313 936 199 869 q 576 1003 426 1003 q 836 945 725 1003 q 1007 779 947 888 q 1067 525 1067 671 q 1005 242 1067 364 q 829 53 943 119 q 565 -14 715 -14 m 563 186 q 741 276 675 186 q 807 525 807 367 q 747 730 807 657 q 581 803 688 803 q 400 713 465 803 q 335 464 335 622 q 394 258 335 331 q 563 186 453 186 m 538 1074 l 696 1293 l 932 1293 l 690 1074 l 538 1074 z "},"Ŏ":{"ha":1118,"x_min":75,"x_max":1067,"o":"m 565 -14 q 306 44 417 -14 q 135 210 194 101 q 75 464 75 318 q 137 747 75 625 q 313 936 199 869 q 576 1003 426 1003 q 836 945 725 1003 q 1007 779 947 888 q 1067 525 1067 671 q 1005 242 1067 364 q 829 53 943 119 q 565 -14 715 -14 m 563 186 q 741 276 675 186 q 807 525 807 367 q 747 730 807 657 q 581 803 688 803 q 400 713 465 803 q 335 464 335 622 q 394 258 335 331 q 563 186 453 186 m 629 1085 q 462 1127 532 1085 q 369 1239 392 1169 l 483 1285 q 543 1244 503 1260 q 633 1228 583 1228 q 720 1243 679 1228 q 782 1285 761 1258 l 886 1239 q 792 1128 861 1171 q 629 1085 722 1085 z "},"Ô":{"ha":1118,"x_min":75,"x_max":1067,"o":"m 565 -14 q 306 44 417 -14 q 135 210 194 101 q 75 464 75 318 q 137 747 75 625 q 313 936 199 869 q 576 1003 426 1003 q 836 945 725 1003 q 1007 779 947 888 q 1067 525 1067 671 q 1005 242 1067 364 q 829 53 943 119 q 565 -14 715 -14 m 563 186 q 741 276 675 186 q 807 525 807 367 q 747 730 807 657 q 581 803 688 803 q 400 713 465 803 q 335 464 335 622 q 394 258 335 331 q 563 186 453 186 m 353 1074 l 564 1293 l 700 1293 l 878 1074 l 696 1074 l 629 1182 l 533 1074 l 353 1074 z "},"Ố":{"ha":1118,"x_min":75,"x_max":1074,"o":"m 565 -14 q 306 44 417 -14 q 135 210 194 101 q 75 464 75 318 q 137 747 75 625 q 313 936 199 869 q 576 1003 426 1003 q 836 945 725 1003 q 1007 779 947 888 q 1067 525 1067 671 q 1005 242 1067 364 q 829 53 943 119 q 565 -14 715 -14 m 563 186 q 741 276 675 186 q 807 525 807 367 q 747 730 807 657 q 581 803 688 803 q 400 713 465 803 q 335 464 335 622 q 394 258 335 331 q 563 186 453 186 m 863 1422 l 1074 1422 l 882 1225 l 764 1225 l 863 1422 m 561 1263 l 699 1263 l 878 1074 l 701 1074 l 625 1156 l 532 1074 l 353 1074 l 561 1263 z "},"Ộ":{"ha":1118,"x_min":75,"x_max":1067,"o":"m 565 -14 q 306 44 417 -14 q 135 210 194 101 q 75 464 75 318 q 137 747 75 625 q 313 936 199 869 q 576 1003 426 1003 q 836 945 725 1003 q 1007 779 947 888 q 1067 525 1067 671 q 1005 242 1067 364 q 829 53 943 119 q 565 -14 715 -14 m 563 186 q 741 276 675 186 q 807 525 807 367 q 747 730 807 657 q 581 803 688 803 q 400 713 465 803 q 335 464 335 622 q 394 258 335 331 q 563 186 453 186 m 639 -79 l 621 -289 l 399 -289 l 418 -79 l 639 -79 m 353 1074 l 564 1293 l 700 1293 l 878 1074 l 696 1074 l 629 1182 l 533 1074 l 353 1074 z "},"Ồ":{"ha":1118,"x_min":75,"x_max":1067,"o":"m 565 -14 q 306 44 417 -14 q 135 210 194 101 q 75 464 75 318 q 137 747 75 625 q 313 936 199 869 q 576 1003 426 1003 q 836 945 725 1003 q 1007 779 947 888 q 1067 525 1067 671 q 1005 242 1067 364 q 829 53 943 119 q 565 -14 715 -14 m 563 186 q 741 276 675 186 q 807 525 807 367 q 747 730 807 657 q 581 803 688 803 q 400 713 465 803 q 335 464 335 622 q 394 258 335 331 q 563 186 453 186 m 667 1422 l 853 1422 l 939 1225 l 822 1225 l 667 1422 m 561 1263 l 699 1263 l 878 1074 l 701 1074 l 625 1156 l 532 1074 l 353 1074 l 561 1263 z "},"Ổ":{"ha":1118,"x_min":75,"x_max":1067,"o":"m 565 -14 q 306 44 417 -14 q 135 210 194 101 q 75 464 75 318 q 137 747 75 625 q 313 936 199 869 q 576 1003 426 1003 q 836 945 725 1003 q 1007 779 947 888 q 1067 525 1067 671 q 1005 242 1067 364 q 829 53 943 119 q 565 -14 715 -14 m 563 186 q 741 276 675 186 q 807 525 807 367 q 747 730 807 657 q 581 803 688 803 q 400 713 465 803 q 335 464 335 622 q 394 258 335 331 q 563 186 453 186 m 765 1257 q 788 1298 768 1283 q 835 1324 808 1313 q 861 1339 861 1335 q 838 1346 861 1346 q 740 1333 796 1346 l 718 1408 q 863 1431 779 1431 q 969 1410 929 1431 q 1008 1354 1008 1389 q 990 1308 1008 1324 q 935 1279 971 1293 q 897 1261 910 1269 q 882 1238 883 1253 l 881 1228 l 763 1228 l 765 1257 m 561 1263 l 699 1263 l 878 1074 l 701 1074 l 625 1156 l 532 1074 l 353 1074 l 561 1263 z "},"Ỗ":{"ha":1118,"x_min":75,"x_max":1067,"o":"m 565 -14 q 306 44 417 -14 q 135 210 194 101 q 75 464 75 318 q 137 747 75 625 q 313 936 199 869 q 576 1003 426 1003 q 836 945 725 1003 q 1007 779 947 888 q 1067 525 1067 671 q 1005 242 1067 364 q 829 53 943 119 q 565 -14 715 -14 m 563 186 q 741 276 675 186 q 807 525 807 367 q 747 730 807 657 q 581 803 688 803 q 400 713 465 803 q 335 464 335 622 q 394 258 335 331 q 563 186 453 186 m 379 1289 q 433 1398 382 1357 q 547 1439 485 1439 q 598 1434 575 1439 q 658 1418 621 1429 q 747 1400 715 1400 q 778 1406 767 1400 q 792 1433 789 1413 l 894 1433 q 869 1355 893 1389 q 807 1302 844 1321 q 729 1283 769 1283 q 676 1289 701 1283 q 619 1306 651 1294 q 533 1324 565 1324 q 499 1317 513 1324 q 482 1289 486 1310 l 379 1289 m 561 1263 l 699 1263 l 878 1074 l 701 1074 l 625 1156 l 532 1074 l 353 1074 l 561 1263 z "},"Ȍ":{"ha":1118,"x_min":75,"x_max":1067,"o":"m 565 -14 q 306 44 417 -14 q 135 210 194 101 q 75 464 75 318 q 137 747 75 625 q 313 936 199 869 q 576 1003 426 1003 q 836 945 725 1003 q 1007 779 947 888 q 1067 525 1067 671 q 1005 242 1067 364 q 829 53 943 119 q 565 -14 715 -14 m 563 186 q 741 276 675 186 q 807 525 807 367 q 747 730 807 657 q 581 803 688 803 q 400 713 465 803 q 335 464 335 622 q 394 258 335 331 q 563 186 453 186 m 331 1293 l 483 1293 l 574 1074 l 453 1074 l 331 1293 m 536 1293 l 688 1293 l 778 1074 l 657 1074 l 536 1293 z "},"Ö":{"ha":1118,"x_min":75,"x_max":1067,"o":"m 565 -14 q 306 44 417 -14 q 135 210 194 101 q 75 464 75 318 q 137 747 75 625 q 313 936 199 869 q 576 1003 426 1003 q 836 945 725 1003 q 1007 779 947 888 q 1067 525 1067 671 q 1005 242 1067 364 q 829 53 943 119 q 565 -14 715 -14 m 563 186 q 741 276 675 186 q 807 525 807 367 q 747 730 807 657 q 581 803 688 803 q 400 713 465 803 q 335 464 335 622 q 394 258 335 331 q 563 186 453 186 m 606 1289 l 589 1079 l 364 1079 l 382 1289 l 606 1289 m 885 1289 l 867 1079 l 643 1079 l 661 1289 l 885 1289 z "},"Ȫ":{"ha":1118,"x_min":75,"x_max":1067,"o":"m 565 -14 q 306 44 417 -14 q 135 210 194 101 q 75 464 75 318 q 137 747 75 625 q 313 936 199 869 q 576 1003 426 1003 q 836 945 725 1003 q 1007 779 947 888 q 1067 525 1067 671 q 1005 242 1067 364 q 829 53 943 119 q 565 -14 715 -14 m 563 186 q 741 276 675 186 q 807 525 807 367 q 747 730 807 657 q 581 803 688 803 q 400 713 465 803 q 335 464 335 622 q 394 258 335 331 q 563 186 453 186 m 606 1289 l 589 1079 l 364 1079 l 382 1289 l 606 1289 m 885 1289 l 867 1079 l 643 1079 l 661 1289 l 885 1289 m 425 1483 l 874 1483 l 861 1333 l 413 1333 l 425 1483 z "},"Ȱ":{"ha":1118,"x_min":75,"x_max":1067,"o":"m 565 -14 q 306 44 417 -14 q 135 210 194 101 q 75 464 75 318 q 137 747 75 625 q 313 936 199 869 q 576 1003 426 1003 q 836 945 725 1003 q 1007 779 947 888 q 1067 525 1067 671 q 1005 242 1067 364 q 829 53 943 119 q 565 -14 715 -14 m 563 186 q 741 276 675 186 q 807 525 807 367 q 747 730 807 657 q 581 803 688 803 q 400 713 465 803 q 335 464 335 622 q 394 258 335 331 q 563 186 453 186 m 765 1297 l 747 1071 l 485 1071 l 501 1297 l 765 1297 m 425 1483 l 874 1483 l 861 1333 l 413 1333 l 425 1483 z "},"Ọ":{"ha":1118,"x_min":75,"x_max":1067,"o":"m 565 -14 q 306 44 417 -14 q 135 210 194 101 q 75 464 75 318 q 137 747 75 625 q 313 936 199 869 q 576 1003 426 1003 q 836 945 725 1003 q 1007 779 947 888 q 1067 525 1067 671 q 1005 242 1067 364 q 829 53 943 119 q 565 -14 715 -14 m 563 186 q 741 276 675 186 q 807 525 807 367 q 747 730 807 657 q 581 803 688 803 q 400 713 465 803 q 335 464 335 622 q 394 258 335 331 q 563 186 453 186 m 639 -79 l 621 -289 l 399 -289 l 418 -79 l 639 -79 z "},"Ò":{"ha":1118,"x_min":75,"x_max":1067,"o":"m 565 -14 q 306 44 417 -14 q 135 210 194 101 q 75 464 75 318 q 137 747 75 625 q 313 936 199 869 q 576 1003 426 1003 q 836 945 725 1003 q 1007 779 947 888 q 1067 525 1067 671 q 1005 242 1067 364 q 829 53 943 119 q 565 -14 715 -14 m 563 186 q 741 276 675 186 q 807 525 807 367 q 747 730 807 657 q 581 803 688 803 q 400 713 465 803 q 335 464 335 622 q 394 258 335 331 q 563 186 453 186 m 344 1293 l 556 1293 l 690 1074 l 538 1074 l 344 1293 z "},"Ỏ":{"ha":1118,"x_min":75,"x_max":1067,"o":"m 565 -14 q 306 44 417 -14 q 135 210 194 101 q 75 464 75 318 q 137 747 75 625 q 313 936 199 869 q 576 1003 426 1003 q 836 945 725 1003 q 1007 779 947 888 q 1067 525 1067 671 q 1005 242 1067 364 q 829 53 943 119 q 565 -14 715 -14 m 563 186 q 741 276 675 186 q 807 525 807 367 q 747 730 807 657 q 581 803 688 803 q 400 713 465 803 q 335 464 335 622 q 394 258 335 331 q 563 186 453 186 m 672 1074 l 557 1074 l 561 1106 q 578 1143 563 1131 q 622 1168 594 1156 q 649 1181 642 1176 q 657 1194 657 1186 q 622 1210 657 1210 q 536 1196 586 1210 l 513 1276 q 651 1299 576 1299 q 762 1274 721 1299 q 803 1215 803 1250 q 783 1169 803 1186 q 728 1138 764 1153 q 688 1116 701 1125 q 674 1093 675 1107 l 672 1074 z "},"Ơ":{"ha":1118,"x_min":75,"x_max":1119,"o":"m 1114 1097 q 1059 952 1108 1013 q 935 876 1010 892 q 1033 724 1000 813 q 1067 525 1067 635 q 1005 242 1067 364 q 829 53 943 119 q 565 -14 715 -14 q 306 44 417 -14 q 135 210 194 101 q 75 464 75 318 q 138 747 75 625 q 318 936 201 869 q 590 1003 435 1003 q 704 994 640 1003 q 781 989 757 989 q 869 1019 844 989 q 901 1126 894 1049 l 904 1157 l 1119 1157 l 1114 1097 m 563 186 q 741 276 675 186 q 807 525 807 367 q 747 730 807 657 q 581 803 688 803 q 400 713 465 803 q 335 464 335 622 q 394 258 335 331 q 563 186 453 186 z "},"Ớ":{"ha":1118,"x_min":75,"x_max":1119,"o":"m 1114 1097 q 1059 952 1108 1013 q 935 876 1010 892 q 1033 724 1000 813 q 1067 525 1067 635 q 1005 242 1067 364 q 829 53 943 119 q 565 -14 715 -14 q 306 44 417 -14 q 135 210 194 101 q 75 464 75 318 q 138 747 75 625 q 318 936 201 869 q 590 1003 435 1003 q 704 994 640 1003 q 781 989 757 989 q 869 1019 844 989 q 901 1126 894 1049 l 904 1157 l 1119 1157 l 1114 1097 m 563 186 q 741 276 675 186 q 807 525 807 367 q 747 730 807 657 q 581 803 688 803 q 400 713 465 803 q 335 464 335 622 q 394 258 335 331 q 563 186 453 186 m 538 1074 l 696 1293 l 932 1293 l 690 1074 l 538 1074 z "},"Ợ":{"ha":1118,"x_min":75,"x_max":1119,"o":"m 1114 1097 q 1059 952 1108 1013 q 935 876 1010 892 q 1033 724 1000 813 q 1067 525 1067 635 q 1005 242 1067 364 q 829 53 943 119 q 565 -14 715 -14 q 306 44 417 -14 q 135 210 194 101 q 75 464 75 318 q 138 747 75 625 q 318 936 201 869 q 590 1003 435 1003 q 704 994 640 1003 q 781 989 757 989 q 869 1019 844 989 q 901 1126 894 1049 l 904 1157 l 1119 1157 l 1114 1097 m 563 186 q 741 276 675 186 q 807 525 807 367 q 747 730 807 657 q 581 803 688 803 q 400 713 465 803 q 335 464 335 622 q 394 258 335 331 q 563 186 453 186 m 639 -79 l 621 -289 l 399 -289 l 418 -79 l 639 -79 z "},"Ờ":{"ha":1118,"x_min":75,"x_max":1119,"o":"m 1114 1097 q 1059 952 1108 1013 q 935 876 1010 892 q 1033 724 1000 813 q 1067 525 1067 635 q 1005 242 1067 364 q 829 53 943 119 q 565 -14 715 -14 q 306 44 417 -14 q 135 210 194 101 q 75 464 75 318 q 138 747 75 625 q 318 936 201 869 q 590 1003 435 1003 q 704 994 640 1003 q 781 989 757 989 q 869 1019 844 989 q 901 1126 894 1049 l 904 1157 l 1119 1157 l 1114 1097 m 563 186 q 741 276 675 186 q 807 525 807 367 q 747 730 807 657 q 581 803 688 803 q 400 713 465 803 q 335 464 335 622 q 394 258 335 331 q 563 186 453 186 m 344 1293 l 556 1293 l 690 1074 l 538 1074 l 344 1293 z "},"Ở":{"ha":1118,"x_min":75,"x_max":1119,"o":"m 1114 1097 q 1059 952 1108 1013 q 935 876 1010 892 q 1033 724 1000 813 q 1067 525 1067 635 q 1005 242 1067 364 q 829 53 943 119 q 565 -14 715 -14 q 306 44 417 -14 q 135 210 194 101 q 75 464 75 318 q 138 747 75 625 q 318 936 201 869 q 590 1003 435 1003 q 704 994 640 1003 q 781 989 757 989 q 869 1019 844 989 q 901 1126 894 1049 l 904 1157 l 1119 1157 l 1114 1097 m 563 186 q 741 276 675 186 q 807 525 807 367 q 747 730 807 657 q 581 803 688 803 q 400 713 465 803 q 335 464 335 622 q 394 258 335 331 q 563 186 453 186 m 672 1074 l 557 1074 l 561 1106 q 578 1143 563 1131 q 622 1168 594 1156 q 649 1181 642 1176 q 657 1194 657 1186 q 622 1210 657 1210 q 536 1196 586 1210 l 513 1276 q 651 1299 576 1299 q 762 1274 721 1299 q 803 1215 803 1250 q 783 1169 803 1186 q 728 1138 764 1153 q 688 1116 701 1125 q 674 1093 675 1107 l 672 1074 z "},"Ỡ":{"ha":1118,"x_min":75,"x_max":1119,"o":"m 1114 1097 q 1059 952 1108 1013 q 935 876 1010 892 q 1033 724 1000 813 q 1067 525 1067 635 q 1005 242 1067 364 q 829 53 943 119 q 565 -14 715 -14 q 306 44 417 -14 q 135 210 194 101 q 75 464 75 318 q 138 747 75 625 q 318 936 201 869 q 590 1003 435 1003 q 704 994 640 1003 q 781 989 757 989 q 869 1019 844 989 q 901 1126 894 1049 l 904 1157 l 1119 1157 l 1114 1097 m 563 186 q 741 276 675 186 q 807 525 807 367 q 747 730 807 657 q 581 803 688 803 q 400 713 465 803 q 335 464 335 622 q 394 258 335 331 q 563 186 453 186 m 364 1075 q 421 1244 371 1192 q 544 1297 471 1297 q 592 1288 569 1297 q 643 1260 614 1278 q 688 1235 671 1243 q 721 1228 704 1228 q 782 1293 772 1228 l 885 1293 q 827 1124 878 1176 q 703 1071 776 1071 q 658 1080 678 1071 q 604 1108 638 1089 q 562 1132 579 1124 q 528 1140 544 1140 q 467 1075 476 1140 l 364 1075 z "},"Ő":{"ha":1118,"x_min":75,"x_max":1067,"o":"m 565 -14 q 306 44 417 -14 q 135 210 194 101 q 75 464 75 318 q 137 747 75 625 q 313 936 199 869 q 576 1003 426 1003 q 836 945 725 1003 q 1007 779 947 888 q 1067 525 1067 671 q 1005 242 1067 364 q 829 53 943 119 q 565 -14 715 -14 m 563 186 q 741 276 675 186 q 807 525 807 367 q 747 730 807 657 q 581 803 688 803 q 400 713 465 803 q 335 464 335 622 q 394 258 335 331 q 563 186 453 186 m 569 1293 l 735 1293 l 574 1074 l 453 1074 l 569 1293 m 775 1293 l 939 1293 l 778 1074 l 657 1074 l 775 1293 z "},"Ȏ":{"ha":1118,"x_min":75,"x_max":1067,"o":"m 565 -14 q 306 44 417 -14 q 135 210 194 101 q 75 464 75 318 q 137 747 75 625 q 313 936 199 869 q 576 1003 426 1003 q 836 945 725 1003 q 1007 779 947 888 q 1067 525 1067 671 q 1005 242 1067 364 q 829 53 943 119 q 565 -14 715 -14 m 563 186 q 741 276 675 186 q 807 525 807 367 q 747 730 807 657 q 581 803 688 803 q 400 713 465 803 q 335 464 335 622 q 394 258 335 331 q 563 186 453 186 m 618 1283 q 785 1242 715 1283 q 878 1129 856 1200 l 764 1085 q 704 1126 744 1110 q 614 1142 664 1142 q 526 1126 567 1142 q 465 1085 486 1111 l 361 1129 q 456 1240 386 1197 q 618 1283 525 1283 z "},"Ō":{"ha":1118,"x_min":75,"x_max":1067,"o":"m 565 -14 q 306 44 417 -14 q 135 210 194 101 q 75 464 75 318 q 137 747 75 625 q 313 936 199 869 q 576 1003 426 1003 q 836 945 725 1003 q 1007 779 947 888 q 1067 525 1067 671 q 1005 242 1067 364 q 829 53 943 119 q 565 -14 715 -14 m 563 186 q 741 276 675 186 q 807 525 807 367 q 747 730 807 657 q 581 803 688 803 q 400 713 465 803 q 335 464 335 622 q 394 258 335 331 q 563 186 453 186 m 407 1258 l 856 1258 l 843 1108 l 394 1108 l 407 1258 z "},"Ṓ":{"ha":1118,"x_min":75,"x_max":1067,"o":"m 565 -14 q 306 44 417 -14 q 135 210 194 101 q 75 464 75 318 q 137 747 75 625 q 313 936 199 869 q 576 1003 426 1003 q 836 945 725 1003 q 1007 779 947 888 q 1067 525 1067 671 q 1005 242 1067 364 q 829 53 943 119 q 565 -14 715 -14 m 563 186 q 741 276 675 186 q 807 525 807 367 q 747 730 807 657 q 581 803 688 803 q 400 713 465 803 q 335 464 335 622 q 394 258 335 331 q 563 186 453 186 m 407 1258 l 856 1258 l 843 1108 l 394 1108 l 407 1258 m 556 1299 l 714 1518 l 950 1518 l 708 1299 l 556 1299 z "},"Ṑ":{"ha":1118,"x_min":75,"x_max":1067,"o":"m 565 -14 q 306 44 417 -14 q 135 210 194 101 q 75 464 75 318 q 137 747 75 625 q 313 936 199 869 q 576 1003 426 1003 q 836 945 725 1003 q 1007 779 947 888 q 1067 525 1067 671 q 1005 242 1067 364 q 829 53 943 119 q 565 -14 715 -14 m 563 186 q 741 276 675 186 q 807 525 807 367 q 747 730 807 657 q 581 803 688 803 q 400 713 465 803 q 335 464 335 622 q 394 258 335 331 q 563 186 453 186 m 407 1258 l 856 1258 l 843 1108 l 394 1108 l 407 1258 m 363 1518 l 574 1518 l 708 1299 l 556 1299 l 363 1518 z "},"Ǫ":{"ha":1118,"x_min":75,"x_max":1067,"o":"m 703 1 q 607 -89 607 -19 q 626 -137 607 -119 q 679 -154 646 -154 q 757 -139 708 -154 l 771 -251 q 633 -278 701 -278 q 499 -236 550 -278 q 449 -128 449 -194 q 497 -11 449 -56 q 274 60 369 -1 q 127 224 179 121 q 75 464 75 328 q 137 747 75 625 q 313 936 199 869 q 576 1003 426 1003 q 840 945 729 1003 q 1008 780 950 888 q 1067 525 1067 672 q 1020 274 1067 385 q 891 94 974 164 q 703 1 808 25 m 563 186 q 741 276 675 186 q 807 525 807 367 q 747 730 807 657 q 581 803 688 803 q 400 713 465 803 q 335 464 335 622 q 394 258 335 331 q 563 186 453 186 z "},"Ø":{"ha":1118,"x_min":75,"x_max":1067,"o":"m 932 876 q 1032 724 997 814 q 1067 525 1067 635 q 1005 242 1067 364 q 829 53 943 119 q 565 -14 715 -14 q 367 18 456 -14 l 285 -107 l 129 -10 l 210 113 q 110 265 144 175 q 75 464 75 354 q 137 747 75 625 q 313 936 199 869 q 576 1003 426 1003 q 776 971 685 1003 l 858 1096 l 1013 999 l 932 876 m 335 464 q 354 332 335 390 l 657 792 q 581 803 621 803 q 400 713 465 803 q 335 464 335 622 m 563 186 q 741 276 675 186 q 807 525 807 367 q 788 657 807 599 l 485 197 q 563 186 522 186 z "},"Ǿ":{"ha":1118,"x_min":75,"x_max":1067,"o":"m 932 876 q 1032 724 997 814 q 1067 525 1067 635 q 1005 242 1067 364 q 829 53 943 119 q 565 -14 715 -14 q 367 18 456 -14 l 285 -107 l 129 -10 l 210 113 q 110 265 144 175 q 75 464 75 354 q 137 747 75 625 q 313 936 199 869 q 576 1003 426 1003 q 776 971 685 1003 l 858 1096 l 1013 999 l 932 876 m 335 464 q 354 332 335 390 l 657 792 q 581 803 621 803 q 400 713 465 803 q 335 464 335 622 m 563 186 q 741 276 675 186 q 807 525 807 367 q 788 657 807 599 l 485 197 q 563 186 522 186 m 538 1074 l 696 1293 l 932 1293 l 690 1074 l 538 1074 z "},"Õ":{"ha":1118,"x_min":75,"x_max":1067,"o":"m 565 -14 q 306 44 417 -14 q 135 210 194 101 q 75 464 75 318 q 137 747 75 625 q 313 936 199 869 q 576 1003 426 1003 q 836 945 725 1003 q 1007 779 947 888 q 1067 525 1067 671 q 1005 242 1067 364 q 829 53 943 119 q 565 -14 715 -14 m 563 186 q 741 276 675 186 q 807 525 807 367 q 747 730 807 657 q 581 803 688 803 q 400 713 465 803 q 335 464 335 622 q 394 258 335 331 q 563 186 453 186 m 364 1075 q 421 1244 371 1192 q 544 1297 471 1297 q 592 1288 569 1297 q 643 1260 614 1278 q 688 1235 671 1243 q 721 1228 704 1228 q 782 1293 772 1228 l 885 1293 q 827 1124 878 1176 q 703 1071 776 1071 q 658 1080 678 1071 q 604 1108 638 1089 q 562 1132 579 1124 q 528 1140 544 1140 q 467 1075 476 1140 l 364 1075 z "},"Ṍ":{"ha":1118,"x_min":75,"x_max":1067,"o":"m 565 -14 q 306 44 417 -14 q 135 210 194 101 q 75 464 75 318 q 137 747 75 625 q 313 936 199 869 q 576 1003 426 1003 q 836 945 725 1003 q 1007 779 947 888 q 1067 525 1067 671 q 1005 242 1067 364 q 829 53 943 119 q 565 -14 715 -14 m 563 186 q 741 276 675 186 q 807 525 807 367 q 747 730 807 657 q 581 803 688 803 q 400 713 465 803 q 335 464 335 622 q 394 258 335 331 q 563 186 453 186 m 364 1075 q 421 1244 371 1192 q 544 1297 471 1297 q 592 1288 569 1297 q 643 1260 614 1278 q 688 1235 671 1243 q 721 1228 704 1228 q 782 1293 772 1228 l 885 1293 q 827 1124 878 1176 q 703 1071 776 1071 q 658 1080 678 1071 q 604 1108 638 1089 q 562 1132 579 1124 q 528 1140 544 1140 q 467 1075 476 1140 l 364 1075 m 556 1299 l 714 1518 l 950 1518 l 708 1299 l 556 1299 z "},"Ṏ":{"ha":1118,"x_min":75,"x_max":1067,"o":"m 565 -14 q 306 44 417 -14 q 135 210 194 101 q 75 464 75 318 q 137 747 75 625 q 313 936 199 869 q 576 1003 426 1003 q 836 945 725 1003 q 1007 779 947 888 q 1067 525 1067 671 q 1005 242 1067 364 q 829 53 943 119 q 565 -14 715 -14 m 563 186 q 741 276 675 186 q 807 525 807 367 q 747 730 807 657 q 581 803 688 803 q 400 713 465 803 q 335 464 335 622 q 394 258 335 331 q 563 186 453 186 m 364 1075 q 421 1244 371 1192 q 544 1297 471 1297 q 592 1288 569 1297 q 643 1260 614 1278 q 688 1235 671 1243 q 721 1228 704 1228 q 782 1293 772 1228 l 885 1293 q 827 1124 878 1176 q 703 1071 776 1071 q 658 1080 678 1071 q 604 1108 638 1089 q 562 1132 579 1124 q 528 1140 544 1140 q 467 1075 476 1140 l 364 1075 m 624 1514 l 607 1304 l 382 1304 l 400 1514 l 624 1514 m 903 1514 l 885 1304 l 661 1304 l 679 1514 l 903 1514 z "},"Ȭ":{"ha":1118,"x_min":75,"x_max":1067,"o":"m 565 -14 q 306 44 417 -14 q 135 210 194 101 q 75 464 75 318 q 137 747 75 625 q 313 936 199 869 q 576 1003 426 1003 q 836 945 725 1003 q 1007 779 947 888 q 1067 525 1067 671 q 1005 242 1067 364 q 829 53 943 119 q 565 -14 715 -14 m 563 186 q 741 276 675 186 q 807 525 807 367 q 747 730 807 657 q 581 803 688 803 q 400 713 465 803 q 335 464 335 622 q 394 258 335 331 q 563 186 453 186 m 364 1075 q 421 1244 371 1192 q 544 1297 471 1297 q 592 1288 569 1297 q 643 1260 614 1278 q 688 1235 671 1243 q 721 1228 704 1228 q 782 1293 772 1228 l 885 1293 q 827 1124 878 1176 q 703 1071 776 1071 q 658 1080 678 1071 q 604 1108 638 1089 q 562 1132 579 1124 q 528 1140 544 1140 q 467 1075 476 1140 l 364 1075 m 425 1483 l 874 1483 l 861 1333 l 413 1333 l 425 1483 z "},"Œ":{"ha":1463,"x_min":75,"x_max":1467,"o":"m 1003 789 l 989 603 l 1410 603 l 1394 403 l 972 403 l 957 200 l 1407 200 l 1390 0 l 703 0 l 706 44 q 514 -14 628 -14 q 289 44 389 -14 q 132 211 189 103 q 75 464 75 319 q 137 747 75 625 q 312 936 199 869 q 574 1003 425 1003 q 686 990 631 1003 q 778 953 742 976 l 781 989 l 1467 989 l 1453 789 l 1003 789 m 335 464 q 394 258 335 331 q 563 186 453 186 q 703 222 643 186 l 747 767 q 611 803 692 803 q 405 714 475 803 q 335 464 335 625 z "},"P":{"ha":951,"x_min":63,"x_max":942,"o":"m 603 989 q 785 953 708 989 q 901 854 861 918 q 942 707 942 790 q 847 471 942 556 q 576 386 753 386 l 353 386 l 322 0 l 63 0 l 140 989 l 603 989 m 550 581 q 661 610 624 581 q 699 692 699 639 q 568 792 699 792 l 386 792 l 369 581 l 550 581 z "},"Þ":{"ha":953,"x_min":63,"x_max":928,"o":"m 614 799 q 844 724 760 799 q 928 521 928 650 q 840 288 928 368 q 589 207 753 207 l 335 207 l 318 0 l 63 0 l 140 989 l 397 989 l 382 799 l 614 799 m 567 403 q 686 507 686 403 q 661 577 686 554 q 582 600 636 600 l 367 600 l 350 403 l 567 403 z "},"Q":{"ha":1118,"x_min":75,"x_max":1067,"o":"m 807 42 q 874 -49 835 -7 q 968 -139 914 -92 l 783 -265 q 561 -14 633 -161 q 304 44 414 -14 q 135 210 194 103 q 75 464 75 318 q 137 747 75 625 q 313 936 199 869 q 576 1003 426 1003 q 836 945 725 1003 q 1007 779 947 888 q 1067 525 1067 671 q 999 230 1067 356 q 807 42 931 104 m 335 464 q 394 258 335 331 q 563 186 453 186 q 741 276 675 186 q 807 525 807 367 q 747 730 807 657 q 581 803 688 803 q 400 713 465 803 q 335 464 335 622 z "},"R":{"ha":992,"x_min":64,"x_max":954,"o":"m 724 408 q 786 366 761 396 q 826 285 811 336 l 922 0 l 647 0 l 544 329 q 449 385 528 385 l 350 385 l 321 0 l 64 0 l 140 989 l 624 989 q 867 911 779 989 q 954 704 954 833 q 724 408 954 463 m 572 579 q 675 608 640 579 q 710 690 710 638 q 681 767 710 742 q 588 792 651 792 l 381 792 l 364 579 l 572 579 z "},"Ŕ":{"ha":992,"x_min":64,"x_max":954,"o":"m 724 408 q 786 366 761 396 q 826 285 811 336 l 922 0 l 647 0 l 544 329 q 449 385 528 385 l 350 385 l 321 0 l 64 0 l 140 989 l 624 989 q 867 911 779 989 q 954 704 954 833 q 724 408 954 463 m 572 579 q 675 608 640 579 q 710 690 710 638 q 681 767 710 742 q 588 792 651 792 l 381 792 l 364 579 l 572 579 m 482 1074 l 640 1293 l 876 1293 l 635 1074 l 482 1074 z "},"Ř":{"ha":992,"x_min":64,"x_max":954,"o":"m 724 408 q 786 366 761 396 q 826 285 811 336 l 922 0 l 647 0 l 544 329 q 449 385 528 385 l 350 385 l 321 0 l 64 0 l 140 989 l 624 989 q 867 911 779 989 q 954 704 954 833 q 724 408 954 463 m 572 579 q 675 608 640 579 q 710 690 710 638 q 681 767 710 742 q 588 792 651 792 l 381 792 l 364 579 l 572 579 m 839 1293 l 628 1074 l 489 1074 l 314 1293 l 496 1293 l 574 1183 l 658 1293 l 839 1293 z "},"Ŗ":{"ha":992,"x_min":64,"x_max":954,"o":"m 724 408 q 786 366 761 396 q 826 285 811 336 l 922 0 l 647 0 l 544 329 q 449 385 528 385 l 350 385 l 321 0 l 64 0 l 140 989 l 624 989 q 867 911 779 989 q 954 704 954 833 q 724 408 954 463 m 572 579 q 675 608 640 579 q 710 690 710 638 q 681 767 710 742 q 588 792 651 792 l 381 792 l 364 579 l 572 579 m 589 -89 l 582 -182 q 551 -302 575 -253 q 474 -394 528 -351 l 393 -336 q 446 -267 433 -304 l 335 -267 l 349 -89 l 589 -89 z "},"Ȑ":{"ha":992,"x_min":64,"x_max":954,"o":"m 724 408 q 786 366 761 396 q 826 285 811 336 l 922 0 l 647 0 l 544 329 q 449 385 528 385 l 350 385 l 321 0 l 64 0 l 140 989 l 624 989 q 867 911 779 989 q 954 704 954 833 q 724 408 954 463 m 572 579 q 675 608 640 579 q 710 690 710 638 q 681 767 710 742 q 588 792 651 792 l 381 792 l 364 579 l 572 579 m 275 1293 l 428 1293 l 518 1074 l 397 1074 l 275 1293 m 481 1293 l 632 1293 l 722 1074 l 601 1074 l 481 1293 z "},"Ṛ":{"ha":992,"x_min":64,"x_max":954,"o":"m 724 408 q 786 366 761 396 q 826 285 811 336 l 922 0 l 647 0 l 544 329 q 449 385 528 385 l 350 385 l 321 0 l 64 0 l 140 989 l 624 989 q 867 911 779 989 q 954 704 954 833 q 724 408 954 463 m 572 579 q 675 608 640 579 q 710 690 710 638 q 681 767 710 742 q 588 792 651 792 l 381 792 l 364 579 l 572 579 m 582 -79 l 564 -289 l 342 -289 l 361 -79 l 582 -79 z "},"Ȓ":{"ha":992,"x_min":64,"x_max":954,"o":"m 724 408 q 786 366 761 396 q 826 285 811 336 l 922 0 l 647 0 l 544 329 q 449 385 528 385 l 350 385 l 321 0 l 64 0 l 140 989 l 624 989 q 867 911 779 989 q 954 704 954 833 q 724 408 954 463 m 572 579 q 675 608 640 579 q 710 690 710 638 q 681 767 710 742 q 588 792 651 792 l 381 792 l 364 579 l 572 579 m 563 1283 q 730 1242 660 1283 q 822 1129 800 1200 l 708 1085 q 649 1126 689 1110 q 558 1142 608 1142 q 471 1126 511 1142 q 410 1085 431 1111 l 306 1129 q 400 1240 331 1197 q 563 1283 469 1283 z "},"Ṟ":{"ha":992,"x_min":64,"x_max":954,"o":"m 724 408 q 786 366 761 396 q 826 285 811 336 l 922 0 l 647 0 l 544 329 q 449 385 528 385 l 350 385 l 321 0 l 64 0 l 140 989 l 624 989 q 867 911 779 989 q 954 704 954 833 q 724 408 954 463 m 572 579 q 675 608 640 579 q 710 690 710 638 q 681 767 710 742 q 588 792 651 792 l 381 792 l 364 579 l 572 579 m 244 -114 l 692 -114 l 681 -254 l 233 -254 l 244 -114 z "},"S":{"ha":933,"x_min":32,"x_max":888,"o":"m 442 -12 q 219 16 328 -12 q 32 96 111 44 l 128 281 q 451 188 276 188 q 614 268 614 188 q 569 335 614 311 q 426 389 524 360 q 258 448 325 418 q 144 535 192 478 q 96 686 96 593 q 149 852 96 781 q 298 963 201 924 q 524 1001 394 1001 q 731 972 632 1001 q 888 893 829 943 l 794 708 q 660 777 733 753 q 518 801 586 801 q 397 777 442 801 q 353 710 353 753 q 398 642 353 665 q 542 590 443 618 q 710 532 644 561 q 824 446 776 503 q 872 299 872 389 q 760 69 872 150 q 442 -12 647 -12 z "},"Ś":{"ha":933,"x_min":32,"x_max":888,"o":"m 442 -12 q 219 16 328 -12 q 32 96 111 44 l 128 281 q 451 188 276 188 q 614 268 614 188 q 569 335 614 311 q 426 389 524 360 q 258 448 325 418 q 144 535 192 478 q 96 686 96 593 q 149 852 96 781 q 298 963 201 924 q 524 1001 394 1001 q 731 972 632 1001 q 888 893 829 943 l 794 708 q 660 777 733 753 q 518 801 586 801 q 397 777 442 801 q 353 710 353 753 q 398 642 353 665 q 542 590 443 618 q 710 532 644 561 q 824 446 776 503 q 872 299 872 389 q 760 69 872 150 q 442 -12 647 -12 m 453 1074 l 611 1293 l 847 1293 l 606 1074 l 453 1074 z "},"Ṥ":{"ha":933,"x_min":32,"x_max":893,"o":"m 442 -12 q 219 16 328 -12 q 32 96 111 44 l 128 281 q 451 188 276 188 q 614 268 614 188 q 569 335 614 311 q 426 389 524 360 q 258 448 325 418 q 144 535 192 478 q 96 686 96 593 q 149 852 96 781 q 298 963 201 924 q 524 1001 394 1001 q 731 972 632 1001 q 888 893 829 943 l 794 708 q 660 777 733 753 q 518 801 586 801 q 397 777 442 801 q 353 710 353 753 q 398 642 353 665 q 542 590 443 618 q 710 532 644 561 q 824 446 776 503 q 872 299 872 389 q 760 69 872 150 q 442 -12 647 -12 m 499 1074 l 657 1293 l 893 1293 l 651 1074 l 499 1074 m 503 1292 l 485 1065 l 222 1065 l 239 1292 l 503 1292 z "},"Š":{"ha":933,"x_min":32,"x_max":888,"o":"m 442 -12 q 219 16 328 -12 q 32 96 111 44 l 128 281 q 451 188 276 188 q 614 268 614 188 q 569 335 614 311 q 426 389 524 360 q 258 448 325 418 q 144 535 192 478 q 96 686 96 593 q 149 852 96 781 q 298 963 201 924 q 524 1001 394 1001 q 731 972 632 1001 q 888 893 829 943 l 794 708 q 660 777 733 753 q 518 801 586 801 q 397 777 442 801 q 353 710 353 753 q 398 642 353 665 q 542 590 443 618 q 710 532 644 561 q 824 446 776 503 q 872 299 872 389 q 760 69 872 150 q 442 -12 647 -12 m 810 1293 l 599 1074 l 460 1074 l 285 1293 l 467 1293 l 544 1183 l 629 1293 l 810 1293 z "},"Ṧ":{"ha":933,"x_min":32,"x_max":888,"o":"m 442 -12 q 219 16 328 -12 q 32 96 111 44 l 128 281 q 451 188 276 188 q 614 268 614 188 q 569 335 614 311 q 426 389 524 360 q 258 448 325 418 q 144 535 192 478 q 96 686 96 593 q 149 852 96 781 q 298 963 201 924 q 524 1001 394 1001 q 731 972 632 1001 q 888 893 829 943 l 794 708 q 660 777 733 753 q 518 801 586 801 q 397 777 442 801 q 353 710 353 753 q 398 642 353 665 q 542 590 443 618 q 710 532 644 561 q 824 446 776 503 q 872 299 872 389 q 760 69 872 150 q 442 -12 647 -12 m 810 1293 l 599 1074 l 460 1074 l 285 1293 l 467 1293 l 544 1183 l 629 1293 l 810 1293 m 699 1522 l 681 1296 l 418 1296 l 435 1522 l 699 1522 z "},"Ş":{"ha":933,"x_min":32,"x_max":888,"o":"m 353 710 q 398 642 353 665 q 542 590 443 618 q 710 532 644 561 q 824 446 776 503 q 872 299 872 389 q 771 76 872 157 q 483 -11 669 -4 l 474 -56 l 476 -56 q 562 -81 529 -56 q 594 -151 594 -107 q 543 -242 594 -206 q 400 -278 492 -278 q 322 -272 361 -278 q 254 -254 282 -265 l 276 -164 q 393 -183 343 -183 q 446 -153 446 -183 q 406 -129 446 -129 q 360 -136 390 -129 l 335 -106 l 356 -8 q 179 28 263 1 q 32 96 96 54 l 128 281 q 451 188 276 188 q 614 268 614 188 q 569 335 614 311 q 426 389 524 360 q 258 448 325 418 q 144 535 192 478 q 96 686 96 593 q 149 852 96 781 q 298 963 201 924 q 524 1001 394 1001 q 731 972 632 1001 q 888 893 829 943 l 794 708 q 660 777 733 753 q 518 801 586 801 q 397 777 442 801 q 353 710 353 753 z "},"Ŝ":{"ha":933,"x_min":32,"x_max":888,"o":"m 442 -12 q 219 16 328 -12 q 32 96 111 44 l 128 281 q 451 188 276 188 q 614 268 614 188 q 569 335 614 311 q 426 389 524 360 q 258 448 325 418 q 144 535 192 478 q 96 686 96 593 q 149 852 96 781 q 298 963 201 924 q 524 1001 394 1001 q 731 972 632 1001 q 888 893 829 943 l 794 708 q 660 777 733 753 q 518 801 586 801 q 397 777 442 801 q 353 710 353 753 q 398 642 353 665 q 542 590 443 618 q 710 532 644 561 q 824 446 776 503 q 872 299 872 389 q 760 69 872 150 q 442 -12 647 -12 m 268 1074 l 479 1293 l 615 1293 l 793 1074 l 611 1074 l 544 1182 l 449 1074 l 268 1074 z "},"Ș":{"ha":933,"x_min":32,"x_max":888,"o":"m 442 -12 q 219 16 328 -12 q 32 96 111 44 l 128 281 q 451 188 276 188 q 614 268 614 188 q 569 335 614 311 q 426 389 524 360 q 258 448 325 418 q 144 535 192 478 q 96 686 96 593 q 149 852 96 781 q 298 963 201 924 q 524 1001 394 1001 q 731 972 632 1001 q 888 893 829 943 l 794 708 q 660 777 733 753 q 518 801 586 801 q 397 777 442 801 q 353 710 353 753 q 398 642 353 665 q 542 590 443 618 q 710 532 644 561 q 824 446 776 503 q 872 299 872 389 q 760 69 872 150 q 442 -12 647 -12 m 547 -89 l 540 -182 q 510 -302 533 -253 q 432 -394 486 -351 l 351 -336 q 404 -267 392 -304 l 293 -267 l 307 -89 l 547 -89 z "},"Ṡ":{"ha":933,"x_min":32,"x_max":888,"o":"m 442 -12 q 219 16 328 -12 q 32 96 111 44 l 128 281 q 451 188 276 188 q 614 268 614 188 q 569 335 614 311 q 426 389 524 360 q 258 448 325 418 q 144 535 192 478 q 96 686 96 593 q 149 852 96 781 q 298 963 201 924 q 524 1001 394 1001 q 731 972 632 1001 q 888 893 829 943 l 794 708 q 660 777 733 753 q 518 801 586 801 q 397 777 442 801 q 353 710 353 753 q 398 642 353 665 q 542 590 443 618 q 710 532 644 561 q 824 446 776 503 q 872 299 872 389 q 760 69 872 150 q 442 -12 647 -12 m 681 1297 l 663 1071 l 400 1071 l 417 1297 l 681 1297 z "},"Ṣ":{"ha":933,"x_min":32,"x_max":888,"o":"m 442 -12 q 219 16 328 -12 q 32 96 111 44 l 128 281 q 451 188 276 188 q 614 268 614 188 q 569 335 614 311 q 426 389 524 360 q 258 448 325 418 q 144 535 192 478 q 96 686 96 593 q 149 852 96 781 q 298 963 201 924 q 524 1001 394 1001 q 731 972 632 1001 q 888 893 829 943 l 794 708 q 660 777 733 753 q 518 801 586 801 q 397 777 442 801 q 353 710 353 753 q 398 642 353 665 q 542 590 443 618 q 710 532 644 561 q 824 446 776 503 q 872 299 872 389 q 760 69 872 150 q 442 -12 647 -12 m 540 -79 l 522 -289 l 300 -289 l 319 -79 l 540 -79 z "},"Ṩ":{"ha":933,"x_min":32,"x_max":888,"o":"m 442 -12 q 219 16 328 -12 q 32 96 111 44 l 128 281 q 451 188 276 188 q 614 268 614 188 q 569 335 614 311 q 426 389 524 360 q 258 448 325 418 q 144 535 192 478 q 96 686 96 593 q 149 852 96 781 q 298 963 201 924 q 524 1001 394 1001 q 731 972 632 1001 q 888 893 829 943 l 794 708 q 660 777 733 753 q 518 801 586 801 q 397 777 442 801 q 353 710 353 753 q 398 642 353 665 q 542 590 443 618 q 710 532 644 561 q 824 446 776 503 q 872 299 872 389 q 760 69 872 150 q 442 -12 647 -12 m 540 -79 l 522 -289 l 300 -289 l 319 -79 l 540 -79 m 681 1297 l 663 1071 l 400 1071 l 417 1297 l 681 1297 z "},"ẞ":{"ha":1008,"x_min":63,"x_max":967,"o":"m 778 515 q 916 434 865 494 q 967 282 967 374 q 924 135 967 201 q 803 30 881 68 q 628 -8 726 -8 q 491 9 551 -8 q 364 68 431 26 l 444 249 q 539 199 492 217 q 625 182 586 182 q 719 288 719 182 q 685 375 719 350 q 561 400 650 400 l 436 400 l 451 600 l 574 600 q 651 626 625 600 q 678 700 678 651 q 642 772 678 746 q 547 799 607 799 q 421 758 467 799 q 368 642 375 718 l 318 0 l 63 0 l 113 629 q 244 901 128 804 q 561 999 361 999 q 754 964 672 999 q 879 868 836 929 q 922 726 922 807 q 886 598 922 651 q 778 515 850 544 z "},"Ə":{"ha":1092,"x_min":76,"x_max":1039,"o":"m 554 1001 q 810 943 700 1001 q 979 777 919 885 q 1039 525 1039 669 q 977 242 1039 364 q 803 53 915 119 q 547 -12 692 -12 q 199 108 322 -12 q 76 453 76 228 q 79 519 76 475 l 85 597 l 776 597 q 695 746 758 694 q 532 797 632 797 q 389 777 449 797 q 251 708 329 757 l 183 893 q 350 972 253 943 q 554 1001 447 1001 m 542 186 q 688 243 629 186 q 769 401 747 300 l 326 401 q 385 242 326 296 q 542 186 443 188 z "},"T":{"ha":886,"x_min":50,"x_max":919,"o":"m 347 778 l 50 778 l 67 989 l 919 989 l 904 778 l 608 778 l 549 0 l 286 0 l 347 778 z "},"Ŧ":{"ha":886,"x_min":50,"x_max":919,"o":"m 608 778 l 594 596 l 781 596 l 765 401 l 579 401 l 549 0 l 286 0 l 318 401 l 131 401 l 147 596 l 333 596 l 347 778 l 50 778 l 67 989 l 919 989 l 904 778 l 608 778 z "},"Ť":{"ha":886,"x_min":50,"x_max":919,"o":"m 347 778 l 50 778 l 67 989 l 919 989 l 904 778 l 608 778 l 549 0 l 286 0 l 347 778 m 779 1293 l 568 1074 l 429 1074 l 254 1293 l 436 1293 l 514 1183 l 599 1293 l 779 1293 z "},"Ţ":{"ha":886,"x_min":50,"x_max":919,"o":"m 919 989 l 904 778 l 608 778 l 549 0 l 468 0 l 456 -56 l 458 -56 q 544 -81 511 -56 q 576 -151 576 -107 q 525 -242 576 -206 q 382 -278 474 -278 q 303 -272 343 -278 q 236 -254 264 -265 l 258 -164 q 375 -183 325 -183 q 428 -153 428 -183 q 388 -129 428 -129 q 342 -136 374 -129 l 317 -106 l 340 0 l 286 0 l 347 778 l 50 778 l 67 989 l 919 989 z "},"Ț":{"ha":886,"x_min":50,"x_max":919,"o":"m 347 778 l 50 778 l 67 989 l 919 989 l 904 778 l 608 778 l 549 0 l 286 0 l 347 778 m 529 -89 l 522 -182 q 492 -302 515 -253 q 414 -394 468 -351 l 333 -336 q 386 -267 374 -304 l 275 -267 l 289 -89 l 529 -89 z "},"Ṭ":{"ha":886,"x_min":50,"x_max":919,"o":"m 347 778 l 50 778 l 67 989 l 919 989 l 904 778 l 608 778 l 549 0 l 286 0 l 347 778 m 522 -79 l 504 -289 l 282 -289 l 301 -79 l 522 -79 z "},"Ṯ":{"ha":886,"x_min":50,"x_max":919,"o":"m 347 778 l 50 778 l 67 989 l 919 989 l 904 778 l 608 778 l 549 0 l 286 0 l 347 778 m 185 -114 l 632 -114 l 621 -254 l 174 -254 l 185 -114 z "},"U":{"ha":1044,"x_min":88,"x_max":1011,"o":"m 519 -12 q 88 375 88 -12 q 90 433 88 394 l 135 989 l 390 989 l 346 425 q 344 382 344 410 q 391 235 344 283 q 533 186 438 186 q 654 233 610 186 q 708 393 699 281 l 757 989 l 1011 989 l 967 410 q 838 94 951 200 q 519 -12 725 -12 z "},"Ú":{"ha":1044,"x_min":88,"x_max":1011,"o":"m 519 -12 q 88 375 88 -12 q 90 433 88 394 l 135 989 l 390 989 l 346 425 q 344 382 344 410 q 391 235 344 283 q 533 186 438 186 q 654 233 610 186 q 708 393 699 281 l 757 989 l 1011 989 l 967 410 q 838 94 951 200 q 519 -12 725 -12 m 503 1074 l 661 1293 l 897 1293 l 656 1074 l 503 1074 z "},"Ŭ":{"ha":1044,"x_min":88,"x_max":1011,"o":"m 519 -12 q 88 375 88 -12 q 90 433 88 394 l 135 989 l 390 989 l 346 425 q 344 382 344 410 q 391 235 344 283 q 533 186 438 186 q 654 233 610 186 q 708 393 699 281 l 757 989 l 1011 989 l 967 410 q 838 94 951 200 q 519 -12 725 -12 m 594 1085 q 427 1127 497 1085 q 335 1239 357 1169 l 449 1285 q 508 1244 468 1260 q 599 1228 549 1228 q 685 1243 644 1228 q 747 1285 726 1258 l 851 1239 q 757 1128 826 1171 q 594 1085 688 1085 z "},"Û":{"ha":1044,"x_min":88,"x_max":1011,"o":"m 519 -12 q 88 375 88 -12 q 90 433 88 394 l 135 989 l 390 989 l 346 425 q 344 382 344 410 q 391 235 344 283 q 533 186 438 186 q 654 233 610 186 q 708 393 699 281 l 757 989 l 1011 989 l 967 410 q 838 94 951 200 q 519 -12 725 -12 m 318 1074 l 529 1293 l 665 1293 l 843 1074 l 661 1074 l 594 1182 l 499 1074 l 318 1074 z "},"Ȕ":{"ha":1044,"x_min":88,"x_max":1011,"o":"m 519 -12 q 88 375 88 -12 q 90 433 88 394 l 135 989 l 390 989 l 346 425 q 344 382 344 410 q 391 235 344 283 q 533 186 438 186 q 654 233 610 186 q 708 393 699 281 l 757 989 l 1011 989 l 967 410 q 838 94 951 200 q 519 -12 725 -12 m 296 1293 l 449 1293 l 539 1074 l 418 1074 l 296 1293 m 501 1293 l 653 1293 l 743 1074 l 622 1074 l 501 1293 z "},"Ü":{"ha":1044,"x_min":88,"x_max":1011,"o":"m 519 -12 q 88 375 88 -12 q 90 433 88 394 l 135 989 l 390 989 l 346 425 q 344 382 344 410 q 391 235 344 283 q 533 186 438 186 q 654 233 610 186 q 708 393 699 281 l 757 989 l 1011 989 l 967 410 q 838 94 951 200 q 519 -12 725 -12 m 571 1289 l 554 1079 l 329 1079 l 347 1289 l 571 1289 m 850 1289 l 832 1079 l 608 1079 l 626 1289 l 850 1289 z "},"Ụ":{"ha":1044,"x_min":88,"x_max":1011,"o":"m 519 -12 q 88 375 88 -12 q 90 433 88 394 l 135 989 l 390 989 l 346 425 q 344 382 344 410 q 391 235 344 283 q 533 186 438 186 q 654 233 610 186 q 708 393 699 281 l 757 989 l 1011 989 l 967 410 q 838 94 951 200 q 519 -12 725 -12 m 603 -79 l 585 -289 l 363 -289 l 382 -79 l 603 -79 z "},"Ù":{"ha":1044,"x_min":88,"x_max":1011,"o":"m 519 -12 q 88 375 88 -12 q 90 433 88 394 l 135 989 l 390 989 l 346 425 q 344 382 344 410 q 391 235 344 283 q 533 186 438 186 q 654 233 610 186 q 708 393 699 281 l 757 989 l 1011 989 l 967 410 q 838 94 951 200 q 519 -12 725 -12 m 310 1293 l 521 1293 l 656 1074 l 503 1074 l 310 1293 z "},"Ủ":{"ha":1044,"x_min":88,"x_max":1011,"o":"m 519 -12 q 88 375 88 -12 q 90 433 88 394 l 135 989 l 390 989 l 346 425 q 344 382 344 410 q 391 235 344 283 q 533 186 438 186 q 654 233 610 186 q 708 393 699 281 l 757 989 l 1011 989 l 967 410 q 838 94 951 200 q 519 -12 725 -12 m 638 1074 l 522 1074 l 526 1106 q 544 1143 528 1131 q 588 1168 560 1156 q 615 1181 607 1176 q 622 1194 622 1186 q 588 1210 622 1210 q 501 1196 551 1210 l 478 1276 q 617 1299 542 1299 q 727 1274 686 1299 q 768 1215 768 1250 q 749 1169 768 1186 q 693 1138 729 1153 q 653 1116 667 1125 q 639 1093 640 1107 l 638 1074 z "},"Ư":{"ha":1044,"x_min":88,"x_max":1181,"o":"m 1181 1157 l 1175 1097 q 1125 956 1169 1014 q 1004 879 1081 897 l 967 410 q 838 94 950 200 q 519 -12 725 -12 q 88 375 88 -12 q 90 433 88 394 l 135 989 l 390 989 l 346 425 q 344 382 344 410 q 391 235 344 283 q 533 186 438 186 q 654 233 610 186 q 708 393 699 281 l 757 989 l 831 989 q 928 1019 900 989 q 963 1126 957 1049 l 965 1157 l 1181 1157 z "},"Ứ":{"ha":1044,"x_min":88,"x_max":1181,"o":"m 1181 1157 l 1175 1097 q 1125 956 1169 1014 q 1004 879 1081 897 l 967 410 q 838 94 950 200 q 519 -12 725 -12 q 88 375 88 -12 q 90 433 88 394 l 135 989 l 390 989 l 346 425 q 344 382 344 410 q 391 235 344 283 q 533 186 438 186 q 654 233 610 186 q 708 393 699 281 l 757 989 l 831 989 q 928 1019 900 989 q 963 1126 957 1049 l 965 1157 l 1181 1157 m 503 1074 l 661 1293 l 897 1293 l 656 1074 l 503 1074 z "},"Ự":{"ha":1044,"x_min":88,"x_max":1181,"o":"m 1181 1157 l 1175 1097 q 1125 956 1169 1014 q 1004 879 1081 897 l 967 410 q 838 94 950 200 q 519 -12 725 -12 q 88 375 88 -12 q 90 433 88 394 l 135 989 l 390 989 l 346 425 q 344 382 344 410 q 391 235 344 283 q 533 186 438 186 q 654 233 610 186 q 708 393 699 281 l 757 989 l 831 989 q 928 1019 900 989 q 963 1126 957 1049 l 965 1157 l 1181 1157 m 603 -79 l 585 -289 l 363 -289 l 382 -79 l 603 -79 z "},"Ừ":{"ha":1044,"x_min":88,"x_max":1181,"o":"m 1181 1157 l 1175 1097 q 1125 956 1169 1014 q 1004 879 1081 897 l 967 410 q 838 94 950 200 q 519 -12 725 -12 q 88 375 88 -12 q 90 433 88 394 l 135 989 l 390 989 l 346 425 q 344 382 344 410 q 391 235 344 283 q 533 186 438 186 q 654 233 610 186 q 708 393 699 281 l 757 989 l 831 989 q 928 1019 900 989 q 963 1126 957 1049 l 965 1157 l 1181 1157 m 310 1293 l 521 1293 l 656 1074 l 503 1074 l 310 1293 z "},"Ử":{"ha":1044,"x_min":88,"x_max":1181,"o":"m 1181 1157 l 1175 1097 q 1125 956 1169 1014 q 1004 879 1081 897 l 967 410 q 838 94 950 200 q 519 -12 725 -12 q 88 375 88 -12 q 90 433 88 394 l 135 989 l 390 989 l 346 425 q 344 382 344 410 q 391 235 344 283 q 533 186 438 186 q 654 233 610 186 q 708 393 699 281 l 757 989 l 831 989 q 928 1019 900 989 q 963 1126 957 1049 l 965 1157 l 1181 1157 m 638 1074 l 522 1074 l 526 1106 q 544 1143 528 1131 q 588 1168 560 1156 q 615 1181 607 1176 q 622 1194 622 1186 q 588 1210 622 1210 q 501 1196 551 1210 l 478 1276 q 617 1299 542 1299 q 727 1274 686 1299 q 768 1215 768 1250 q 749 1169 768 1186 q 693 1138 729 1153 q 653 1116 667 1125 q 639 1093 640 1107 l 638 1074 z "},"Ữ":{"ha":1044,"x_min":88,"x_max":1181,"o":"m 1181 1157 l 1175 1097 q 1125 956 1169 1014 q 1004 879 1081 897 l 967 410 q 838 94 950 200 q 519 -12 725 -12 q 88 375 88 -12 q 90 433 88 394 l 135 989 l 390 989 l 346 425 q 344 382 344 410 q 391 235 344 283 q 533 186 438 186 q 654 233 610 186 q 708 393 699 281 l 757 989 l 831 989 q 928 1019 900 989 q 963 1126 957 1049 l 965 1157 l 1181 1157 m 329 1075 q 386 1244 336 1192 q 510 1297 436 1297 q 557 1288 535 1297 q 608 1260 579 1278 q 653 1235 636 1243 q 686 1228 669 1228 q 747 1293 738 1228 l 850 1293 q 792 1124 843 1176 q 668 1071 742 1071 q 623 1080 643 1071 q 569 1108 603 1089 q 527 1132 544 1124 q 493 1140 510 1140 q 432 1075 442 1140 l 329 1075 z "},"Ű":{"ha":1044,"x_min":88,"x_max":1011,"o":"m 519 -12 q 88 375 88 -12 q 90 433 88 394 l 135 989 l 390 989 l 346 425 q 344 382 344 410 q 391 235 344 283 q 533 186 438 186 q 654 233 610 186 q 708 393 699 281 l 757 989 l 1011 989 l 967 410 q 838 94 951 200 q 519 -12 725 -12 m 535 1293 l 700 1293 l 539 1074 l 418 1074 l 535 1293 m 740 1293 l 904 1293 l 743 1074 l 622 1074 l 740 1293 z "},"Ȗ":{"ha":1044,"x_min":88,"x_max":1011,"o":"m 519 -12 q 88 375 88 -12 q 90 433 88 394 l 135 989 l 390 989 l 346 425 q 344 382 344 410 q 391 235 344 283 q 533 186 438 186 q 654 233 610 186 q 708 393 699 281 l 757 989 l 1011 989 l 967 410 q 838 94 951 200 q 519 -12 725 -12 m 583 1283 q 751 1242 681 1283 q 843 1129 821 1200 l 729 1085 q 669 1126 710 1110 q 579 1142 629 1142 q 492 1126 532 1142 q 431 1085 451 1111 l 326 1129 q 421 1240 351 1197 q 583 1283 490 1283 z "},"Ū":{"ha":1044,"x_min":88,"x_max":1011,"o":"m 519 -12 q 88 375 88 -12 q 90 433 88 394 l 135 989 l 390 989 l 346 425 q 344 382 344 410 q 391 235 344 283 q 533 186 438 186 q 654 233 610 186 q 708 393 699 281 l 757 989 l 1011 989 l 967 410 q 838 94 951 200 q 519 -12 725 -12 m 372 1258 l 821 1258 l 808 1108 l 360 1108 l 372 1258 z "},"Ṻ":{"ha":1044,"x_min":88,"x_max":1011,"o":"m 519 -12 q 88 375 88 -12 q 90 433 88 394 l 135 989 l 390 989 l 346 425 q 344 382 344 410 q 391 235 344 283 q 533 186 438 186 q 654 233 610 186 q 708 393 699 281 l 757 989 l 1011 989 l 967 410 q 838 94 951 200 q 519 -12 725 -12 m 372 1258 l 821 1258 l 808 1108 l 360 1108 l 372 1258 m 589 1514 l 572 1304 l 347 1304 l 365 1514 l 589 1514 m 868 1514 l 850 1304 l 626 1304 l 644 1514 l 868 1514 z "},"Ų":{"ha":1044,"x_min":88,"x_max":1011,"o":"m 1011 989 l 967 410 q 878 138 954 242 q 657 -1 803 35 q 597 -32 619 -10 q 574 -89 574 -54 q 594 -137 574 -119 q 647 -154 614 -154 q 724 -139 675 -154 l 739 -251 q 600 -278 669 -278 q 467 -236 517 -278 q 417 -126 417 -194 q 465 -11 417 -54 q 183 97 278 0 q 88 376 88 193 q 90 433 88 394 l 135 989 l 390 989 l 346 425 q 344 382 344 410 q 391 235 344 283 q 533 186 438 186 q 654 233 610 186 q 708 393 699 281 l 757 989 l 1011 989 z "},"Ů":{"ha":1044,"x_min":88,"x_max":1011,"o":"m 519 -12 q 88 375 88 -12 q 90 433 88 394 l 135 989 l 390 989 l 346 425 q 344 382 344 410 q 391 235 344 283 q 533 186 438 186 q 654 233 610 186 q 708 393 699 281 l 757 989 l 1011 989 l 967 410 q 838 94 951 200 q 519 -12 725 -12 m 592 1067 q 479 1111 525 1067 q 433 1222 433 1156 q 480 1332 433 1286 q 592 1378 526 1378 q 704 1333 658 1378 q 750 1222 750 1288 q 704 1111 750 1156 q 592 1067 658 1067 m 592 1160 q 633 1178 617 1160 q 650 1222 650 1196 q 633 1265 650 1247 q 592 1282 617 1282 q 551 1265 567 1282 q 535 1222 535 1247 q 551 1178 535 1196 q 592 1160 567 1160 z "},"Ũ":{"ha":1044,"x_min":88,"x_max":1011,"o":"m 519 -12 q 88 375 88 -12 q 90 433 88 394 l 135 989 l 390 989 l 346 425 q 344 382 344 410 q 391 235 344 283 q 533 186 438 186 q 654 233 610 186 q 708 393 699 281 l 757 989 l 1011 989 l 967 410 q 838 94 951 200 q 519 -12 725 -12 m 329 1075 q 386 1244 336 1192 q 510 1297 436 1297 q 557 1288 535 1297 q 608 1260 579 1278 q 653 1235 636 1243 q 686 1228 669 1228 q 747 1293 738 1228 l 850 1293 q 792 1124 843 1176 q 668 1071 742 1071 q 623 1080 643 1071 q 569 1108 603 1089 q 527 1132 544 1124 q 493 1140 510 1140 q 432 1075 442 1140 l 329 1075 z "},"Ṹ":{"ha":1044,"x_min":88,"x_max":1011,"o":"m 519 -12 q 88 375 88 -12 q 90 433 88 394 l 135 989 l 390 989 l 346 425 q 344 382 344 410 q 391 235 344 283 q 533 186 438 186 q 654 233 610 186 q 708 393 699 281 l 757 989 l 1011 989 l 967 410 q 838 94 951 200 q 519 -12 725 -12 m 329 1075 q 386 1244 336 1192 q 510 1297 436 1297 q 557 1288 535 1297 q 608 1260 579 1278 q 653 1235 636 1243 q 686 1228 669 1228 q 747 1293 738 1228 l 850 1293 q 792 1124 843 1176 q 668 1071 742 1071 q 623 1080 643 1071 q 569 1108 603 1089 q 527 1132 544 1124 q 493 1140 510 1140 q 432 1075 442 1140 l 329 1075 m 521 1299 l 679 1518 l 915 1518 l 674 1299 l 521 1299 z "},"V":{"ha":1043,"x_min":18,"x_max":1126,"o":"m 1126 989 l 599 0 l 392 0 l 18 989 l 289 989 l 524 324 l 861 989 l 1126 989 z "},"W":{"ha":1572,"x_min":68,"x_max":1606,"o":"m 1606 989 l 1175 0 l 968 0 l 806 590 l 550 0 l 342 0 l 68 989 l 329 989 l 486 368 l 753 989 l 933 989 l 1093 354 l 1358 989 l 1606 989 z "},"Ẃ":{"ha":1572,"x_min":68,"x_max":1606,"o":"m 1606 989 l 1175 0 l 968 0 l 806 590 l 550 0 l 342 0 l 68 989 l 329 989 l 486 368 l 753 989 l 933 989 l 1093 354 l 1358 989 l 1606 989 m 767 1074 l 925 1293 l 1161 1293 l 919 1074 l 767 1074 z "},"Ŵ":{"ha":1572,"x_min":68,"x_max":1606,"o":"m 1606 989 l 1175 0 l 968 0 l 806 590 l 550 0 l 342 0 l 68 989 l 329 989 l 486 368 l 753 989 l 933 989 l 1093 354 l 1358 989 l 1606 989 m 582 1074 l 793 1293 l 929 1293 l 1107 1074 l 925 1074 l 858 1182 l 763 1074 l 582 1074 z "},"Ẅ":{"ha":1572,"x_min":68,"x_max":1606,"o":"m 1606 989 l 1175 0 l 968 0 l 806 590 l 550 0 l 342 0 l 68 989 l 329 989 l 486 368 l 753 989 l 933 989 l 1093 354 l 1358 989 l 1606 989 m 835 1289 l 818 1079 l 593 1079 l 611 1289 l 835 1289 m 1114 1289 l 1096 1079 l 872 1079 l 890 1289 l 1114 1289 z "},"Ẁ":{"ha":1572,"x_min":68,"x_max":1606,"o":"m 1606 989 l 1175 0 l 968 0 l 806 590 l 550 0 l 342 0 l 68 989 l 329 989 l 486 368 l 753 989 l 933 989 l 1093 354 l 1358 989 l 1606 989 m 574 1293 l 785 1293 l 919 1074 l 767 1074 l 574 1293 z "},"X":{"ha":964,"x_min":-71,"x_max":1050,"o":"m 638 497 l 979 0 l 682 0 l 479 303 l 236 0 l -71 0 l 349 503 l 13 989 l 311 989 l 507 694 l 743 989 l 1050 989 l 638 497 z "},"Y":{"ha":913,"x_min":-39,"x_max":1056,"o":"m 590 378 l 561 0 l 300 0 l 329 382 l -39 989 l 251 989 l 472 585 l 756 989 l 1056 989 l 590 378 z "},"Ý":{"ha":913,"x_min":-39,"x_max":1056,"o":"m 590 378 l 561 0 l 300 0 l 329 382 l -39 989 l 251 989 l 472 585 l 756 989 l 1056 989 l 590 378 m 436 1074 l 594 1293 l 831 1293 l 589 1074 l 436 1074 z "},"Ŷ":{"ha":913,"x_min":-39,"x_max":1056,"o":"m 590 378 l 561 0 l 300 0 l 329 382 l -39 989 l 251 989 l 472 585 l 756 989 l 1056 989 l 590 378 m 251 1074 l 463 1293 l 599 1293 l 776 1074 l 594 1074 l 528 1182 l 432 1074 l 251 1074 z "},"Ÿ":{"ha":913,"x_min":-39,"x_max":1056,"o":"m 590 378 l 561 0 l 300 0 l 329 382 l -39 989 l 251 989 l 472 585 l 756 989 l 1056 989 l 590 378 m 504 1289 l 488 1079 l 263 1079 l 281 1289 l 504 1289 m 783 1289 l 765 1079 l 542 1079 l 560 1289 l 783 1289 z "},"Ẏ":{"ha":913,"x_min":-39,"x_max":1056,"o":"m 590 378 l 561 0 l 300 0 l 329 382 l -39 989 l 251 989 l 472 585 l 756 989 l 1056 989 l 590 378 m 664 1297 l 646 1071 l 383 1071 l 400 1297 l 664 1297 z "},"Ỵ":{"ha":913,"x_min":-39,"x_max":1056,"o":"m 590 378 l 561 0 l 300 0 l 329 382 l -39 989 l 251 989 l 472 585 l 756 989 l 1056 989 l 590 378 m 536 -79 l 518 -289 l 296 -289 l 315 -79 l 536 -79 z "},"Ỳ":{"ha":913,"x_min":-39,"x_max":1056,"o":"m 590 378 l 561 0 l 300 0 l 329 382 l -39 989 l 251 989 l 472 585 l 756 989 l 1056 989 l 590 378 m 243 1293 l 454 1293 l 589 1074 l 436 1074 l 243 1293 z "},"Ỷ":{"ha":913,"x_min":-39,"x_max":1056,"o":"m 590 378 l 561 0 l 300 0 l 329 382 l -39 989 l 251 989 l 472 585 l 756 989 l 1056 989 l 590 378 m 571 1074 l 456 1074 l 460 1106 q 477 1143 461 1131 q 521 1168 493 1156 q 548 1181 540 1176 q 556 1194 556 1186 q 521 1210 556 1210 q 435 1196 485 1210 l 411 1276 q 550 1299 475 1299 q 660 1274 619 1299 q 701 1215 701 1250 q 682 1169 701 1186 q 626 1138 663 1153 q 587 1116 600 1125 q 572 1093 574 1107 l 571 1074 z "},"Ȳ":{"ha":913,"x_min":-39,"x_max":1056,"o":"m 590 378 l 561 0 l 300 0 l 329 382 l -39 989 l 251 989 l 472 585 l 756 989 l 1056 989 l 590 378 m 306 1258 l 754 1258 l 742 1108 l 293 1108 l 306 1258 z "},"Ỹ":{"ha":913,"x_min":-39,"x_max":1056,"o":"m 590 378 l 561 0 l 300 0 l 329 382 l -39 989 l 251 989 l 472 585 l 756 989 l 1056 989 l 590 378 m 263 1075 q 319 1244 269 1192 q 443 1297 369 1297 q 490 1288 468 1297 q 542 1260 513 1278 q 586 1235 569 1243 q 619 1228 603 1228 q 681 1293 671 1228 l 783 1293 q 726 1124 776 1176 q 601 1071 675 1071 q 556 1080 576 1071 q 503 1108 536 1089 q 460 1132 478 1124 q 426 1140 443 1140 q 365 1075 375 1140 l 263 1075 z "},"Z":{"ha":867,"x_min":46,"x_max":853,"o":"m 839 801 l 358 204 l 808 204 l 792 0 l 46 0 l 60 190 l 539 785 l 107 785 l 122 989 l 853 989 l 839 801 z "},"Ź":{"ha":867,"x_min":46,"x_max":853,"o":"m 839 801 l 358 204 l 808 204 l 792 0 l 46 0 l 60 190 l 539 785 l 107 785 l 122 989 l 853 989 l 839 801 m 415 1074 l 574 1293 l 810 1293 l 568 1074 l 415 1074 z "},"Ž":{"ha":867,"x_min":46,"x_max":853,"o":"m 839 801 l 358 204 l 808 204 l 792 0 l 46 0 l 60 190 l 539 785 l 107 785 l 122 989 l 853 989 l 839 801 m 772 1293 l 561 1074 l 422 1074 l 247 1293 l 429 1293 l 507 1183 l 592 1293 l 772 1293 z "},"Ż":{"ha":867,"x_min":46,"x_max":853,"o":"m 839 801 l 358 204 l 808 204 l 792 0 l 46 0 l 60 190 l 539 785 l 107 785 l 122 989 l 853 989 l 839 801 m 643 1297 l 625 1071 l 363 1071 l 379 1297 l 643 1297 z "},"Ẓ":{"ha":867,"x_min":46,"x_max":853,"o":"m 839 801 l 358 204 l 808 204 l 792 0 l 46 0 l 60 190 l 539 785 l 107 785 l 122 989 l 853 989 l 839 801 m 506 -79 l 488 -289 l 265 -289 l 285 -79 l 506 -79 z "},"a":{"ha":893,"x_min":43,"x_max":846,"o":"m 846 706 l 790 0 l 542 0 l 549 79 q 463 13 515 36 q 344 -11 410 -11 q 188 30 256 -11 q 81 147 119 71 q 43 328 43 224 q 86 533 43 443 q 206 674 129 624 q 382 725 283 725 q 592 626 519 725 l 599 706 l 846 706 m 432 175 q 533 226 496 175 q 571 361 571 278 q 536 492 571 449 q 436 536 501 536 q 331 485 369 536 q 292 344 292 433 q 328 219 292 263 q 432 175 365 175 z "},"á":{"ha":893,"x_min":43,"x_max":846,"o":"m 846 706 l 790 0 l 542 0 l 549 79 q 463 13 515 36 q 344 -11 410 -11 q 188 30 256 -11 q 81 147 119 71 q 43 328 43 224 q 86 533 43 443 q 206 674 129 624 q 382 725 283 725 q 592 626 519 725 l 599 706 l 846 706 m 432 175 q 533 226 496 175 q 571 361 571 278 q 536 492 571 449 q 436 536 501 536 q 331 485 369 536 q 292 344 292 433 q 328 219 292 263 q 432 175 365 175 m 406 796 l 558 1085 l 810 1085 l 558 796 l 406 796 z "},"ă":{"ha":893,"x_min":43,"x_max":846,"o":"m 846 706 l 790 0 l 542 0 l 549 79 q 463 13 515 36 q 344 -11 410 -11 q 188 30 256 -11 q 81 147 119 71 q 43 328 43 224 q 86 533 43 443 q 206 674 129 624 q 382 725 283 725 q 592 626 519 725 l 599 706 l 846 706 m 432 175 q 533 226 496 175 q 571 361 571 278 q 536 492 571 449 q 436 536 501 536 q 331 485 369 536 q 292 344 292 433 q 328 219 292 263 q 432 175 365 175 m 493 824 q 324 879 397 824 q 228 1036 251 935 l 340 1083 q 410 1002 368 1028 q 504 976 453 976 q 667 1083 599 976 l 774 1036 q 668 878 746 933 q 493 824 590 824 z "},"ắ":{"ha":893,"x_min":43,"x_max":846,"o":"m 846 706 l 790 0 l 542 0 l 549 79 q 463 13 515 36 q 344 -11 410 -11 q 188 30 256 -11 q 81 147 119 71 q 43 328 43 224 q 86 533 43 443 q 206 674 129 624 q 382 725 283 725 q 592 626 519 725 l 599 706 l 846 706 m 432 175 q 533 226 496 175 q 571 361 571 278 q 536 492 571 449 q 436 536 501 536 q 331 485 369 536 q 292 344 292 433 q 328 219 292 263 q 432 175 365 175 m 421 949 l 571 1144 l 792 1144 l 564 949 l 421 949 m 493 789 q 326 829 396 789 q 235 943 257 869 l 319 976 q 392 926 342 944 q 501 908 443 908 q 599 927 547 908 q 674 976 651 946 l 753 943 q 649 830 719 871 q 493 789 579 789 z "},"ặ":{"ha":893,"x_min":43,"x_max":846,"o":"m 846 706 l 790 0 l 542 0 l 549 79 q 463 13 515 36 q 344 -11 410 -11 q 188 30 256 -11 q 81 147 119 71 q 43 328 43 224 q 86 533 43 443 q 206 674 129 624 q 382 725 283 725 q 592 626 519 725 l 599 706 l 846 706 m 432 175 q 533 226 496 175 q 571 361 571 278 q 536 492 571 449 q 436 536 501 536 q 331 485 369 536 q 292 344 292 433 q 328 219 292 263 q 432 175 365 175 m 525 -79 l 507 -289 l 285 -289 l 304 -79 l 525 -79 m 493 824 q 324 879 397 824 q 228 1036 251 935 l 340 1083 q 410 1002 368 1028 q 504 976 453 976 q 667 1083 599 976 l 774 1036 q 668 878 746 933 q 493 824 590 824 z "},"ằ":{"ha":893,"x_min":43,"x_max":846,"o":"m 846 706 l 790 0 l 542 0 l 549 79 q 463 13 515 36 q 344 -11 410 -11 q 188 30 256 -11 q 81 147 119 71 q 43 328 43 224 q 86 533 43 443 q 206 674 129 624 q 382 725 283 725 q 592 626 519 725 l 599 706 l 846 706 m 432 175 q 533 226 496 175 q 571 361 571 278 q 536 492 571 449 q 436 536 501 536 q 331 485 369 536 q 292 344 292 433 q 328 219 292 263 q 432 175 365 175 m 238 1144 l 432 1144 l 564 949 l 421 949 l 238 1144 m 493 789 q 326 829 396 789 q 235 943 257 869 l 319 976 q 392 926 342 944 q 501 908 443 908 q 599 927 547 908 q 674 976 651 946 l 753 943 q 649 830 719 871 q 493 789 579 789 z "},"ẳ":{"ha":893,"x_min":43,"x_max":846,"o":"m 846 706 l 790 0 l 542 0 l 549 79 q 463 13 515 36 q 344 -11 410 -11 q 188 30 256 -11 q 81 147 119 71 q 43 328 43 224 q 86 533 43 443 q 206 674 129 624 q 382 725 283 725 q 592 626 519 725 l 599 706 l 846 706 m 432 175 q 533 226 496 175 q 571 361 571 278 q 536 492 571 449 q 436 536 501 536 q 331 485 369 536 q 292 344 292 433 q 328 219 292 263 q 432 175 365 175 m 438 979 q 460 1020 440 1006 q 507 1045 481 1035 q 533 1060 533 1056 q 510 1068 533 1068 q 411 1054 476 1068 l 389 1132 q 533 1154 458 1154 q 640 1133 601 1154 q 679 1076 679 1111 q 660 1032 679 1047 q 606 1003 642 1017 q 567 983 579 992 q 553 961 554 975 l 551 950 l 433 950 l 438 979 m 493 789 q 326 829 396 789 q 235 943 257 869 l 319 976 q 392 926 342 944 q 501 908 443 908 q 599 927 547 908 q 674 976 651 946 l 753 943 q 649 830 719 871 q 493 789 579 789 z "},"ẵ":{"ha":893,"x_min":43,"x_max":846,"o":"m 846 706 l 790 0 l 542 0 l 549 79 q 463 13 515 36 q 344 -11 410 -11 q 188 30 256 -11 q 81 147 119 71 q 43 328 43 224 q 86 533 43 443 q 206 674 129 624 q 382 725 283 725 q 592 626 519 725 l 599 706 l 846 706 m 432 175 q 533 226 496 175 q 571 361 571 278 q 536 492 571 449 q 436 536 501 536 q 331 485 369 536 q 292 344 292 433 q 328 219 292 263 q 432 175 365 175 m 594 999 q 485 1018 551 999 q 451 1026 478 1019 q 399 1033 424 1033 q 365 1028 378 1033 q 347 1003 351 1022 l 246 1003 q 299 1109 249 1068 q 413 1150 350 1150 q 525 1131 458 1150 q 559 1122 531 1129 q 614 1115 588 1115 q 643 1121 632 1115 q 658 1146 654 1126 l 760 1146 q 735 1069 760 1103 q 672 1017 710 1036 q 594 999 635 999 m 493 789 q 326 829 396 789 q 235 943 257 869 l 319 976 q 392 926 342 944 q 501 908 443 908 q 599 927 547 908 q 674 976 651 946 l 753 943 q 649 830 719 871 q 493 789 579 789 z "},"ǎ":{"ha":893,"x_min":43,"x_max":846,"o":"m 846 706 l 790 0 l 542 0 l 549 79 q 463 13 515 36 q 344 -11 410 -11 q 188 30 256 -11 q 81 147 119 71 q 43 328 43 224 q 86 533 43 443 q 206 674 129 624 q 382 725 283 725 q 592 626 519 725 l 599 706 l 846 706 m 432 175 q 533 226 496 175 q 571 361 571 278 q 536 492 571 449 q 436 536 501 536 q 331 485 369 536 q 292 344 292 433 q 328 219 292 263 q 432 175 365 175 m 767 1085 l 554 796 l 408 796 l 242 1085 l 425 1085 l 493 936 l 572 1085 l 767 1085 z "},"â":{"ha":893,"x_min":43,"x_max":846,"o":"m 846 706 l 790 0 l 542 0 l 549 79 q 463 13 515 36 q 344 -11 410 -11 q 188 30 256 -11 q 81 147 119 71 q 43 328 43 224 q 86 533 43 443 q 206 674 129 624 q 382 725 283 725 q 592 626 519 725 l 599 706 l 846 706 m 432 175 q 533 226 496 175 q 571 361 571 278 q 536 492 571 449 q 436 536 501 536 q 331 485 369 536 q 292 344 292 433 q 328 219 292 263 q 432 175 365 175 m 219 796 l 431 1085 l 576 1085 l 744 796 l 560 796 l 493 943 l 413 796 l 219 796 z "},"ấ":{"ha":893,"x_min":43,"x_max":940,"o":"m 846 706 l 790 0 l 542 0 l 549 79 q 463 13 515 36 q 344 -11 410 -11 q 188 30 256 -11 q 81 147 119 71 q 43 328 43 224 q 86 533 43 443 q 206 674 129 624 q 382 725 283 725 q 592 626 519 725 l 599 706 l 846 706 m 432 175 q 533 226 496 175 q 571 361 571 278 q 536 492 571 449 q 436 536 501 536 q 331 485 369 536 q 292 344 292 433 q 328 219 292 263 q 432 175 365 175 m 631 949 l 729 1144 l 940 1144 l 749 949 l 631 949 m 219 796 l 426 985 l 565 985 l 744 796 l 567 796 l 493 878 l 399 796 l 219 796 z "},"ậ":{"ha":893,"x_min":43,"x_max":846,"o":"m 846 706 l 790 0 l 542 0 l 549 79 q 463 13 515 36 q 344 -11 410 -11 q 188 30 256 -11 q 81 147 119 71 q 43 328 43 224 q 86 533 43 443 q 206 674 129 624 q 382 725 283 725 q 592 626 519 725 l 599 706 l 846 706 m 432 175 q 533 226 496 175 q 571 361 571 278 q 536 492 571 449 q 436 536 501 536 q 331 485 369 536 q 292 344 292 433 q 328 219 292 263 q 432 175 365 175 m 525 -79 l 507 -289 l 285 -289 l 304 -79 l 525 -79 m 219 796 l 431 1085 l 576 1085 l 744 796 l 560 796 l 493 943 l 413 796 l 219 796 z "},"ầ":{"ha":893,"x_min":43,"x_max":846,"o":"m 846 706 l 790 0 l 542 0 l 549 79 q 463 13 515 36 q 344 -11 410 -11 q 188 30 256 -11 q 81 147 119 71 q 43 328 43 224 q 86 533 43 443 q 206 674 129 624 q 382 725 283 725 q 592 626 519 725 l 599 706 l 846 706 m 432 175 q 533 226 496 175 q 571 361 571 278 q 536 492 571 449 q 436 536 501 536 q 331 485 369 536 q 292 344 292 433 q 328 219 292 263 q 432 175 365 175 m 533 1144 l 719 1144 l 807 949 l 689 949 l 533 1144 m 426 985 l 565 985 l 744 796 l 567 796 l 493 878 l 399 796 l 219 796 l 426 985 z "},"ẩ":{"ha":893,"x_min":43,"x_max":874,"o":"m 846 706 l 790 0 l 542 0 l 549 79 q 463 13 515 36 q 344 -11 410 -11 q 188 30 256 -11 q 81 147 119 71 q 43 328 43 224 q 86 533 43 443 q 206 674 129 624 q 382 725 283 725 q 592 626 519 725 l 599 706 l 846 706 m 432 175 q 533 226 496 175 q 571 361 571 278 q 536 492 571 449 q 436 536 501 536 q 331 485 369 536 q 292 344 292 433 q 328 219 292 263 q 432 175 365 175 m 633 979 q 656 1020 636 1006 q 702 1045 676 1035 q 728 1060 728 1056 q 704 1068 728 1068 q 608 1054 668 1068 l 583 1132 q 728 1154 656 1154 q 835 1133 796 1154 q 874 1076 874 1111 q 855 1033 874 1047 q 801 1003 836 1018 q 763 983 775 992 q 749 961 750 975 l 747 950 l 629 950 l 633 979 m 426 985 l 565 985 l 744 796 l 567 796 l 493 878 l 399 796 l 219 796 l 426 985 z "},"ẫ":{"ha":893,"x_min":43,"x_max":846,"o":"m 846 706 l 790 0 l 542 0 l 549 79 q 463 13 515 36 q 344 -11 410 -11 q 188 30 256 -11 q 81 147 119 71 q 43 328 43 224 q 86 533 43 443 q 206 674 129 624 q 382 725 283 725 q 592 626 519 725 l 599 706 l 846 706 m 432 175 q 533 226 496 175 q 571 361 571 278 q 536 492 571 449 q 436 536 501 536 q 331 485 369 536 q 292 344 292 433 q 328 219 292 263 q 432 175 365 175 m 247 1011 q 301 1120 250 1079 q 414 1161 351 1161 q 466 1156 442 1161 q 526 1140 490 1151 q 615 1122 581 1122 q 645 1128 635 1122 q 660 1156 656 1135 l 761 1156 q 736 1077 761 1111 q 674 1024 711 1043 q 596 1006 636 1006 q 546 1010 568 1006 q 486 1026 524 1015 q 401 1044 432 1044 q 366 1038 379 1044 q 349 1011 353 1032 l 247 1011 m 426 985 l 565 985 l 744 796 l 567 796 l 493 878 l 399 796 l 219 796 l 426 985 z "},"ȁ":{"ha":893,"x_min":43,"x_max":846,"o":"m 846 706 l 790 0 l 542 0 l 549 79 q 463 13 515 36 q 344 -11 410 -11 q 188 30 256 -11 q 81 147 119 71 q 43 328 43 224 q 86 533 43 443 q 206 674 129 624 q 382 725 283 725 q 592 626 519 725 l 599 706 l 846 706 m 432 175 q 533 226 496 175 q 571 361 571 278 q 536 492 571 449 q 436 536 501 536 q 331 485 369 536 q 292 344 292 433 q 328 219 292 263 q 432 175 365 175 m 244 1085 l 410 1085 l 431 796 l 328 796 l 244 1085 m 450 1085 l 615 1085 l 636 796 l 532 796 l 450 1085 z "},"ä":{"ha":893,"x_min":43,"x_max":846,"o":"m 846 706 l 790 0 l 542 0 l 549 79 q 463 13 515 36 q 344 -11 410 -11 q 188 30 256 -11 q 81 147 119 71 q 43 328 43 224 q 86 533 43 443 q 206 674 129 624 q 382 725 283 725 q 592 626 519 725 l 599 706 l 846 706 m 432 175 q 533 226 496 175 q 571 361 571 278 q 536 492 571 449 q 436 536 501 536 q 331 485 369 536 q 292 344 292 433 q 328 219 292 263 q 432 175 365 175 m 474 1043 l 457 832 l 232 832 l 250 1043 l 474 1043 m 753 1043 l 733 832 l 511 832 l 529 1043 l 753 1043 z "},"ȧ":{"ha":893,"x_min":43,"x_max":846,"o":"m 846 706 l 790 0 l 542 0 l 549 79 q 463 13 515 36 q 344 -11 410 -11 q 188 30 256 -11 q 81 147 119 71 q 43 328 43 224 q 86 533 43 443 q 206 674 129 624 q 382 725 283 725 q 592 626 519 725 l 599 706 l 846 706 m 432 175 q 533 226 496 175 q 571 361 571 278 q 536 492 571 449 q 436 536 501 536 q 331 485 369 536 q 292 344 292 433 q 328 219 292 263 q 432 175 365 175 m 633 1051 l 615 825 l 353 825 l 369 1051 l 633 1051 z "},"ạ":{"ha":893,"x_min":43,"x_max":846,"o":"m 846 706 l 790 0 l 542 0 l 549 79 q 463 13 515 36 q 344 -11 410 -11 q 188 30 256 -11 q 81 147 119 71 q 43 328 43 224 q 86 533 43 443 q 206 674 129 624 q 382 725 283 725 q 592 626 519 725 l 599 706 l 846 706 m 432 175 q 533 226 496 175 q 571 361 571 278 q 536 492 571 449 q 436 536 501 536 q 331 485 369 536 q 292 344 292 433 q 328 219 292 263 q 432 175 365 175 m 525 -79 l 507 -289 l 285 -289 l 304 -79 l 525 -79 z "},"à":{"ha":893,"x_min":43,"x_max":846,"o":"m 846 706 l 790 0 l 542 0 l 549 79 q 463 13 515 36 q 344 -11 410 -11 q 188 30 256 -11 q 81 147 119 71 q 43 328 43 224 q 86 533 43 443 q 206 674 129 624 q 382 725 283 725 q 592 626 519 725 l 599 706 l 846 706 m 432 175 q 533 226 496 175 q 571 361 571 278 q 536 492 571 449 q 436 536 501 536 q 331 485 369 536 q 292 344 292 433 q 328 219 292 263 q 432 175 365 175 m 213 1085 l 438 1085 l 558 796 l 406 796 l 213 1085 z "},"ả":{"ha":893,"x_min":43,"x_max":846,"o":"m 846 706 l 790 0 l 542 0 l 549 79 q 463 13 515 36 q 344 -11 410 -11 q 188 30 256 -11 q 81 147 119 71 q 43 328 43 224 q 86 533 43 443 q 206 674 129 624 q 382 725 283 725 q 592 626 519 725 l 599 706 l 846 706 m 432 175 q 533 226 496 175 q 571 361 571 278 q 536 492 571 449 q 436 536 501 536 q 331 485 369 536 q 292 344 292 433 q 328 219 292 263 q 432 175 365 175 m 543 796 l 424 796 l 426 831 q 443 878 428 860 q 483 915 458 897 q 508 938 500 929 q 515 957 515 947 q 476 985 515 985 q 410 974 440 985 l 385 1065 q 519 1088 450 1088 q 633 1058 593 1088 q 672 986 672 1029 q 653 927 672 949 q 594 879 633 906 q 558 853 571 865 q 544 828 546 842 l 543 796 z "},"ȃ":{"ha":893,"x_min":43,"x_max":846,"o":"m 846 706 l 790 0 l 542 0 l 549 79 q 463 13 515 36 q 344 -11 410 -11 q 188 30 256 -11 q 81 147 119 71 q 43 328 43 224 q 86 533 43 443 q 206 674 129 624 q 382 725 283 725 q 592 626 519 725 l 599 706 l 846 706 m 432 175 q 533 226 496 175 q 571 361 571 278 q 536 492 571 449 q 436 536 501 536 q 331 485 369 536 q 292 344 292 433 q 328 219 292 263 q 432 175 365 175 m 493 1075 q 661 1019 589 1075 q 758 861 733 964 l 646 817 q 576 897 619 871 q 482 924 532 924 q 319 817 390 924 l 214 863 q 318 1019 240 964 q 493 1075 396 1075 z "},"ā":{"ha":893,"x_min":43,"x_max":846,"o":"m 846 706 l 790 0 l 542 0 l 549 79 q 463 13 515 36 q 344 -11 410 -11 q 188 30 256 -11 q 81 147 119 71 q 43 328 43 224 q 86 533 43 443 q 206 674 129 624 q 382 725 283 725 q 592 626 519 725 l 599 706 l 846 706 m 432 175 q 533 226 496 175 q 571 361 571 278 q 536 492 571 449 q 436 536 501 536 q 331 485 369 536 q 292 344 292 433 q 328 219 292 263 q 432 175 365 175 m 275 1013 l 722 1013 l 710 863 l 263 863 l 275 1013 z "},"ą":{"ha":893,"x_min":42,"x_max":844,"o":"m 724 -160 q 806 -143 758 -160 l 822 -257 q 679 -286 742 -286 q 545 -242 599 -286 q 492 -129 492 -197 q 554 0 492 -56 l 540 0 l 547 79 q 460 13 513 36 q 342 -11 407 -11 q 185 30 253 -11 q 79 147 117 71 q 42 328 42 224 q 84 533 42 443 q 203 674 126 624 q 379 725 281 725 q 590 626 518 725 l 596 706 l 844 706 l 789 0 l 760 0 q 681 -26 710 0 q 651 -92 651 -53 q 672 -141 651 -122 q 724 -160 692 -160 m 431 206 q 515 249 483 206 q 546 360 546 292 q 517 469 546 432 q 435 506 488 506 q 347 463 379 506 q 314 349 314 421 q 344 242 314 279 q 431 206 374 206 z "},"å":{"ha":893,"x_min":43,"x_max":846,"o":"m 846 706 l 790 0 l 542 0 l 549 79 q 463 13 515 36 q 344 -11 410 -11 q 188 30 256 -11 q 81 147 119 71 q 43 328 43 224 q 86 533 43 443 q 206 674 129 624 q 382 725 283 725 q 592 626 519 725 l 599 706 l 846 706 m 432 175 q 533 226 496 175 q 571 361 571 278 q 536 492 571 449 q 436 536 501 536 q 331 485 369 536 q 292 344 292 433 q 328 219 292 263 q 432 175 365 175 m 493 786 q 381 831 426 786 q 335 942 335 875 q 381 1051 335 1006 q 493 1097 428 1097 q 605 1051 558 1097 q 651 942 651 1006 q 606 831 651 875 q 493 786 560 786 m 493 879 q 535 897 518 879 q 551 942 551 915 q 535 984 551 967 q 493 1001 518 1001 q 451 984 468 1001 q 435 942 435 967 q 451 897 435 915 q 493 879 468 879 z "},"ǻ":{"ha":893,"x_min":42,"x_max":883,"o":"m 476 788 q 372 828 414 788 q 331 929 331 868 q 354 1016 331 976 q 418 1079 378 1056 q 506 1103 458 1103 q 561 1093 538 1103 l 660 1226 l 883 1217 l 646 1008 q 654 958 654 986 q 629 872 654 911 q 563 810 604 833 q 476 788 522 788 m 433 947 q 444 901 431 921 q 485 882 458 882 q 531 903 511 882 q 551 953 551 925 q 536 992 551 976 q 496 1008 521 1008 q 453 991 471 1008 q 433 947 436 974 m 596 706 l 844 706 l 789 0 l 540 0 l 546 79 q 459 13 511 36 q 342 -11 407 -11 q 185 30 253 -11 q 79 147 117 71 q 42 328 42 224 q 84 533 42 443 q 203 674 126 624 q 379 725 281 725 q 590 626 518 725 l 596 706 m 431 175 q 531 226 493 175 q 569 361 569 278 q 535 492 569 449 q 435 536 500 536 q 329 485 368 536 q 290 344 290 433 q 326 219 290 263 q 431 175 363 175 z "},"ã":{"ha":893,"x_min":43,"x_max":846,"o":"m 846 706 l 790 0 l 542 0 l 549 79 q 463 13 515 36 q 344 -11 410 -11 q 188 30 256 -11 q 81 147 119 71 q 43 328 43 224 q 86 533 43 443 q 206 674 129 624 q 382 725 283 725 q 592 626 519 725 l 599 706 l 846 706 m 432 175 q 533 226 496 175 q 571 361 571 278 q 536 492 571 449 q 436 536 501 536 q 331 485 369 536 q 292 344 292 433 q 328 219 292 263 q 432 175 365 175 m 232 832 q 288 1001 239 947 q 403 1054 338 1054 q 458 1044 433 1054 q 517 1014 482 1033 q 590 985 564 985 q 651 1050 640 985 l 754 1050 q 697 881 746 935 q 582 828 649 828 q 528 838 553 828 q 471 868 503 849 q 428 890 444 883 q 396 897 413 897 q 356 883 371 897 q 335 832 340 868 l 232 832 z "},"æ":{"ha":1194,"x_min":35,"x_max":1150,"o":"m 853 725 q 1006 686 939 725 q 1112 574 1074 647 q 1150 399 1150 500 q 1146 328 1150 365 l 715 328 q 874 174 724 174 q 1068 239 975 174 l 1118 74 q 1001 11 1072 33 q 854 -11 931 -11 q 685 23 758 -11 q 568 121 613 57 q 457 23 526 57 q 304 -11 388 -11 q 108 49 181 -11 q 35 208 35 110 q 75 345 35 293 q 200 421 115 397 q 424 444 285 444 l 483 444 q 459 516 486 494 q 372 538 432 538 q 261 519 322 538 q 149 468 200 500 l 96 636 q 248 700 157 675 q 425 725 339 725 q 638 647 568 725 q 853 725 728 725 m 849 553 q 769 527 800 553 q 725 444 738 501 l 943 444 q 913 526 938 499 q 849 553 888 553 m 354 158 q 436 194 403 158 q 474 289 469 231 l 476 331 l 426 331 q 313 310 349 331 q 276 238 276 290 q 297 178 276 199 q 354 158 318 158 z "},"ǽ":{"ha":1194,"x_min":35,"x_max":1150,"o":"m 853 725 q 1006 686 939 725 q 1112 574 1074 647 q 1150 399 1150 500 q 1146 328 1150 365 l 715 328 q 874 174 724 174 q 1068 239 975 174 l 1118 74 q 1001 11 1072 33 q 854 -11 931 -11 q 685 23 758 -11 q 568 121 613 57 q 457 23 526 57 q 304 -11 388 -11 q 108 49 181 -11 q 35 208 35 110 q 75 345 35 293 q 200 421 115 397 q 424 444 285 444 l 483 444 q 459 516 486 494 q 372 538 432 538 q 261 519 322 538 q 149 468 200 500 l 96 636 q 248 700 157 675 q 425 725 339 725 q 638 647 568 725 q 853 725 728 725 m 849 553 q 769 527 800 553 q 725 444 738 501 l 943 444 q 913 526 938 499 q 849 553 888 553 m 354 158 q 436 194 403 158 q 474 289 469 231 l 476 331 l 426 331 q 313 310 349 331 q 276 238 276 290 q 297 178 276 199 q 354 158 318 158 m 556 796 l 708 1085 l 960 1085 l 708 796 l 556 796 z "},"b":{"ha":896,"x_min":49,"x_max":856,"o":"m 556 725 q 713 684 644 725 q 818 566 781 643 q 856 385 856 489 q 813 179 856 269 q 692 39 769 89 q 515 -11 615 -11 q 304 88 381 -11 l 297 0 l 49 0 l 129 1022 l 381 1022 l 350 632 q 438 700 385 675 q 556 725 490 725 m 460 175 q 567 226 529 175 q 606 365 606 276 q 570 492 606 449 q 467 536 535 536 q 363 485 401 536 q 325 349 325 433 q 360 219 325 263 q 460 175 394 175 z "},"c":{"ha":715,"x_min":43,"x_max":732,"o":"m 429 -11 q 224 32 311 -11 q 90 153 136 75 q 43 335 43 232 q 93 544 43 456 q 235 678 143 632 q 449 725 326 725 q 732 640 619 725 l 653 467 q 560 517 610 499 q 465 535 511 535 q 344 484 388 535 q 301 342 301 433 q 340 220 301 261 q 446 179 379 179 q 636 244 547 179 l 688 74 q 570 11 639 33 q 429 -11 501 -11 z "},"ć":{"ha":715,"x_min":43,"x_max":790,"o":"m 429 -11 q 224 32 311 -11 q 90 153 136 75 q 43 335 43 232 q 93 544 43 456 q 235 678 143 632 q 449 725 326 725 q 732 640 619 725 l 653 467 q 560 517 610 499 q 465 535 511 535 q 344 484 388 535 q 301 342 301 433 q 340 220 301 261 q 446 179 379 179 q 636 244 547 179 l 688 74 q 570 11 639 33 q 429 -11 501 -11 m 386 796 l 539 1085 l 790 1085 l 539 796 l 386 796 z "},"č":{"ha":715,"x_min":43,"x_max":747,"o":"m 429 -11 q 224 32 311 -11 q 90 153 136 75 q 43 335 43 232 q 93 544 43 456 q 235 678 143 632 q 449 725 326 725 q 732 640 619 725 l 653 467 q 560 517 610 499 q 465 535 511 535 q 344 484 388 535 q 301 342 301 433 q 340 220 301 261 q 446 179 379 179 q 636 244 547 179 l 688 74 q 570 11 639 33 q 429 -11 501 -11 m 747 1085 l 535 796 l 389 796 l 222 1085 l 406 1085 l 474 936 l 553 1085 l 747 1085 z "},"ç":{"ha":715,"x_min":43,"x_max":732,"o":"m 688 74 q 572 12 639 33 q 435 -11 506 -10 l 425 -56 l 428 -56 q 513 -81 481 -56 q 546 -151 546 -107 q 494 -242 546 -206 q 351 -278 443 -278 q 273 -272 313 -278 q 206 -254 233 -265 l 228 -164 q 344 -183 294 -183 q 397 -153 397 -183 q 357 -129 397 -129 q 311 -136 342 -129 l 286 -106 l 310 1 q 113 119 183 32 q 43 335 43 207 q 93 544 43 456 q 235 678 143 632 q 449 725 326 725 q 732 640 619 725 l 653 467 q 560 517 610 499 q 465 535 511 535 q 344 484 388 535 q 301 342 301 433 q 340 220 301 261 q 446 179 379 179 q 636 244 547 179 l 688 74 z "},"ḉ":{"ha":715,"x_min":43,"x_max":790,"o":"m 539 796 l 386 796 l 539 1085 l 790 1085 l 539 796 m 465 535 q 344 484 388 535 q 301 342 301 433 q 340 220 301 261 q 446 179 379 179 q 636 244 547 179 l 688 74 q 572 12 639 33 q 435 -11 506 -10 l 425 -56 l 428 -56 q 513 -81 481 -56 q 546 -151 546 -107 q 494 -242 546 -206 q 351 -278 443 -278 q 273 -272 313 -278 q 206 -254 233 -265 l 228 -164 q 344 -183 294 -183 q 397 -153 397 -183 q 357 -129 397 -129 q 311 -136 342 -129 l 286 -106 l 310 1 q 113 119 183 32 q 43 335 43 207 q 93 544 43 456 q 235 678 143 632 q 449 725 326 725 q 732 640 619 725 l 653 467 q 560 517 610 499 q 465 535 511 535 z "},"ĉ":{"ha":715,"x_min":43,"x_max":732,"o":"m 429 -11 q 224 32 311 -11 q 90 153 136 75 q 43 335 43 232 q 93 544 43 456 q 235 678 143 632 q 449 725 326 725 q 732 640 619 725 l 653 467 q 560 517 610 499 q 465 535 511 535 q 344 484 388 535 q 301 342 301 433 q 340 220 301 261 q 446 179 379 179 q 636 244 547 179 l 688 74 q 570 11 639 33 q 429 -11 501 -11 m 200 796 l 411 1085 l 557 1085 l 725 796 l 540 796 l 474 943 l 393 796 l 200 796 z "},"ċ":{"ha":715,"x_min":43,"x_max":732,"o":"m 429 -11 q 224 32 311 -11 q 90 153 136 75 q 43 335 43 232 q 93 544 43 456 q 235 678 143 632 q 449 725 326 725 q 732 640 619 725 l 653 467 q 560 517 610 499 q 465 535 511 535 q 344 484 388 535 q 301 342 301 433 q 340 220 301 261 q 446 179 379 179 q 636 244 547 179 l 688 74 q 570 11 639 33 q 429 -11 501 -11 m 614 1051 l 596 825 l 333 825 l 350 1051 l 614 1051 z "},"d":{"ha":893,"x_min":43,"x_max":874,"o":"m 874 1022 l 792 0 l 543 0 l 549 79 q 462 13 514 36 q 344 -11 410 -11 q 188 30 256 -11 q 81 147 119 71 q 43 328 43 224 q 86 533 43 443 q 206 674 129 624 q 382 725 283 725 q 589 631 514 725 l 619 1022 l 874 1022 m 432 175 q 534 226 496 175 q 572 361 572 278 q 538 492 572 449 q 438 536 503 536 q 331 485 369 536 q 292 346 292 433 q 328 219 292 263 q 432 175 365 175 z "},"ð":{"ha":871,"x_min":40,"x_max":856,"o":"m 743 786 q 835 454 835 639 q 724 102 835 215 q 426 -11 613 -11 q 221 28 308 -11 q 87 139 133 67 q 40 308 40 211 q 89 491 40 413 q 221 611 138 569 q 406 653 304 653 q 592 596 528 653 q 521 732 571 674 l 261 668 l 239 792 l 393 829 q 249 869 325 864 l 314 1040 q 654 893 518 1018 l 835 938 l 856 814 l 743 786 m 421 176 q 531 222 497 176 q 565 338 565 268 q 532 434 565 399 q 433 469 499 469 q 324 424 358 469 q 289 314 289 379 q 323 216 289 256 q 421 176 357 176 z "},"ď":{"ha":893,"x_min":43,"x_max":1025,"o":"m 619 1022 l 874 1022 l 792 0 l 543 0 l 549 79 q 462 13 514 36 q 344 -11 410 -11 q 188 30 256 -11 q 81 147 119 71 q 43 328 43 224 q 86 533 43 443 q 206 674 129 624 q 382 725 283 725 q 589 631 514 725 l 619 1022 m 1025 1022 l 967 743 l 885 743 l 906 1022 l 1025 1022 m 432 175 q 534 226 496 175 q 572 361 572 278 q 538 492 572 449 q 438 536 503 536 q 331 485 369 536 q 292 346 292 433 q 328 219 292 263 q 432 175 365 175 z "},"đ":{"ha":893,"x_min":44,"x_max":986,"o":"m 974 764 l 854 764 l 794 0 l 546 0 l 551 81 q 465 13 518 36 q 346 -11 413 -11 q 189 31 257 -11 q 83 153 121 74 q 44 344 44 233 q 88 535 44 449 q 208 674 131 622 q 383 725 285 725 q 590 631 515 725 l 601 764 l 339 764 l 351 936 l 614 936 l 621 1022 l 875 1022 l 868 936 l 986 936 l 974 764 m 433 175 q 538 227 503 175 q 574 381 574 279 q 435 536 574 536 q 333 485 372 536 q 293 344 293 433 q 330 217 293 258 q 433 175 367 175 z "},"ḍ":{"ha":893,"x_min":43,"x_max":874,"o":"m 874 1022 l 792 0 l 543 0 l 549 79 q 462 13 514 36 q 344 -11 410 -11 q 188 30 256 -11 q 81 147 119 71 q 43 328 43 224 q 86 533 43 443 q 206 674 129 624 q 382 725 283 725 q 589 631 514 725 l 619 1022 l 874 1022 m 432 175 q 534 226 496 175 q 572 361 572 278 q 538 492 572 449 q 438 536 503 536 q 331 485 369 536 q 292 346 292 433 q 328 219 292 263 q 432 175 365 175 m 526 -79 l 508 -289 l 286 -289 l 306 -79 l 526 -79 z "},"ḏ":{"ha":893,"x_min":43,"x_max":874,"o":"m 874 1022 l 792 0 l 543 0 l 549 79 q 462 13 514 36 q 344 -11 410 -11 q 188 30 256 -11 q 81 147 119 71 q 43 328 43 224 q 86 533 43 443 q 206 674 129 624 q 382 725 283 725 q 589 631 514 725 l 619 1022 l 874 1022 m 432 175 q 534 226 496 175 q 572 361 572 278 q 538 492 572 449 q 438 536 503 536 q 331 485 369 536 q 292 346 292 433 q 328 219 292 263 q 432 175 365 175 m 189 -114 l 636 -114 l 625 -254 l 178 -254 l 189 -114 z "},"ǆ":{"ha":1636,"x_min":43,"x_max":1607,"o":"m 874 1022 l 792 0 l 543 0 l 549 79 q 462 13 514 36 q 344 -11 410 -11 q 188 30 256 -11 q 81 147 119 71 q 43 328 43 224 q 86 533 43 443 q 206 674 129 624 q 382 725 283 725 q 589 631 514 725 l 619 1022 l 874 1022 m 432 175 q 534 226 496 175 q 572 361 572 278 q 538 492 572 449 q 438 536 503 536 q 331 485 369 536 q 292 346 292 433 q 328 219 292 263 q 432 175 365 175 m 1593 539 l 1244 186 l 1581 186 l 1565 0 l 931 0 l 946 176 l 1286 519 l 974 519 l 988 706 l 1607 706 l 1593 539 m 1597 1085 l 1385 796 l 1239 796 l 1072 1085 l 1256 1085 l 1324 936 l 1403 1085 l 1597 1085 z "},"e":{"ha":768,"x_min":43,"x_max":724,"o":"m 404 725 q 638 639 551 725 q 724 399 724 553 q 719 328 724 365 l 282 328 q 326 211 286 249 q 443 174 367 174 q 642 239 549 174 l 692 74 q 574 11 644 33 q 425 -11 504 -11 q 224 32 311 -11 q 90 153 138 75 q 43 338 43 232 q 91 538 43 449 q 222 676 139 626 q 404 725 304 725 m 414 553 q 335 527 367 553 q 292 444 304 501 l 518 444 q 489 525 517 497 q 414 553 461 553 z "},"é":{"ha":768,"x_min":43,"x_max":760,"o":"m 404 725 q 638 639 551 725 q 724 399 724 553 q 719 328 724 365 l 282 328 q 326 211 286 249 q 443 174 367 174 q 642 239 549 174 l 692 74 q 574 11 644 33 q 425 -11 504 -11 q 224 32 311 -11 q 90 153 138 75 q 43 338 43 232 q 91 538 43 449 q 222 676 139 626 q 404 725 304 725 m 414 553 q 335 527 367 553 q 292 444 304 501 l 518 444 q 489 525 517 497 q 414 553 461 553 m 356 796 l 508 1085 l 760 1085 l 508 796 l 356 796 z "},"ĕ":{"ha":768,"x_min":43,"x_max":724,"o":"m 404 725 q 638 639 551 725 q 724 399 724 553 q 719 328 724 365 l 282 328 q 326 211 286 249 q 443 174 367 174 q 642 239 549 174 l 692 74 q 574 11 644 33 q 425 -11 504 -11 q 224 32 311 -11 q 90 153 138 75 q 43 338 43 232 q 91 538 43 449 q 222 676 139 626 q 404 725 304 725 m 414 553 q 335 527 367 553 q 292 444 304 501 l 518 444 q 489 525 517 497 q 414 553 461 553 m 443 824 q 274 879 347 824 q 178 1036 201 935 l 290 1083 q 360 1002 318 1028 q 454 976 403 976 q 617 1083 549 976 l 724 1036 q 618 878 696 933 q 443 824 540 824 z "},"ě":{"ha":768,"x_min":43,"x_max":724,"o":"m 404 725 q 638 639 551 725 q 724 399 724 553 q 719 328 724 365 l 282 328 q 326 211 286 249 q 443 174 367 174 q 642 239 549 174 l 692 74 q 574 11 644 33 q 425 -11 504 -11 q 224 32 311 -11 q 90 153 138 75 q 43 338 43 232 q 91 538 43 449 q 222 676 139 626 q 404 725 304 725 m 414 553 q 335 527 367 553 q 292 444 304 501 l 518 444 q 489 525 517 497 q 414 553 461 553 m 717 1085 l 504 796 l 358 796 l 192 1085 l 375 1085 l 443 936 l 522 1085 l 717 1085 z "},"ḝ":{"ha":768,"x_min":43,"x_max":724,"o":"m 443 824 q 274 879 347 824 q 178 1036 201 935 l 290 1083 q 360 1002 318 1028 q 454 976 403 976 q 617 1083 549 976 l 724 1036 q 618 878 696 933 q 443 824 540 824 m 404 725 q 638 639 551 725 q 724 399 724 553 q 719 328 724 365 l 282 328 q 326 211 286 249 q 443 174 367 174 q 642 239 549 174 l 692 74 q 585 15 649 36 q 450 -11 522 -7 l 440 -56 l 443 -56 q 528 -81 496 -56 q 561 -151 561 -107 q 510 -242 561 -206 q 367 -278 458 -278 q 288 -272 328 -278 q 221 -254 249 -265 l 243 -164 q 360 -183 310 -183 q 413 -153 413 -183 q 372 -129 413 -129 q 326 -136 358 -129 l 301 -106 l 324 -1 q 118 115 193 25 q 43 338 43 204 q 91 538 43 449 q 222 676 139 626 q 404 725 304 725 m 414 553 q 335 527 367 553 q 292 444 304 501 l 518 444 q 489 525 517 497 q 414 553 461 553 z "},"ê":{"ha":768,"x_min":43,"x_max":724,"o":"m 404 725 q 638 639 551 725 q 724 399 724 553 q 719 328 724 365 l 282 328 q 326 211 286 249 q 443 174 367 174 q 642 239 549 174 l 692 74 q 574 11 644 33 q 425 -11 504 -11 q 224 32 311 -11 q 90 153 138 75 q 43 338 43 232 q 91 538 43 449 q 222 676 139 626 q 404 725 304 725 m 414 553 q 335 527 367 553 q 292 444 304 501 l 518 444 q 489 525 517 497 q 414 553 461 553 m 169 796 l 381 1085 l 526 1085 l 694 796 l 510 796 l 443 943 l 363 796 l 169 796 z "},"ế":{"ha":768,"x_min":43,"x_max":890,"o":"m 404 725 q 638 639 551 725 q 724 399 724 553 q 719 328 724 365 l 282 328 q 326 211 286 249 q 443 174 367 174 q 642 239 549 174 l 692 74 q 574 11 644 33 q 425 -11 504 -11 q 224 32 311 -11 q 90 153 138 75 q 43 338 43 232 q 91 538 43 449 q 222 676 139 626 q 404 725 304 725 m 414 553 q 335 527 367 553 q 292 444 304 501 l 518 444 q 489 525 517 497 q 414 553 461 553 m 581 949 l 679 1144 l 890 1144 l 699 949 l 581 949 m 169 796 l 376 985 l 515 985 l 694 796 l 517 796 l 443 878 l 349 796 l 169 796 z "},"ệ":{"ha":768,"x_min":43,"x_max":724,"o":"m 404 725 q 638 639 551 725 q 724 399 724 553 q 719 328 724 365 l 282 328 q 326 211 286 249 q 443 174 367 174 q 642 239 549 174 l 692 74 q 574 11 644 33 q 425 -11 504 -11 q 224 32 311 -11 q 90 153 138 75 q 43 338 43 232 q 91 538 43 449 q 222 676 139 626 q 404 725 304 725 m 414 553 q 335 527 367 553 q 292 444 304 501 l 518 444 q 489 525 517 497 q 414 553 461 553 m 507 -79 l 489 -289 l 267 -289 l 286 -79 l 507 -79 m 169 796 l 381 1085 l 526 1085 l 694 796 l 510 796 l 443 943 l 363 796 l 169 796 z "},"ề":{"ha":768,"x_min":43,"x_max":757,"o":"m 404 725 q 638 639 551 725 q 724 399 724 553 q 719 328 724 365 l 282 328 q 326 211 286 249 q 443 174 367 174 q 642 239 549 174 l 692 74 q 574 11 644 33 q 425 -11 504 -11 q 224 32 311 -11 q 90 153 138 75 q 43 338 43 232 q 91 538 43 449 q 222 676 139 626 q 404 725 304 725 m 414 553 q 335 527 367 553 q 292 444 304 501 l 518 444 q 489 525 517 497 q 414 553 461 553 m 483 1144 l 669 1144 l 757 949 l 639 949 l 483 1144 m 376 985 l 515 985 l 694 796 l 517 796 l 443 878 l 349 796 l 169 796 l 376 985 z "},"ể":{"ha":768,"x_min":43,"x_max":824,"o":"m 404 725 q 638 639 551 725 q 724 399 724 553 q 719 328 724 365 l 282 328 q 326 211 286 249 q 443 174 367 174 q 642 239 549 174 l 692 74 q 574 11 644 33 q 425 -11 504 -11 q 224 32 311 -11 q 90 153 138 75 q 43 338 43 232 q 91 538 43 449 q 222 676 139 626 q 404 725 304 725 m 414 553 q 335 527 367 553 q 292 444 304 501 l 518 444 q 489 525 517 497 q 414 553 461 553 m 583 979 q 606 1020 586 1006 q 652 1045 626 1035 q 678 1060 678 1056 q 654 1068 678 1068 q 558 1054 618 1068 l 533 1132 q 678 1154 606 1154 q 785 1133 746 1154 q 824 1076 824 1111 q 805 1033 824 1047 q 751 1003 786 1018 q 713 983 725 992 q 699 961 700 975 l 697 950 l 579 950 l 583 979 m 376 985 l 515 985 l 694 796 l 517 796 l 443 878 l 349 796 l 169 796 l 376 985 z "},"ễ":{"ha":768,"x_min":43,"x_max":724,"o":"m 404 725 q 638 639 551 725 q 724 399 724 553 q 719 328 724 365 l 282 328 q 326 211 286 249 q 443 174 367 174 q 642 239 549 174 l 692 74 q 574 11 644 33 q 425 -11 504 -11 q 224 32 311 -11 q 90 153 138 75 q 43 338 43 232 q 91 538 43 449 q 222 676 139 626 q 404 725 304 725 m 414 553 q 335 527 367 553 q 292 444 304 501 l 518 444 q 489 525 517 497 q 414 553 461 553 m 197 1011 q 251 1120 200 1079 q 364 1161 301 1161 q 416 1156 392 1161 q 476 1140 440 1151 q 565 1122 531 1122 q 595 1128 585 1122 q 610 1156 606 1135 l 711 1156 q 686 1077 711 1111 q 624 1024 661 1043 q 546 1006 586 1006 q 496 1010 518 1006 q 436 1026 474 1015 q 351 1044 382 1044 q 316 1038 329 1044 q 299 1011 303 1032 l 197 1011 m 376 985 l 515 985 l 694 796 l 517 796 l 443 878 l 349 796 l 169 796 l 376 985 z "},"ȅ":{"ha":768,"x_min":43,"x_max":724,"o":"m 404 725 q 638 639 551 725 q 724 399 724 553 q 719 328 724 365 l 282 328 q 326 211 286 249 q 443 174 367 174 q 642 239 549 174 l 692 74 q 574 11 644 33 q 425 -11 504 -11 q 224 32 311 -11 q 90 153 138 75 q 43 338 43 232 q 91 538 43 449 q 222 676 139 626 q 404 725 304 725 m 414 553 q 335 527 367 553 q 292 444 304 501 l 518 444 q 489 525 517 497 q 414 553 461 553 m 194 1085 l 360 1085 l 381 796 l 278 796 l 194 1085 m 400 1085 l 565 1085 l 586 796 l 482 796 l 400 1085 z "},"ë":{"ha":768,"x_min":43,"x_max":724,"o":"m 404 725 q 638 639 551 725 q 724 399 724 553 q 719 328 724 365 l 282 328 q 326 211 286 249 q 443 174 367 174 q 642 239 549 174 l 692 74 q 574 11 644 33 q 425 -11 504 -11 q 224 32 311 -11 q 90 153 138 75 q 43 338 43 232 q 91 538 43 449 q 222 676 139 626 q 404 725 304 725 m 414 553 q 335 527 367 553 q 292 444 304 501 l 518 444 q 489 525 517 497 q 414 553 461 553 m 424 1043 l 407 832 l 182 832 l 200 1043 l 424 1043 m 703 1043 l 683 832 l 461 832 l 479 1043 l 703 1043 z "},"ė":{"ha":768,"x_min":43,"x_max":724,"o":"m 404 725 q 638 639 551 725 q 724 399 724 553 q 719 328 724 365 l 282 328 q 326 211 286 249 q 443 174 367 174 q 642 239 549 174 l 692 74 q 574 11 644 33 q 425 -11 504 -11 q 224 32 311 -11 q 90 153 138 75 q 43 338 43 232 q 91 538 43 449 q 222 676 139 626 q 404 725 304 725 m 414 553 q 335 527 367 553 q 292 444 304 501 l 518 444 q 489 525 517 497 q 414 553 461 553 m 583 1051 l 565 825 l 303 825 l 319 1051 l 583 1051 z "},"ẹ":{"ha":768,"x_min":43,"x_max":724,"o":"m 404 725 q 638 639 551 725 q 724 399 724 553 q 719 328 724 365 l 282 328 q 326 211 286 249 q 443 174 367 174 q 642 239 549 174 l 692 74 q 574 11 644 33 q 425 -11 504 -11 q 224 32 311 -11 q 90 153 138 75 q 43 338 43 232 q 91 538 43 449 q 222 676 139 626 q 404 725 304 725 m 414 553 q 335 527 367 553 q 292 444 304 501 l 518 444 q 489 525 517 497 q 414 553 461 553 m 507 -79 l 489 -289 l 267 -289 l 286 -79 l 507 -79 z "},"è":{"ha":768,"x_min":43,"x_max":724,"o":"m 404 725 q 638 639 551 725 q 724 399 724 553 q 719 328 724 365 l 282 328 q 326 211 286 249 q 443 174 367 174 q 642 239 549 174 l 692 74 q 574 11 644 33 q 425 -11 504 -11 q 224 32 311 -11 q 90 153 138 75 q 43 338 43 232 q 91 538 43 449 q 222 676 139 626 q 404 725 304 725 m 414 553 q 335 527 367 553 q 292 444 304 501 l 518 444 q 489 525 517 497 q 414 553 461 553 m 163 1085 l 388 1085 l 508 796 l 356 796 l 163 1085 z "},"ẻ":{"ha":768,"x_min":43,"x_max":724,"o":"m 404 725 q 638 639 551 725 q 724 399 724 553 q 719 328 724 365 l 282 328 q 326 211 286 249 q 443 174 367 174 q 642 239 549 174 l 692 74 q 574 11 644 33 q 425 -11 504 -11 q 224 32 311 -11 q 90 153 138 75 q 43 338 43 232 q 91 538 43 449 q 222 676 139 626 q 404 725 304 725 m 414 553 q 335 527 367 553 q 292 444 304 501 l 518 444 q 489 525 517 497 q 414 553 461 553 m 493 796 l 374 796 l 376 831 q 393 878 378 860 q 433 915 408 897 q 458 938 450 929 q 465 957 465 947 q 426 985 465 985 q 360 974 390 985 l 335 1065 q 469 1088 400 1088 q 583 1058 543 1088 q 622 986 622 1029 q 603 927 622 949 q 544 879 583 906 q 508 853 521 865 q 494 828 496 842 l 493 796 z "},"ȇ":{"ha":768,"x_min":43,"x_max":724,"o":"m 404 725 q 638 639 551 725 q 724 399 724 553 q 719 328 724 365 l 282 328 q 326 211 286 249 q 443 174 367 174 q 642 239 549 174 l 692 74 q 574 11 644 33 q 425 -11 504 -11 q 224 32 311 -11 q 90 153 138 75 q 43 338 43 232 q 91 538 43 449 q 222 676 139 626 q 404 725 304 725 m 414 553 q 335 527 367 553 q 292 444 304 501 l 518 444 q 489 525 517 497 q 414 553 461 553 m 443 1075 q 611 1019 539 1075 q 708 861 683 964 l 596 817 q 526 897 569 871 q 432 924 482 924 q 269 817 340 924 l 164 863 q 268 1019 190 964 q 443 1075 346 1075 z "},"ē":{"ha":768,"x_min":43,"x_max":724,"o":"m 404 725 q 638 639 551 725 q 724 399 724 553 q 719 328 724 365 l 282 328 q 326 211 286 249 q 443 174 367 174 q 642 239 549 174 l 692 74 q 574 11 644 33 q 425 -11 504 -11 q 224 32 311 -11 q 90 153 138 75 q 43 338 43 232 q 91 538 43 449 q 222 676 139 626 q 404 725 304 725 m 414 553 q 335 527 367 553 q 292 444 304 501 l 518 444 q 489 525 517 497 q 414 553 461 553 m 225 1013 l 672 1013 l 660 863 l 213 863 l 225 1013 z "},"ḗ":{"ha":768,"x_min":43,"x_max":781,"o":"m 404 725 q 638 639 551 725 q 724 399 724 553 q 719 328 724 365 l 282 328 q 326 211 286 249 q 443 174 367 174 q 642 239 549 174 l 692 74 q 574 11 644 33 q 425 -11 504 -11 q 224 32 311 -11 q 90 153 138 75 q 43 338 43 232 q 91 538 43 449 q 222 676 139 626 q 404 725 304 725 m 414 553 q 335 527 367 553 q 292 444 304 501 l 518 444 q 489 525 517 497 q 414 553 461 553 m 225 1013 l 672 1013 l 660 863 l 213 863 l 225 1013 m 376 1061 l 529 1350 l 781 1350 l 529 1061 l 376 1061 z "},"ḕ":{"ha":768,"x_min":43,"x_max":724,"o":"m 404 725 q 638 639 551 725 q 724 399 724 553 q 719 328 724 365 l 282 328 q 326 211 286 249 q 443 174 367 174 q 642 239 549 174 l 692 74 q 574 11 644 33 q 425 -11 504 -11 q 224 32 311 -11 q 90 153 138 75 q 43 338 43 232 q 91 538 43 449 q 222 676 139 626 q 404 725 304 725 m 414 553 q 335 527 367 553 q 292 444 304 501 l 518 444 q 489 525 517 497 q 414 553 461 553 m 225 1013 l 672 1013 l 660 863 l 213 863 l 225 1013 m 183 1350 l 408 1350 l 529 1061 l 376 1061 l 183 1350 z "},"ę":{"ha":768,"x_min":43,"x_max":724,"o":"m 404 725 q 638 639 551 725 q 724 399 724 553 q 719 328 724 365 l 282 328 q 326 211 286 249 q 443 174 367 174 q 642 239 549 174 l 692 74 q 604 22 667 47 q 521 -29 546 -3 q 496 -92 496 -56 q 516 -141 496 -122 q 569 -160 536 -160 q 649 -143 600 -160 l 664 -257 q 524 -286 588 -286 q 388 -242 438 -286 q 338 -129 338 -199 q 351 -62 338 -93 q 389 -10 364 -32 q 137 94 231 1 q 43 338 43 188 q 91 538 43 449 q 222 676 139 626 q 404 725 304 725 m 414 553 q 335 526 365 553 q 292 444 306 500 l 518 444 q 489 525 517 497 q 414 553 461 553 z "},"ẽ":{"ha":768,"x_min":43,"x_max":724,"o":"m 404 725 q 638 639 551 725 q 724 399 724 553 q 719 328 724 365 l 282 328 q 326 211 286 249 q 443 174 367 174 q 642 239 549 174 l 692 74 q 574 11 644 33 q 425 -11 504 -11 q 224 32 311 -11 q 90 153 138 75 q 43 338 43 232 q 91 538 43 449 q 222 676 139 626 q 404 725 304 725 m 414 553 q 335 527 367 553 q 292 444 304 501 l 518 444 q 489 525 517 497 q 414 553 461 553 m 182 832 q 238 1001 189 947 q 353 1054 288 1054 q 408 1044 383 1054 q 467 1014 432 1033 q 540 985 514 985 q 601 1050 590 985 l 704 1050 q 647 881 696 935 q 532 828 599 828 q 478 838 503 828 q 421 868 453 849 q 378 890 394 883 q 346 897 363 897 q 306 883 321 897 q 285 832 290 868 l 182 832 z "},"ə":{"ha":768,"x_min":42,"x_max":728,"o":"m 363 725 q 558 682 475 725 q 684 560 640 639 q 728 376 728 481 q 680 176 728 264 q 549 38 632 88 q 363 -11 465 -11 q 129 76 217 -11 q 42 319 42 164 q 46 386 42 351 l 492 386 q 449 499 489 461 q 339 538 410 538 q 231 522 281 538 q 129 472 181 506 l 78 640 q 208 702 131 679 q 363 725 285 725 m 356 158 q 436 184 406 158 q 481 265 467 210 l 253 265 q 281 186 254 214 q 356 158 308 158 z "},"f":{"ha":563,"x_min":18,"x_max":613,"o":"m 531 832 q 454 806 485 832 q 419 728 424 779 l 418 706 l 586 706 l 572 519 l 403 519 l 361 0 l 108 0 l 150 519 l 18 519 l 33 706 l 165 706 l 167 731 q 259 954 178 874 q 483 1035 340 1035 q 613 1015 565 1035 l 599 822 q 531 832 560 832 z "},"g":{"ha":899,"x_min":44,"x_max":853,"o":"m 853 706 l 800 54 q 680 -224 786 -136 q 379 -311 574 -311 q 71 -251 201 -311 l 124 -65 q 389 -126 246 -126 q 503 -91 463 -126 q 550 24 543 -56 l 556 100 q 347 19 482 19 q 190 60 258 19 q 83 174 121 100 q 44 344 44 247 q 88 538 44 451 q 208 675 131 625 q 386 725 286 725 q 599 628 524 725 l 604 706 l 853 706 m 435 207 q 541 254 501 207 q 581 379 581 301 q 544 497 581 458 q 439 536 507 536 q 333 489 372 536 q 293 358 293 442 q 331 247 293 288 q 435 207 368 207 z "},"ğ":{"ha":899,"x_min":44,"x_max":853,"o":"m 853 706 l 800 54 q 680 -224 786 -136 q 379 -311 574 -311 q 71 -251 201 -311 l 124 -65 q 389 -126 246 -126 q 503 -91 463 -126 q 550 24 543 -56 l 556 100 q 347 19 482 19 q 190 60 258 19 q 83 174 121 100 q 44 344 44 247 q 88 538 44 451 q 208 675 131 625 q 386 725 286 725 q 599 628 524 725 l 604 706 l 853 706 m 435 207 q 541 254 501 207 q 581 379 581 301 q 544 497 581 458 q 439 536 507 536 q 333 489 372 536 q 293 358 293 442 q 331 247 293 288 q 435 207 368 207 m 497 824 q 328 879 401 824 q 232 1036 256 935 l 344 1083 q 415 1002 372 1028 q 508 976 457 976 q 671 1083 603 976 l 778 1036 q 672 878 750 933 q 497 824 594 824 z "},"ǧ":{"ha":899,"x_min":44,"x_max":853,"o":"m 853 706 l 800 54 q 680 -224 786 -136 q 379 -311 574 -311 q 71 -251 201 -311 l 124 -65 q 389 -126 246 -126 q 503 -91 463 -126 q 550 24 543 -56 l 556 100 q 347 19 482 19 q 190 60 258 19 q 83 174 121 100 q 44 344 44 247 q 88 538 44 451 q 208 675 131 625 q 386 725 286 725 q 599 628 524 725 l 604 706 l 853 706 m 435 207 q 541 254 501 207 q 581 379 581 301 q 544 497 581 458 q 439 536 507 536 q 333 489 372 536 q 293 358 293 442 q 331 247 293 288 q 435 207 368 207 m 771 1085 l 558 796 l 413 796 l 246 1085 l 429 1085 l 497 936 l 576 1085 l 771 1085 z "},"ĝ":{"ha":899,"x_min":44,"x_max":853,"o":"m 853 706 l 800 54 q 680 -224 786 -136 q 379 -311 574 -311 q 71 -251 201 -311 l 124 -65 q 389 -126 246 -126 q 503 -91 463 -126 q 550 24 543 -56 l 556 100 q 347 19 482 19 q 190 60 258 19 q 83 174 121 100 q 44 344 44 247 q 88 538 44 451 q 208 675 131 625 q 386 725 286 725 q 599 628 524 725 l 604 706 l 853 706 m 435 207 q 541 254 501 207 q 581 379 581 301 q 544 497 581 458 q 439 536 507 536 q 333 489 372 536 q 293 358 293 442 q 331 247 293 288 q 435 207 368 207 m 224 796 l 435 1085 l 581 1085 l 749 796 l 564 796 l 497 943 l 417 796 l 224 796 z "},"ģ":{"ha":899,"x_min":44,"x_max":853,"o":"m 853 706 l 800 54 q 680 -224 786 -136 q 379 -311 574 -311 q 71 -251 201 -311 l 124 -65 q 389 -126 246 -126 q 503 -91 463 -126 q 550 24 543 -56 l 556 100 q 347 19 482 19 q 190 60 258 19 q 83 174 121 100 q 44 344 44 247 q 88 538 44 451 q 208 675 131 625 q 386 725 286 725 q 599 628 524 725 l 604 706 l 853 706 m 435 207 q 541 254 501 207 q 581 379 581 301 q 544 497 581 458 q 439 536 507 536 q 333 489 372 536 q 293 358 293 442 q 331 247 293 288 q 435 207 368 207 m 622 1014 l 608 836 l 368 836 l 375 929 q 406 1051 382 1001 q 483 1143 429 1101 l 564 1086 q 510 1014 525 1053 l 622 1014 z "},"ġ":{"ha":899,"x_min":44,"x_max":853,"o":"m 853 706 l 800 54 q 680 -224 786 -136 q 379 -311 574 -311 q 71 -251 201 -311 l 124 -65 q 389 -126 246 -126 q 503 -91 463 -126 q 550 24 543 -56 l 556 100 q 347 19 482 19 q 190 60 258 19 q 83 174 121 100 q 44 344 44 247 q 88 538 44 451 q 208 675 131 625 q 386 725 286 725 q 599 628 524 725 l 604 706 l 853 706 m 435 207 q 541 254 501 207 q 581 379 581 301 q 544 497 581 458 q 439 536 507 536 q 333 489 372 536 q 293 358 293 442 q 331 247 293 288 q 435 207 368 207 m 638 1051 l 619 825 l 357 825 l 374 1051 l 638 1051 z "},"ḡ":{"ha":899,"x_min":44,"x_max":853,"o":"m 853 706 l 800 54 q 680 -224 786 -136 q 379 -311 574 -311 q 71 -251 201 -311 l 124 -65 q 389 -126 246 -126 q 503 -91 463 -126 q 550 24 543 -56 l 556 100 q 347 19 482 19 q 190 60 258 19 q 83 174 121 100 q 44 344 44 247 q 88 538 44 451 q 208 675 131 625 q 386 725 286 725 q 599 628 524 725 l 604 706 l 853 706 m 435 207 q 541 254 501 207 q 581 379 581 301 q 544 497 581 458 q 439 536 507 536 q 333 489 372 536 q 293 358 293 442 q 331 247 293 288 q 435 207 368 207 m 279 1013 l 726 1013 l 714 863 l 267 863 l 279 1013 z "},"h":{"ha":867,"x_min":47,"x_max":803,"o":"m 567 725 q 743 658 683 725 q 803 461 803 590 q 801 414 803 431 l 768 0 l 517 0 l 550 404 l 551 425 q 527 503 551 476 q 456 531 503 531 q 367 494 399 531 q 331 393 335 457 l 299 0 l 47 0 l 128 1022 l 379 1022 l 349 638 q 444 701 388 678 q 567 725 500 725 z "},"ħ":{"ha":867,"x_min":-11,"x_max":803,"o":"m 567 725 q 743 658 683 725 q 803 461 803 590 q 801 414 803 431 l 768 0 l 517 0 l 550 404 l 551 425 q 527 503 551 476 q 456 531 503 531 q 367 494 399 531 q 331 393 335 457 l 299 0 l 47 0 l 107 753 l -11 753 l 1 925 l 119 925 l 128 1025 l 379 1025 l 371 925 l 633 925 l 621 753 l 357 753 l 347 635 q 441 701 385 676 q 567 725 497 725 z "},"ḫ":{"ha":867,"x_min":47,"x_max":803,"o":"m 567 725 q 743 658 683 725 q 803 461 803 590 q 801 414 803 431 l 768 0 l 517 0 l 550 404 l 551 425 q 527 503 551 476 q 456 531 503 531 q 367 494 399 531 q 331 393 335 457 l 299 0 l 47 0 l 128 1022 l 379 1022 l 349 638 q 444 701 388 678 q 567 725 500 725 m 393 -326 q 225 -272 297 -326 q 128 -114 153 -217 l 240 -69 q 310 -148 267 -122 q 404 -174 354 -174 q 567 -69 497 -174 l 672 -114 q 568 -271 646 -215 q 393 -326 490 -326 z "},"ĥ":{"ha":867,"x_min":3,"x_max":803,"o":"m 567 725 q 743 658 683 725 q 803 461 803 590 q 801 414 803 431 l 768 0 l 517 0 l 550 404 l 551 425 q 527 503 551 476 q 456 531 503 531 q 367 494 399 531 q 331 393 335 457 l 299 0 l 47 0 l 128 1022 l 379 1022 l 349 638 q 444 701 388 678 q 567 725 500 725 m 3 1107 l 214 1326 l 350 1326 l 528 1107 l 346 1107 l 279 1215 l 183 1107 l 3 1107 z "},"ḥ":{"ha":867,"x_min":47,"x_max":803,"o":"m 567 725 q 743 658 683 725 q 803 461 803 590 q 801 414 803 431 l 768 0 l 517 0 l 550 404 l 551 425 q 527 503 551 476 q 456 531 503 531 q 367 494 399 531 q 331 393 335 457 l 299 0 l 47 0 l 128 1022 l 379 1022 l 349 638 q 444 701 388 678 q 567 725 500 725 m 514 -79 l 496 -289 l 274 -289 l 293 -79 l 514 -79 z "},"i":{"ha":401,"x_min":47,"x_max":388,"o":"m 103 706 l 354 706 l 299 0 l 47 0 l 103 706 m 388 1051 l 369 825 l 107 825 l 124 1051 l 388 1051 z "},"ı":{"ha":401,"x_min":47,"x_max":354,"o":"m 103 706 l 354 706 l 299 0 l 47 0 l 103 706 z "},"í":{"ha":401,"x_min":47,"x_max":564,"o":"m 103 706 l 354 706 l 299 0 l 47 0 l 103 706 m 160 796 l 313 1085 l 564 1085 l 313 796 l 160 796 z "},"ĭ":{"ha":401,"x_min":-18,"x_max":528,"o":"m 103 706 l 354 706 l 299 0 l 47 0 l 103 706 m 247 824 q 78 879 151 824 q -18 1036 6 935 l 94 1083 q 165 1002 122 1028 q 258 976 207 976 q 421 1083 353 976 l 528 1036 q 422 878 500 933 q 247 824 344 824 z "},"î":{"ha":401,"x_min":-26,"x_max":499,"o":"m 103 706 l 354 706 l 299 0 l 47 0 l 103 706 m -26 796 l 185 1085 l 331 1085 l 499 796 l 314 796 l 247 943 l 167 796 l -26 796 z "},"ȉ":{"ha":401,"x_min":-1,"x_max":390,"o":"m 103 706 l 354 706 l 299 0 l 47 0 l 103 706 m -1 1085 l 164 1085 l 185 796 l 82 796 l -1 1085 m 204 1085 l 369 1085 l 390 796 l 286 796 l 204 1085 z "},"ï":{"ha":401,"x_min":-14,"x_max":507,"o":"m 103 706 l 354 706 l 299 0 l 47 0 l 103 706 m 228 1043 l 211 832 l -14 832 l 4 1043 l 228 1043 m 507 1043 l 488 832 l 265 832 l 283 1043 l 507 1043 z "},"ḯ":{"ha":401,"x_min":-14,"x_max":585,"o":"m 103 706 l 354 706 l 299 0 l 47 0 l 103 706 m 228 1043 l 211 832 l -14 832 l 4 1043 l 228 1043 m 507 1043 l 488 832 l 265 832 l 283 1043 l 507 1043 m 181 1061 l 333 1350 l 585 1350 l 333 1061 l 181 1061 z "},"ị":{"ha":401,"x_min":40,"x_max":388,"o":"m 103 706 l 354 706 l 299 0 l 47 0 l 103 706 m 388 1051 l 369 825 l 107 825 l 124 1051 l 388 1051 m 281 -79 l 263 -289 l 40 -289 l 60 -79 l 281 -79 z "},"ì":{"ha":401,"x_min":-33,"x_max":354,"o":"m 103 706 l 354 706 l 299 0 l 47 0 l 103 706 m -33 1085 l 192 1085 l 313 796 l 160 796 l -33 1085 z "},"ỉ":{"ha":401,"x_min":47,"x_max":426,"o":"m 103 706 l 354 706 l 299 0 l 47 0 l 103 706 m 297 796 l 178 796 l 181 831 q 197 878 182 860 q 238 915 213 897 q 262 938 254 929 q 269 957 269 947 q 231 985 269 985 q 164 974 194 985 l 139 1065 q 274 1088 204 1088 q 387 1058 347 1088 q 426 986 426 1029 q 407 927 426 949 q 349 879 388 906 q 313 853 325 865 q 299 828 300 842 l 297 796 z "},"ȋ":{"ha":401,"x_min":-32,"x_max":513,"o":"m 103 706 l 354 706 l 299 0 l 47 0 l 103 706 m 247 1075 q 415 1019 343 1075 q 513 861 488 964 l 400 817 q 330 897 374 871 q 236 924 286 924 q 74 817 144 924 l -32 863 q 72 1019 -6 964 q 247 1075 150 1075 z "},"ī":{"ha":401,"x_min":17,"x_max":476,"o":"m 103 706 l 354 706 l 299 0 l 47 0 l 103 706 m 29 1013 l 476 1013 l 464 863 l 17 863 l 29 1013 z "},"į":{"ha":403,"x_min":1,"x_max":388,"o":"m 388 1057 l 371 829 l 108 829 l 125 1057 l 388 1057 m 283 0 q 192 -25 224 0 q 161 -92 161 -50 q 181 -141 161 -122 q 233 -160 201 -160 q 314 -143 267 -160 l 329 -257 q 189 -286 253 -286 q 52 -242 103 -286 q 1 -126 1 -197 q 57 0 1 -49 l 47 0 l 104 706 l 356 706 l 299 0 l 283 0 z "},"ĩ":{"ha":401,"x_min":-14,"x_max":508,"o":"m 103 706 l 354 706 l 299 0 l 47 0 l 103 706 m -14 832 q 42 1001 -7 947 q 157 1054 92 1054 q 212 1044 188 1054 q 271 1014 236 1033 q 344 985 318 985 q 406 1050 394 985 l 508 1050 q 451 881 500 935 q 336 828 403 828 q 282 838 307 828 q 225 868 257 849 q 183 890 199 883 q 150 897 167 897 q 110 883 125 897 q 89 832 94 868 l -14 832 z "},"j":{"ha":401,"x_min":-146,"x_max":386,"o":"m -132 -100 q -64 -110 -93 -110 q 13 -83 -18 -110 q 47 -6 43 -57 l 104 706 l 357 706 l 300 -8 q 208 -232 289 -151 q -17 -312 128 -312 q -146 -293 -99 -312 l -132 -100 m 386 1051 l 368 825 l 106 825 l 122 1051 l 386 1051 z "},"ȷ":{"ha":401,"x_min":-146,"x_max":357,"o":"m -132 -100 q -64 -110 -93 -110 q 13 -83 -18 -110 q 47 -6 43 -57 l 104 706 l 357 706 l 300 -8 q 208 -232 289 -151 q -17 -312 128 -312 q -146 -293 -99 -312 l -132 -100 z "},"ĵ":{"ha":401,"x_min":-146,"x_max":497,"o":"m -132 -100 q -64 -110 -93 -110 q 13 -83 -18 -110 q 47 -6 43 -57 l 104 706 l 357 706 l 300 -8 q 208 -232 289 -151 q -17 -312 128 -312 q -146 -293 -99 -312 l -132 -100 m -28 796 l 183 1085 l 329 1085 l 497 796 l 313 796 l 246 943 l 165 796 l -28 796 z "},"k":{"ha":831,"x_min":49,"x_max":892,"o":"m 586 363 l 847 0 l 544 0 l 325 303 l 301 0 l 49 0 l 129 1022 l 382 1022 l 335 415 l 586 704 l 892 704 l 586 363 z "},"ķ":{"ha":831,"x_min":49,"x_max":892,"o":"m 586 363 l 847 0 l 544 0 l 325 303 l 301 0 l 49 0 l 129 1022 l 382 1022 l 335 415 l 586 704 l 892 704 l 586 363 m 501 -89 l 494 -182 q 464 -302 488 -253 q 386 -394 440 -351 l 306 -336 q 358 -267 346 -304 l 247 -267 l 261 -89 l 501 -89 z "},"ĸ":{"ha":829,"x_min":47,"x_max":889,"o":"m 585 363 l 844 0 l 542 0 l 324 303 l 299 0 l 47 0 l 106 706 l 357 706 l 333 415 l 585 704 l 889 704 l 585 363 z "},"l":{"ha":401,"x_min":47,"x_max":381,"o":"m 129 1022 l 381 1022 l 299 0 l 47 0 l 129 1022 z "},"ĺ":{"ha":401,"x_min":47,"x_max":578,"o":"m 129 1022 l 381 1022 l 299 0 l 47 0 l 129 1022 m 183 1107 l 342 1326 l 578 1326 l 336 1107 l 183 1107 z "},"ľ":{"ha":401,"x_min":47,"x_max":532,"o":"m 129 1022 l 381 1022 l 299 0 l 47 0 l 129 1022 m 392 743 l 413 1022 l 532 1022 l 472 743 l 392 743 z "},"ļ":{"ha":401,"x_min":32,"x_max":381,"o":"m 129 1022 l 381 1022 l 299 0 l 47 0 l 129 1022 m 286 -89 l 279 -182 q 249 -302 272 -253 q 171 -394 225 -351 l 90 -336 q 143 -267 131 -304 l 32 -267 l 46 -89 l 286 -89 z "},"ŀ":{"ha":593,"x_min":47,"x_max":635,"o":"m 129 1022 l 381 1022 l 299 0 l 47 0 l 129 1022 m 635 608 l 615 385 l 356 385 l 374 608 l 635 608 z "},"ḷ":{"ha":401,"x_min":39,"x_max":381,"o":"m 129 1022 l 381 1022 l 299 0 l 47 0 l 129 1022 m 279 -79 l 261 -289 l 39 -289 l 58 -79 l 279 -79 z "},"ǉ":{"ha":803,"x_min":47,"x_max":788,"o":"m 129 1022 l 381 1022 l 299 0 l 47 0 l 129 1022 m 269 -100 q 338 -110 308 -110 q 414 -83 383 -110 q 449 -6 444 -57 l 506 706 l 758 706 l 701 -8 q 610 -232 690 -151 q 385 -312 529 -312 q 256 -293 303 -312 l 269 -100 m 788 1051 l 769 825 l 507 825 l 524 1051 l 788 1051 z "},"ḻ":{"ha":401,"x_min":-69,"x_max":389,"o":"m 129 1022 l 381 1022 l 299 0 l 47 0 l 129 1022 m -58 -114 l 389 -114 l 378 -254 l -69 -254 l -58 -114 z "},"ł":{"ha":539,"x_min":-21,"x_max":585,"o":"m 406 469 l 368 0 l 117 0 l 143 325 l 57 278 l -21 444 l 160 544 l 197 1008 l 449 1008 l 424 690 l 506 736 l 585 568 l 406 469 z "},"m":{"ha":1285,"x_min":47,"x_max":1222,"o":"m 993 725 q 1163 657 1104 725 q 1222 460 1222 589 q 1221 417 1222 432 l 1188 0 l 936 0 l 968 411 q 969 433 969 419 q 949 506 969 481 q 890 531 929 531 q 808 494 838 531 q 772 379 779 458 l 744 0 l 490 0 l 524 407 q 525 432 525 415 q 444 531 525 531 q 363 494 392 531 q 329 379 335 458 l 299 0 l 47 0 l 88 503 q 93 639 93 564 q 92 706 93 683 l 329 706 l 332 625 q 430 701 376 676 q 554 725 483 725 q 676 695 625 725 q 753 610 726 665 q 860 696 799 667 q 993 725 922 725 z "},"ṃ":{"ha":1285,"x_min":47,"x_max":1222,"o":"m 993 725 q 1163 657 1104 725 q 1222 460 1222 589 q 1221 417 1222 432 l 1188 0 l 936 0 l 968 411 q 969 433 969 419 q 949 506 969 481 q 890 531 929 531 q 808 494 838 531 q 772 379 779 458 l 744 0 l 490 0 l 524 407 q 525 432 525 415 q 444 531 525 531 q 363 494 392 531 q 329 379 335 458 l 299 0 l 47 0 l 88 503 q 93 639 93 564 q 92 706 93 683 l 329 706 l 332 625 q 430 701 376 676 q 554 725 483 725 q 676 695 625 725 q 753 610 726 665 q 860 696 799 667 q 993 725 922 725 m 724 -79 l 706 -289 l 483 -289 l 503 -79 l 724 -79 z "},"n":{"ha":867,"x_min":47,"x_max":803,"o":"m 567 725 q 743 658 683 725 q 803 461 803 590 q 801 414 803 431 l 768 0 l 517 0 l 550 404 l 551 425 q 527 503 551 476 q 456 531 503 531 q 367 494 399 531 q 331 393 335 457 l 299 0 l 47 0 l 88 503 q 93 638 93 563 q 92 706 93 683 l 329 706 l 332 617 q 429 696 368 667 q 567 725 490 725 z "},"ń":{"ha":867,"x_min":47,"x_max":803,"o":"m 567 725 q 743 658 683 725 q 803 461 803 590 q 801 414 803 431 l 768 0 l 517 0 l 550 404 l 551 425 q 527 503 551 476 q 456 531 503 531 q 367 494 399 531 q 331 393 335 457 l 299 0 l 47 0 l 88 503 q 93 638 93 563 q 92 706 93 683 l 329 706 l 332 617 q 429 696 368 667 q 567 725 490 725 m 396 796 l 549 1085 l 800 1085 l 549 796 l 396 796 z "},"ŉ":{"ha":867,"x_min":47,"x_max":803,"o":"m 385 1069 l 378 975 q 347 856 372 907 q 269 761 322 804 l 189 821 q 242 890 229 853 l 132 890 l 146 1069 l 385 1069 m 567 725 q 743 658 683 725 q 803 461 803 590 q 801 414 803 431 l 768 0 l 517 0 l 550 404 l 551 425 q 527 503 551 476 q 456 531 503 531 q 367 494 399 531 q 331 393 335 457 l 299 0 l 47 0 l 88 503 q 93 638 93 563 q 92 706 93 683 l 329 706 l 332 617 q 429 696 368 667 q 567 725 490 725 z "},"ň":{"ha":867,"x_min":47,"x_max":803,"o":"m 567 725 q 743 658 683 725 q 803 461 803 590 q 801 414 803 431 l 768 0 l 517 0 l 550 404 l 551 425 q 527 503 551 476 q 456 531 503 531 q 367 494 399 531 q 331 393 335 457 l 299 0 l 47 0 l 88 503 q 93 638 93 563 q 92 706 93 683 l 329 706 l 332 617 q 429 696 368 667 q 567 725 490 725 m 757 1085 l 544 796 l 399 796 l 232 1085 l 415 1085 l 483 936 l 563 1085 l 757 1085 z "},"ņ":{"ha":867,"x_min":47,"x_max":803,"o":"m 567 725 q 743 658 683 725 q 803 461 803 590 q 801 414 803 431 l 768 0 l 517 0 l 550 404 l 551 425 q 527 503 551 476 q 456 531 503 531 q 367 494 399 531 q 331 393 335 457 l 299 0 l 47 0 l 88 503 q 93 638 93 563 q 92 706 93 683 l 329 706 l 332 617 q 429 696 368 667 q 567 725 490 725 m 521 -89 l 514 -182 q 483 -302 507 -253 q 406 -394 460 -351 l 325 -336 q 378 -267 365 -304 l 267 -267 l 281 -89 l 521 -89 z "},"ṅ":{"ha":867,"x_min":47,"x_max":803,"o":"m 567 725 q 743 658 683 725 q 803 461 803 590 q 801 414 803 431 l 768 0 l 517 0 l 550 404 l 551 425 q 527 503 551 476 q 456 531 503 531 q 367 494 399 531 q 331 393 335 457 l 299 0 l 47 0 l 88 503 q 93 638 93 563 q 92 706 93 683 l 329 706 l 332 617 q 429 696 368 667 q 567 725 490 725 m 624 1051 l 606 825 l 343 825 l 360 1051 l 624 1051 z "},"ṇ":{"ha":867,"x_min":47,"x_max":803,"o":"m 567 725 q 743 658 683 725 q 803 461 803 590 q 801 414 803 431 l 768 0 l 517 0 l 550 404 l 551 425 q 527 503 551 476 q 456 531 503 531 q 367 494 399 531 q 331 393 335 457 l 299 0 l 47 0 l 88 503 q 93 638 93 563 q 92 706 93 683 l 329 706 l 332 617 q 429 696 368 667 q 567 725 490 725 m 514 -79 l 496 -289 l 274 -289 l 293 -79 l 514 -79 z "},"ŋ":{"ha":867,"x_min":47,"x_max":803,"o":"m 567 725 q 743 658 683 725 q 803 461 803 590 q 801 414 803 431 l 771 33 q 680 -190 760 -110 q 456 -271 600 -271 q 325 -251 376 -271 l 342 -58 q 410 -68 381 -68 q 486 -42 454 -68 q 521 36 518 -15 l 550 404 l 551 425 q 527 503 551 476 q 456 531 503 531 q 367 494 399 531 q 331 393 335 457 l 299 0 l 47 0 l 88 503 q 93 638 93 563 q 92 706 93 683 l 329 706 l 332 617 q 429 696 368 667 q 567 725 490 725 z "},"ǌ":{"ha":1268,"x_min":47,"x_max":1253,"o":"m 567 725 q 743 658 683 725 q 803 461 803 590 q 801 414 803 431 l 768 0 l 517 0 l 550 404 l 551 425 q 527 503 551 476 q 456 531 503 531 q 367 494 399 531 q 331 393 335 457 l 299 0 l 47 0 l 88 503 q 93 638 93 563 q 92 706 93 683 l 329 706 l 332 617 q 429 696 368 667 q 567 725 490 725 m 735 -100 q 803 -110 774 -110 q 879 -83 849 -110 q 914 -6 910 -57 l 971 706 l 1224 706 l 1167 -8 q 1075 -232 1156 -151 q 850 -312 994 -312 q 721 -293 768 -312 l 735 -100 m 1253 1051 l 1235 825 l 972 825 l 989 1051 l 1253 1051 z "},"ṉ":{"ha":867,"x_min":47,"x_max":803,"o":"m 567 725 q 743 658 683 725 q 803 461 803 590 q 801 414 803 431 l 768 0 l 517 0 l 550 404 l 551 425 q 527 503 551 476 q 456 531 503 531 q 367 494 399 531 q 331 393 335 457 l 299 0 l 47 0 l 88 503 q 93 638 93 563 q 92 706 93 683 l 329 706 l 332 617 q 429 696 368 667 q 567 725 490 725 m 176 -114 l 624 -114 l 613 -254 l 165 -254 l 176 -114 z "},"ñ":{"ha":867,"x_min":47,"x_max":803,"o":"m 567 725 q 743 658 683 725 q 803 461 803 590 q 801 414 803 431 l 768 0 l 517 0 l 550 404 l 551 425 q 527 503 551 476 q 456 531 503 531 q 367 494 399 531 q 331 393 335 457 l 299 0 l 47 0 l 88 503 q 93 638 93 563 q 92 706 93 683 l 329 706 l 332 617 q 429 696 368 667 q 567 725 490 725 m 222 832 q 278 1001 229 947 q 393 1054 328 1054 q 448 1044 424 1054 q 507 1014 472 1033 q 581 985 554 985 q 642 1050 631 985 l 744 1050 q 688 881 736 935 q 572 828 639 828 q 518 838 543 828 q 461 868 493 849 q 419 890 435 883 q 386 897 403 897 q 346 883 361 897 q 325 832 331 868 l 222 832 z "},"o":{"ha":858,"x_min":43,"x_max":817,"o":"m 429 -11 q 224 32 311 -11 q 90 154 136 75 q 43 339 43 233 q 92 545 43 458 q 228 678 140 632 q 433 725 317 725 q 637 681 550 725 q 770 558 724 638 q 817 375 817 479 q 769 167 817 254 q 633 35 721 81 q 429 -11 546 -11 m 425 175 q 534 233 500 175 q 568 381 568 290 q 535 498 568 460 q 436 536 503 536 q 326 479 360 536 q 292 335 292 422 q 324 214 292 253 q 425 175 357 175 z "},"ó":{"ha":858,"x_min":43,"x_max":817,"o":"m 429 -11 q 224 32 311 -11 q 90 154 136 75 q 43 339 43 233 q 92 545 43 458 q 228 678 140 632 q 433 725 317 725 q 637 681 550 725 q 770 558 724 638 q 817 375 817 479 q 769 167 817 254 q 633 35 721 81 q 429 -11 546 -11 m 425 175 q 534 233 500 175 q 568 381 568 290 q 535 498 568 460 q 436 536 503 536 q 326 479 360 536 q 292 335 292 422 q 324 214 292 253 q 425 175 357 175 m 388 796 l 540 1085 l 792 1085 l 540 796 l 388 796 z "},"ŏ":{"ha":858,"x_min":43,"x_max":817,"o":"m 429 -11 q 224 32 311 -11 q 90 154 136 75 q 43 339 43 233 q 92 545 43 458 q 228 678 140 632 q 433 725 317 725 q 637 681 550 725 q 770 558 724 638 q 817 375 817 479 q 769 167 817 254 q 633 35 721 81 q 429 -11 546 -11 m 425 175 q 534 233 500 175 q 568 381 568 290 q 535 498 568 460 q 436 536 503 536 q 326 479 360 536 q 292 335 292 422 q 324 214 292 253 q 425 175 357 175 m 475 824 q 306 879 379 824 q 210 1036 233 935 l 322 1083 q 392 1002 350 1028 q 486 976 435 976 q 649 1083 581 976 l 756 1036 q 650 878 728 933 q 475 824 572 824 z "},"ô":{"ha":858,"x_min":43,"x_max":817,"o":"m 429 -11 q 224 32 311 -11 q 90 154 136 75 q 43 339 43 233 q 92 545 43 458 q 228 678 140 632 q 433 725 317 725 q 637 681 550 725 q 770 558 724 638 q 817 375 817 479 q 769 167 817 254 q 633 35 721 81 q 429 -11 546 -11 m 425 175 q 534 233 500 175 q 568 381 568 290 q 535 498 568 460 q 436 536 503 536 q 326 479 360 536 q 292 335 292 422 q 324 214 292 253 q 425 175 357 175 m 201 796 l 413 1085 l 558 1085 l 726 796 l 542 796 l 475 943 l 394 796 l 201 796 z "},"ố":{"ha":858,"x_min":43,"x_max":922,"o":"m 429 -11 q 224 32 311 -11 q 90 154 136 75 q 43 339 43 233 q 92 545 43 458 q 228 678 140 632 q 433 725 317 725 q 637 681 550 725 q 770 558 724 638 q 817 375 817 479 q 769 167 817 254 q 633 35 721 81 q 429 -11 546 -11 m 425 175 q 534 233 500 175 q 568 381 568 290 q 535 498 568 460 q 436 536 503 536 q 326 479 360 536 q 292 335 292 422 q 324 214 292 253 q 425 175 357 175 m 613 949 l 711 1144 l 922 1144 l 731 949 l 613 949 m 201 796 l 408 985 l 547 985 l 726 796 l 549 796 l 475 878 l 381 796 l 201 796 z "},"ộ":{"ha":858,"x_min":43,"x_max":817,"o":"m 429 -11 q 224 32 311 -11 q 90 154 136 75 q 43 339 43 233 q 92 545 43 458 q 228 678 140 632 q 433 725 317 725 q 637 681 550 725 q 770 558 724 638 q 817 375 817 479 q 769 167 817 254 q 633 35 721 81 q 429 -11 546 -11 m 425 175 q 534 233 500 175 q 568 381 568 290 q 535 498 568 460 q 436 536 503 536 q 326 479 360 536 q 292 335 292 422 q 324 214 292 253 q 425 175 357 175 m 508 -79 l 490 -289 l 268 -289 l 288 -79 l 508 -79 m 201 796 l 413 1085 l 558 1085 l 726 796 l 542 796 l 475 943 l 394 796 l 201 796 z "},"ồ":{"ha":858,"x_min":43,"x_max":817,"o":"m 429 -11 q 224 32 311 -11 q 90 154 136 75 q 43 339 43 233 q 92 545 43 458 q 228 678 140 632 q 433 725 317 725 q 637 681 550 725 q 770 558 724 638 q 817 375 817 479 q 769 167 817 254 q 633 35 721 81 q 429 -11 546 -11 m 425 175 q 534 233 500 175 q 568 381 568 290 q 535 498 568 460 q 436 536 503 536 q 326 479 360 536 q 292 335 292 422 q 324 214 292 253 q 425 175 357 175 m 515 1144 l 701 1144 l 789 949 l 671 949 l 515 1144 m 408 985 l 547 985 l 726 796 l 549 796 l 475 878 l 381 796 l 201 796 l 408 985 z "},"ổ":{"ha":858,"x_min":43,"x_max":856,"o":"m 429 -11 q 224 32 311 -11 q 90 154 136 75 q 43 339 43 233 q 92 545 43 458 q 228 678 140 632 q 433 725 317 725 q 637 681 550 725 q 770 558 724 638 q 817 375 817 479 q 769 167 817 254 q 633 35 721 81 q 429 -11 546 -11 m 425 175 q 534 233 500 175 q 568 381 568 290 q 535 498 568 460 q 436 536 503 536 q 326 479 360 536 q 292 335 292 422 q 324 214 292 253 q 425 175 357 175 m 615 979 q 638 1020 618 1006 q 684 1045 658 1035 q 710 1060 710 1056 q 686 1068 710 1068 q 590 1054 650 1068 l 565 1132 q 710 1154 638 1154 q 817 1133 778 1154 q 856 1076 856 1111 q 837 1033 856 1047 q 783 1003 818 1018 q 744 983 757 992 q 731 961 732 975 l 729 950 l 611 950 l 615 979 m 408 985 l 547 985 l 726 796 l 549 796 l 475 878 l 381 796 l 201 796 l 408 985 z "},"ỗ":{"ha":858,"x_min":43,"x_max":817,"o":"m 429 -11 q 224 32 311 -11 q 90 154 136 75 q 43 339 43 233 q 92 545 43 458 q 228 678 140 632 q 433 725 317 725 q 637 681 550 725 q 770 558 724 638 q 817 375 817 479 q 769 167 817 254 q 633 35 721 81 q 429 -11 546 -11 m 425 175 q 534 233 500 175 q 568 381 568 290 q 535 498 568 460 q 436 536 503 536 q 326 479 360 536 q 292 335 292 422 q 324 214 292 253 q 425 175 357 175 m 229 1011 q 283 1120 232 1079 q 396 1161 333 1161 q 448 1156 424 1161 q 508 1140 472 1151 q 597 1122 563 1122 q 627 1128 617 1122 q 642 1156 638 1135 l 743 1156 q 718 1077 743 1111 q 656 1024 693 1043 q 578 1006 618 1006 q 528 1010 550 1006 q 468 1026 506 1015 q 383 1044 414 1044 q 348 1038 361 1044 q 331 1011 335 1032 l 229 1011 m 408 985 l 547 985 l 726 796 l 549 796 l 475 878 l 381 796 l 201 796 l 408 985 z "},"ȍ":{"ha":858,"x_min":43,"x_max":817,"o":"m 429 -11 q 224 32 311 -11 q 90 154 136 75 q 43 339 43 233 q 92 545 43 458 q 228 678 140 632 q 433 725 317 725 q 637 681 550 725 q 770 558 724 638 q 817 375 817 479 q 769 167 817 254 q 633 35 721 81 q 429 -11 546 -11 m 425 175 q 534 233 500 175 q 568 381 568 290 q 535 498 568 460 q 436 536 503 536 q 326 479 360 536 q 292 335 292 422 q 324 214 292 253 q 425 175 357 175 m 226 1085 l 392 1085 l 413 796 l 310 796 l 226 1085 m 432 1085 l 597 1085 l 618 796 l 514 796 l 432 1085 z "},"ö":{"ha":858,"x_min":43,"x_max":817,"o":"m 429 -11 q 224 32 311 -11 q 90 154 136 75 q 43 339 43 233 q 92 545 43 458 q 228 678 140 632 q 433 725 317 725 q 637 681 550 725 q 770 558 724 638 q 817 375 817 479 q 769 167 817 254 q 633 35 721 81 q 429 -11 546 -11 m 425 175 q 534 233 500 175 q 568 381 568 290 q 535 498 568 460 q 436 536 503 536 q 326 479 360 536 q 292 335 292 422 q 324 214 292 253 q 425 175 357 175 m 456 1043 l 439 832 l 214 832 l 232 1043 l 456 1043 m 735 1043 l 715 832 l 493 832 l 511 1043 l 735 1043 z "},"ȫ":{"ha":858,"x_min":43,"x_max":817,"o":"m 429 -11 q 224 32 311 -11 q 90 154 136 75 q 43 339 43 233 q 92 545 43 458 q 228 678 140 632 q 433 725 317 725 q 637 681 550 725 q 770 558 724 638 q 817 375 817 479 q 769 167 817 254 q 633 35 721 81 q 429 -11 546 -11 m 425 175 q 534 233 500 175 q 568 381 568 290 q 535 498 568 460 q 436 536 503 536 q 326 479 360 536 q 292 335 292 422 q 324 214 292 253 q 425 175 357 175 m 456 1043 l 439 832 l 214 832 l 232 1043 l 456 1043 m 735 1043 l 715 832 l 493 832 l 511 1043 l 735 1043 m 278 1278 l 725 1278 l 713 1128 l 265 1128 l 278 1278 z "},"ȱ":{"ha":858,"x_min":43,"x_max":817,"o":"m 429 -11 q 224 32 311 -11 q 90 154 136 75 q 43 339 43 233 q 92 545 43 458 q 228 678 140 632 q 433 725 317 725 q 637 681 550 725 q 770 558 724 638 q 817 375 817 479 q 769 167 817 254 q 633 35 721 81 q 429 -11 546 -11 m 425 175 q 534 233 500 175 q 568 381 568 290 q 535 498 568 460 q 436 536 503 536 q 326 479 360 536 q 292 335 292 422 q 324 214 292 253 q 425 175 357 175 m 615 1051 l 597 825 l 335 825 l 351 1051 l 615 1051 m 278 1278 l 725 1278 l 713 1128 l 265 1128 l 278 1278 z "},"ọ":{"ha":858,"x_min":43,"x_max":817,"o":"m 429 -11 q 224 32 311 -11 q 90 154 136 75 q 43 339 43 233 q 92 545 43 458 q 228 678 140 632 q 433 725 317 725 q 637 681 550 725 q 770 558 724 638 q 817 375 817 479 q 769 167 817 254 q 633 35 721 81 q 429 -11 546 -11 m 425 175 q 534 233 500 175 q 568 381 568 290 q 535 498 568 460 q 436 536 503 536 q 326 479 360 536 q 292 335 292 422 q 324 214 292 253 q 425 175 357 175 m 508 -79 l 490 -289 l 268 -289 l 288 -79 l 508 -79 z "},"ò":{"ha":858,"x_min":43,"x_max":817,"o":"m 429 -11 q 224 32 311 -11 q 90 154 136 75 q 43 339 43 233 q 92 545 43 458 q 228 678 140 632 q 433 725 317 725 q 637 681 550 725 q 770 558 724 638 q 817 375 817 479 q 769 167 817 254 q 633 35 721 81 q 429 -11 546 -11 m 425 175 q 534 233 500 175 q 568 381 568 290 q 535 498 568 460 q 436 536 503 536 q 326 479 360 536 q 292 335 292 422 q 324 214 292 253 q 425 175 357 175 m 194 1085 l 419 1085 l 540 796 l 388 796 l 194 1085 z "},"ỏ":{"ha":858,"x_min":43,"x_max":817,"o":"m 429 -11 q 224 32 311 -11 q 90 154 136 75 q 43 339 43 233 q 92 545 43 458 q 228 678 140 632 q 433 725 317 725 q 637 681 550 725 q 770 558 724 638 q 817 375 817 479 q 769 167 817 254 q 633 35 721 81 q 429 -11 546 -11 m 425 175 q 534 233 500 175 q 568 381 568 290 q 535 498 568 460 q 436 536 503 536 q 326 479 360 536 q 292 335 292 422 q 324 214 292 253 q 425 175 357 175 m 525 796 l 406 796 l 408 831 q 425 878 410 860 q 465 915 440 897 q 490 938 482 929 q 497 957 497 947 q 458 985 497 985 q 392 974 422 985 l 367 1065 q 501 1088 432 1088 q 615 1058 575 1088 q 654 986 654 1029 q 635 927 654 949 q 576 879 615 906 q 540 853 553 865 q 526 828 528 842 l 525 796 z "},"ơ":{"ha":858,"x_min":43,"x_max":904,"o":"m 904 883 l 899 824 q 851 682 893 742 q 740 601 808 622 q 817 375 817 508 q 769 167 817 254 q 633 35 721 81 q 429 -11 546 -11 q 224 32 311 -11 q 90 154 136 75 q 43 339 43 233 q 92 545 43 458 q 228 678 140 632 q 432 725 317 725 q 517 717 458 725 q 579 711 567 711 q 689 853 678 711 l 690 883 l 904 883 m 425 175 q 534 233 500 175 q 568 381 568 290 q 535 498 568 460 q 436 536 503 536 q 326 479 360 536 q 292 335 292 422 q 324 214 292 253 q 425 175 357 175 z "},"ớ":{"ha":858,"x_min":43,"x_max":904,"o":"m 904 883 l 899 824 q 851 682 893 742 q 740 601 808 622 q 817 375 817 508 q 769 167 817 254 q 633 35 721 81 q 429 -11 546 -11 q 224 32 311 -11 q 90 154 136 75 q 43 339 43 233 q 92 545 43 458 q 228 678 140 632 q 432 725 317 725 q 517 717 458 725 q 579 711 567 711 q 689 853 678 711 l 690 883 l 904 883 m 425 175 q 534 233 500 175 q 568 381 568 290 q 535 498 568 460 q 436 536 503 536 q 326 479 360 536 q 292 335 292 422 q 324 214 292 253 q 425 175 357 175 m 388 796 l 540 1085 l 792 1085 l 540 796 l 388 796 z "},"ợ":{"ha":858,"x_min":43,"x_max":904,"o":"m 904 883 l 899 824 q 851 682 893 742 q 740 601 808 622 q 817 375 817 508 q 769 167 817 254 q 633 35 721 81 q 429 -11 546 -11 q 224 32 311 -11 q 90 154 136 75 q 43 339 43 233 q 92 545 43 458 q 228 678 140 632 q 432 725 317 725 q 517 717 458 725 q 579 711 567 711 q 689 853 678 711 l 690 883 l 904 883 m 425 175 q 534 233 500 175 q 568 381 568 290 q 535 498 568 460 q 436 536 503 536 q 326 479 360 536 q 292 335 292 422 q 324 214 292 253 q 425 175 357 175 m 508 -79 l 490 -289 l 268 -289 l 288 -79 l 508 -79 z "},"ờ":{"ha":858,"x_min":43,"x_max":904,"o":"m 904 883 l 899 824 q 851 682 893 742 q 740 601 808 622 q 817 375 817 508 q 769 167 817 254 q 633 35 721 81 q 429 -11 546 -11 q 224 32 311 -11 q 90 154 136 75 q 43 339 43 233 q 92 545 43 458 q 228 678 140 632 q 432 725 317 725 q 517 717 458 725 q 579 711 567 711 q 689 853 678 711 l 690 883 l 904 883 m 425 175 q 534 233 500 175 q 568 381 568 290 q 535 498 568 460 q 436 536 503 536 q 326 479 360 536 q 292 335 292 422 q 324 214 292 253 q 425 175 357 175 m 194 1085 l 419 1085 l 540 796 l 388 796 l 194 1085 z "},"ở":{"ha":858,"x_min":43,"x_max":904,"o":"m 904 883 l 899 824 q 851 682 893 742 q 740 601 808 622 q 817 375 817 508 q 769 167 817 254 q 633 35 721 81 q 429 -11 546 -11 q 224 32 311 -11 q 90 154 136 75 q 43 339 43 233 q 92 545 43 458 q 228 678 140 632 q 432 725 317 725 q 517 717 458 725 q 579 711 567 711 q 689 853 678 711 l 690 883 l 904 883 m 425 175 q 534 233 500 175 q 568 381 568 290 q 535 498 568 460 q 436 536 503 536 q 326 479 360 536 q 292 335 292 422 q 324 214 292 253 q 425 175 357 175 m 525 796 l 406 796 l 408 831 q 425 878 410 860 q 465 915 440 897 q 490 938 482 929 q 497 957 497 947 q 458 985 497 985 q 392 974 422 985 l 367 1065 q 501 1088 432 1088 q 615 1058 575 1088 q 654 986 654 1029 q 635 927 654 949 q 576 879 615 906 q 540 853 553 865 q 526 828 528 842 l 525 796 z "},"ỡ":{"ha":858,"x_min":43,"x_max":904,"o":"m 904 883 l 899 824 q 851 682 893 742 q 740 601 808 622 q 817 375 817 508 q 769 167 817 254 q 633 35 721 81 q 429 -11 546 -11 q 224 32 311 -11 q 90 154 136 75 q 43 339 43 233 q 92 545 43 458 q 228 678 140 632 q 432 725 317 725 q 517 717 458 725 q 579 711 567 711 q 689 853 678 711 l 690 883 l 904 883 m 425 175 q 534 233 500 175 q 568 381 568 290 q 535 498 568 460 q 436 536 503 536 q 326 479 360 536 q 292 335 292 422 q 324 214 292 253 q 425 175 357 175 m 214 832 q 270 1001 221 947 q 385 1054 319 1054 q 440 1044 415 1054 q 499 1014 464 1033 q 572 985 546 985 q 633 1050 622 985 l 736 1050 q 679 881 728 935 q 564 828 631 828 q 510 838 535 828 q 453 868 485 849 q 410 890 426 883 q 378 897 394 897 q 338 883 353 897 q 317 832 322 868 l 214 832 z "},"ő":{"ha":858,"x_min":43,"x_max":817,"o":"m 429 -11 q 224 32 311 -11 q 90 154 136 75 q 43 339 43 233 q 92 545 43 458 q 228 678 140 632 q 433 725 317 725 q 637 681 550 725 q 770 558 724 638 q 817 375 817 479 q 769 167 817 254 q 633 35 721 81 q 429 -11 546 -11 m 425 175 q 534 233 500 175 q 568 381 568 290 q 535 498 568 460 q 436 536 503 536 q 326 479 360 536 q 292 335 292 422 q 324 214 292 253 q 425 175 357 175 m 310 796 l 369 1085 l 547 1085 l 413 796 l 310 796 m 514 796 l 575 1085 l 753 1085 l 618 796 l 514 796 z "},"ȏ":{"ha":858,"x_min":43,"x_max":817,"o":"m 429 -11 q 224 32 311 -11 q 90 154 136 75 q 43 339 43 233 q 92 545 43 458 q 228 678 140 632 q 433 725 317 725 q 637 681 550 725 q 770 558 724 638 q 817 375 817 479 q 769 167 817 254 q 633 35 721 81 q 429 -11 546 -11 m 425 175 q 534 233 500 175 q 568 381 568 290 q 535 498 568 460 q 436 536 503 536 q 326 479 360 536 q 292 335 292 422 q 324 214 292 253 q 425 175 357 175 m 475 1075 q 643 1019 571 1075 q 740 861 715 964 l 628 817 q 558 897 601 871 q 464 924 514 924 q 301 817 372 924 l 196 863 q 300 1019 222 964 q 475 1075 378 1075 z "},"ō":{"ha":858,"x_min":43,"x_max":817,"o":"m 429 -11 q 224 32 311 -11 q 90 154 136 75 q 43 339 43 233 q 92 545 43 458 q 228 678 140 632 q 433 725 317 725 q 637 681 550 725 q 770 558 724 638 q 817 375 817 479 q 769 167 817 254 q 633 35 721 81 q 429 -11 546 -11 m 425 175 q 534 233 500 175 q 568 381 568 290 q 535 498 568 460 q 436 536 503 536 q 326 479 360 536 q 292 335 292 422 q 324 214 292 253 q 425 175 357 175 m 257 1013 l 704 1013 l 692 863 l 244 863 l 257 1013 z "},"ṓ":{"ha":858,"x_min":43,"x_max":817,"o":"m 429 -11 q 224 32 311 -11 q 90 154 136 75 q 43 339 43 233 q 92 545 43 458 q 228 678 140 632 q 433 725 317 725 q 637 681 550 725 q 770 558 724 638 q 817 375 817 479 q 769 167 817 254 q 633 35 721 81 q 429 -11 546 -11 m 425 175 q 534 233 500 175 q 568 381 568 290 q 535 498 568 460 q 436 536 503 536 q 326 479 360 536 q 292 335 292 422 q 324 214 292 253 q 425 175 357 175 m 257 1013 l 704 1013 l 692 863 l 244 863 l 257 1013 m 408 1061 l 561 1350 l 813 1350 l 561 1061 l 408 1061 z "},"ṑ":{"ha":858,"x_min":43,"x_max":817,"o":"m 429 -11 q 224 32 311 -11 q 90 154 136 75 q 43 339 43 233 q 92 545 43 458 q 228 678 140 632 q 433 725 317 725 q 637 681 550 725 q 770 558 724 638 q 817 375 817 479 q 769 167 817 254 q 633 35 721 81 q 429 -11 546 -11 m 425 175 q 534 233 500 175 q 568 381 568 290 q 535 498 568 460 q 436 536 503 536 q 326 479 360 536 q 292 335 292 422 q 324 214 292 253 q 425 175 357 175 m 257 1013 l 704 1013 l 692 863 l 244 863 l 257 1013 m 215 1350 l 440 1350 l 561 1061 l 408 1061 l 215 1350 z "},"ǫ":{"ha":858,"x_min":43,"x_max":817,"o":"m 544 3 q 454 -92 454 -21 q 474 -141 454 -122 q 529 -160 494 -160 q 610 -143 563 -160 l 625 -257 q 485 -286 544 -286 q 347 -242 399 -286 q 296 -129 296 -199 q 356 -7 296 -53 q 126 105 210 13 q 43 339 43 197 q 92 545 43 458 q 228 678 140 632 q 433 725 317 725 q 635 681 549 725 q 769 558 722 638 q 817 375 817 479 q 544 3 817 74 m 425 175 q 534 233 500 175 q 568 381 568 290 q 535 498 568 460 q 436 536 503 536 q 326 479 360 536 q 292 335 292 422 q 324 214 292 253 q 425 175 357 175 z "},"ø":{"ha":858,"x_min":43,"x_max":817,"o":"m 697 643 q 785 528 754 597 q 817 375 817 458 q 769 167 817 254 q 633 35 721 81 q 429 -11 546 -11 q 279 10 346 -11 l 207 -99 l 97 -32 l 164 69 q 74 184 106 115 q 43 339 43 253 q 92 545 43 458 q 228 678 140 632 q 433 725 317 725 q 585 703 514 725 l 656 810 l 763 743 l 697 643 m 288 335 q 294 265 288 297 l 474 535 q 436 538 449 538 q 322 481 356 538 q 288 335 288 425 m 425 174 q 540 231 506 174 q 575 381 575 289 q 568 447 575 417 l 389 176 q 425 174 411 174 z "},"ǿ":{"ha":858,"x_min":43,"x_max":817,"o":"m 697 643 q 785 528 754 597 q 817 375 817 458 q 769 167 817 254 q 633 35 721 81 q 429 -11 546 -11 q 279 10 346 -11 l 207 -99 l 97 -32 l 164 69 q 74 184 106 115 q 43 339 43 253 q 92 545 43 458 q 228 678 140 632 q 433 725 317 725 q 585 703 514 725 l 656 810 l 763 743 l 697 643 m 288 335 q 294 265 288 297 l 474 535 q 436 538 449 538 q 322 481 356 538 q 288 335 288 425 m 425 174 q 540 231 506 174 q 575 381 575 289 q 568 447 575 417 l 389 176 q 425 174 411 174 m 388 796 l 540 1085 l 792 1085 l 540 796 l 388 796 z "},"õ":{"ha":858,"x_min":43,"x_max":817,"o":"m 429 -11 q 224 32 311 -11 q 90 154 136 75 q 43 339 43 233 q 92 545 43 458 q 228 678 140 632 q 433 725 317 725 q 637 681 550 725 q 770 558 724 638 q 817 375 817 479 q 769 167 817 254 q 633 35 721 81 q 429 -11 546 -11 m 425 175 q 534 233 500 175 q 568 381 568 290 q 535 498 568 460 q 436 536 503 536 q 326 479 360 536 q 292 335 292 422 q 324 214 292 253 q 425 175 357 175 m 214 832 q 270 1001 221 947 q 385 1054 319 1054 q 440 1044 415 1054 q 499 1014 464 1033 q 572 985 546 985 q 633 1050 622 985 l 736 1050 q 679 881 728 935 q 564 828 631 828 q 510 838 535 828 q 453 868 485 849 q 410 890 426 883 q 378 897 394 897 q 338 883 353 897 q 317 832 322 868 l 214 832 z "},"ṍ":{"ha":858,"x_min":43,"x_max":817,"o":"m 429 -11 q 224 32 311 -11 q 90 154 136 75 q 43 339 43 233 q 92 545 43 458 q 228 678 140 632 q 433 725 317 725 q 637 681 550 725 q 770 558 724 638 q 817 375 817 479 q 769 167 817 254 q 633 35 721 81 q 429 -11 546 -11 m 425 175 q 534 233 500 175 q 568 381 568 290 q 535 498 568 460 q 436 536 503 536 q 326 479 360 536 q 292 335 292 422 q 324 214 292 253 q 425 175 357 175 m 214 832 q 270 1001 221 947 q 385 1054 319 1054 q 440 1044 415 1054 q 499 1014 464 1033 q 572 985 546 985 q 633 1050 622 985 l 736 1050 q 679 881 728 935 q 564 828 631 828 q 510 838 535 828 q 453 868 485 849 q 410 890 426 883 q 378 897 394 897 q 338 883 353 897 q 317 832 322 868 l 214 832 m 408 1061 l 561 1350 l 813 1350 l 561 1061 l 408 1061 z "},"ṏ":{"ha":858,"x_min":43,"x_max":817,"o":"m 429 -11 q 224 32 311 -11 q 90 154 136 75 q 43 339 43 233 q 92 545 43 458 q 228 678 140 632 q 433 725 317 725 q 637 681 550 725 q 770 558 724 638 q 817 375 817 479 q 769 167 817 254 q 633 35 721 81 q 429 -11 546 -11 m 425 175 q 534 233 500 175 q 568 381 568 290 q 535 498 568 460 q 436 536 503 536 q 326 479 360 536 q 292 335 292 422 q 324 214 292 253 q 425 175 357 175 m 214 832 q 270 1001 221 947 q 385 1054 319 1054 q 440 1044 415 1054 q 499 1014 464 1033 q 572 985 546 985 q 633 1050 622 985 l 736 1050 q 679 881 728 935 q 564 828 631 828 q 510 838 535 828 q 453 868 485 849 q 410 890 426 883 q 378 897 394 897 q 338 883 353 897 q 317 832 322 868 l 214 832 m 476 1308 l 460 1097 l 235 1097 l 253 1308 l 476 1308 m 756 1308 l 736 1097 l 514 1097 l 532 1308 l 756 1308 z "},"ȭ":{"ha":858,"x_min":43,"x_max":817,"o":"m 429 -11 q 224 32 311 -11 q 90 154 136 75 q 43 339 43 233 q 92 545 43 458 q 228 678 140 632 q 433 725 317 725 q 637 681 550 725 q 770 558 724 638 q 817 375 817 479 q 769 167 817 254 q 633 35 721 81 q 429 -11 546 -11 m 425 175 q 534 233 500 175 q 568 381 568 290 q 535 498 568 460 q 436 536 503 536 q 326 479 360 536 q 292 335 292 422 q 324 214 292 253 q 425 175 357 175 m 214 832 q 270 1001 221 947 q 385 1054 319 1054 q 440 1044 415 1054 q 499 1014 464 1033 q 572 985 546 985 q 633 1050 622 985 l 736 1050 q 679 881 728 935 q 564 828 631 828 q 510 838 535 828 q 453 868 485 849 q 410 890 426 883 q 378 897 394 897 q 338 883 353 897 q 317 832 322 868 l 214 832 m 278 1278 l 725 1278 l 713 1128 l 265 1128 l 278 1278 z "},"œ":{"ha":1289,"x_min":43,"x_max":1243,"o":"m 940 725 q 1097 685 1029 725 q 1204 568 1165 646 q 1243 381 1243 490 q 1239 304 1243 344 l 814 304 q 968 174 831 174 q 1160 239 1067 174 l 1211 74 q 1094 11 1164 33 q 947 -11 1024 -11 q 798 17 864 -11 q 688 97 732 46 q 414 -11 594 -11 q 219 33 303 -11 q 89 156 135 76 q 43 339 43 235 q 91 544 43 457 q 225 678 139 632 q 424 725 311 725 q 699 624 606 725 q 940 725 792 725 m 943 553 q 860 522 892 553 q 817 424 828 492 l 1038 424 q 1009 521 1035 489 q 943 553 983 553 m 425 175 q 530 233 497 175 q 563 381 563 292 q 436 536 563 536 q 326 479 360 536 q 292 335 292 422 q 324 214 292 253 q 425 175 357 175 z "},"p":{"ha":896,"x_min":24,"x_max":854,"o":"m 553 725 q 710 684 642 725 q 817 566 779 643 q 854 385 854 489 q 811 179 854 269 q 691 39 768 89 q 514 -11 614 -11 q 306 83 382 -11 l 275 -300 l 24 -300 l 88 503 q 93 638 93 563 q 92 706 93 683 l 329 706 l 332 610 q 422 694 365 664 q 553 725 479 725 m 458 175 q 565 226 528 175 q 603 365 603 276 q 568 492 603 449 q 465 536 533 536 q 362 485 400 536 q 324 349 324 433 q 358 219 324 263 q 458 175 393 175 z "},"þ":{"ha":896,"x_min":24,"x_max":856,"o":"m 556 725 q 713 684 644 725 q 818 566 781 643 q 856 385 856 489 q 813 179 856 269 q 692 39 769 89 q 515 -11 615 -11 q 307 85 381 -11 l 275 -300 l 24 -300 l 128 1011 l 379 1011 l 350 632 q 438 700 385 675 q 556 725 490 725 m 460 175 q 567 226 529 175 q 606 365 606 276 q 570 492 606 449 q 467 536 535 536 q 363 485 401 536 q 325 349 325 433 q 360 219 325 263 q 460 175 394 175 z "},"q":{"ha":893,"x_min":43,"x_max":860,"o":"m 860 706 q 832 503 842 618 l 768 -300 l 517 -300 l 546 75 q 460 11 511 33 q 344 -11 408 -11 q 188 30 256 -11 q 81 147 119 71 q 43 328 43 224 q 86 533 43 443 q 206 674 129 624 q 382 725 283 725 q 603 613 524 725 l 622 706 l 860 706 m 432 175 q 534 226 496 175 q 572 361 572 278 q 538 492 572 449 q 438 536 503 536 q 331 485 369 536 q 293 344 293 433 q 329 219 293 263 q 432 175 365 175 z "},"r":{"ha":597,"x_min":47,"x_max":629,"o":"m 549 722 q 629 707 601 722 l 613 478 q 496 506 557 506 q 376 471 419 506 q 326 354 333 436 l 299 0 l 47 0 l 88 503 q 93 649 93 600 q 92 706 93 688 l 329 706 l 333 606 q 422 691 363 660 q 549 722 481 722 z "},"ŕ":{"ha":597,"x_min":47,"x_max":708,"o":"m 549 722 q 629 707 601 722 l 613 478 q 496 506 557 506 q 376 471 419 506 q 326 354 333 436 l 299 0 l 47 0 l 88 503 q 93 649 93 600 q 92 706 93 688 l 329 706 l 333 606 q 422 691 363 660 q 549 722 481 722 m 304 796 l 457 1085 l 708 1085 l 457 796 l 304 796 z "},"ř":{"ha":597,"x_min":47,"x_max":665,"o":"m 549 722 q 629 707 601 722 l 613 478 q 496 506 557 506 q 376 471 419 506 q 326 354 333 436 l 299 0 l 47 0 l 88 503 q 93 649 93 600 q 92 706 93 688 l 329 706 l 333 606 q 422 691 363 660 q 549 722 481 722 m 665 1085 l 453 796 l 307 796 l 140 1085 l 324 1085 l 392 936 l 471 1085 l 665 1085 z "},"ŗ":{"ha":597,"x_min":32,"x_max":629,"o":"m 549 722 q 629 707 601 722 l 613 478 q 496 506 557 506 q 376 471 419 506 q 326 354 333 436 l 299 0 l 47 0 l 88 503 q 93 649 93 600 q 92 706 93 688 l 329 706 l 333 606 q 422 691 363 660 q 549 722 481 722 m 286 -89 l 279 -182 q 249 -302 272 -253 q 171 -394 225 -351 l 90 -336 q 143 -267 131 -304 l 32 -267 l 46 -89 l 286 -89 z "},"ȑ":{"ha":597,"x_min":47,"x_max":629,"o":"m 549 722 q 629 707 601 722 l 613 478 q 496 506 557 506 q 376 471 419 506 q 326 354 333 436 l 299 0 l 47 0 l 88 503 q 93 649 93 600 q 92 706 93 688 l 329 706 l 333 606 q 422 691 363 660 q 549 722 481 722 m 143 1085 l 308 1085 l 329 796 l 226 796 l 143 1085 m 349 1085 l 514 1085 l 535 796 l 431 796 l 349 1085 z "},"ṛ":{"ha":597,"x_min":39,"x_max":629,"o":"m 549 722 q 629 707 601 722 l 613 478 q 496 506 557 506 q 376 471 419 506 q 326 354 333 436 l 299 0 l 47 0 l 88 503 q 93 649 93 600 q 92 706 93 688 l 329 706 l 333 606 q 422 691 363 660 q 549 722 481 722 m 279 -79 l 261 -289 l 39 -289 l 58 -79 l 279 -79 z "},"ȓ":{"ha":597,"x_min":47,"x_max":657,"o":"m 549 722 q 629 707 601 722 l 613 478 q 496 506 557 506 q 376 471 419 506 q 326 354 333 436 l 299 0 l 47 0 l 88 503 q 93 649 93 600 q 92 706 93 688 l 329 706 l 333 606 q 422 691 363 660 q 549 722 481 722 m 392 1075 q 560 1019 488 1075 q 657 861 632 964 l 544 817 q 474 897 518 871 q 381 924 431 924 q 218 817 289 924 l 113 863 q 217 1019 139 964 q 392 1075 294 1075 z "},"ṟ":{"ha":597,"x_min":-69,"x_max":629,"o":"m 549 722 q 629 707 601 722 l 613 478 q 496 506 557 506 q 376 471 419 506 q 326 354 333 436 l 299 0 l 47 0 l 88 503 q 93 649 93 600 q 92 706 93 688 l 329 706 l 333 606 q 422 691 363 660 q 549 722 481 722 m -58 -114 l 389 -114 l 378 -254 l -69 -254 l -58 -114 z "},"s":{"ha":704,"x_min":4,"x_max":678,"o":"m 344 -11 q 167 9 249 -11 q 4 74 85 29 l 83 244 q 213 184 142 206 q 350 163 283 163 q 417 174 396 163 q 439 204 439 186 q 409 242 439 228 q 315 272 379 256 q 187 315 238 293 q 99 378 136 336 q 61 488 61 419 q 101 611 61 557 q 215 695 142 665 q 382 725 288 725 q 542 702 463 725 q 678 640 622 679 l 601 474 q 489 529 547 510 q 376 549 431 549 q 307 537 331 549 q 283 507 283 525 q 314 467 283 482 q 410 435 344 453 q 535 392 485 414 q 623 328 586 371 q 660 219 660 286 q 576 49 660 110 q 344 -11 492 -11 z "},"ś":{"ha":704,"x_min":4,"x_max":728,"o":"m 344 -11 q 167 9 249 -11 q 4 74 85 29 l 83 244 q 213 184 142 206 q 350 163 283 163 q 417 174 396 163 q 439 204 439 186 q 409 242 439 228 q 315 272 379 256 q 187 315 238 293 q 99 378 136 336 q 61 488 61 419 q 101 611 61 557 q 215 695 142 665 q 382 725 288 725 q 542 702 463 725 q 678 640 622 679 l 601 474 q 489 529 547 510 q 376 549 431 549 q 307 537 331 549 q 283 507 283 525 q 314 467 283 482 q 410 435 344 453 q 535 392 485 414 q 623 328 586 371 q 660 219 660 286 q 576 49 660 110 q 344 -11 492 -11 m 324 796 l 476 1085 l 728 1085 l 476 796 l 324 796 z "},"ṥ":{"ha":704,"x_min":4,"x_max":754,"o":"m 344 -11 q 167 9 249 -11 q 4 74 85 29 l 83 244 q 213 184 142 206 q 350 163 283 163 q 417 174 396 163 q 439 204 439 186 q 409 242 439 228 q 315 272 379 256 q 187 315 238 293 q 99 378 136 336 q 61 488 61 419 q 101 611 61 557 q 215 695 142 665 q 382 725 288 725 q 542 702 463 725 q 678 640 622 679 l 601 474 q 489 529 547 510 q 376 549 431 549 q 307 537 331 549 q 283 507 283 525 q 314 467 283 482 q 410 435 344 453 q 535 392 485 414 q 623 328 586 371 q 660 219 660 286 q 576 49 660 110 q 344 -11 492 -11 m 350 781 l 503 1069 l 754 1069 l 503 781 l 350 781 m 397 1068 l 379 842 l 117 842 l 133 1068 l 397 1068 z "},"š":{"ha":704,"x_min":4,"x_max":685,"o":"m 344 -11 q 167 9 249 -11 q 4 74 85 29 l 83 244 q 213 184 142 206 q 350 163 283 163 q 417 174 396 163 q 439 204 439 186 q 409 242 439 228 q 315 272 379 256 q 187 315 238 293 q 99 378 136 336 q 61 488 61 419 q 101 611 61 557 q 215 695 142 665 q 382 725 288 725 q 542 702 463 725 q 678 640 622 679 l 601 474 q 489 529 547 510 q 376 549 431 549 q 307 537 331 549 q 283 507 283 525 q 314 467 283 482 q 410 435 344 453 q 535 392 485 414 q 623 328 586 371 q 660 219 660 286 q 576 49 660 110 q 344 -11 492 -11 m 685 1085 l 472 796 l 326 796 l 160 1085 l 343 1085 l 411 936 l 490 1085 l 685 1085 z "},"ṧ":{"ha":704,"x_min":4,"x_max":685,"o":"m 344 -11 q 167 9 249 -11 q 4 74 85 29 l 83 244 q 213 184 142 206 q 350 163 283 163 q 417 174 396 163 q 439 204 439 186 q 409 242 439 228 q 315 272 379 256 q 187 315 238 293 q 99 378 136 336 q 61 488 61 419 q 101 611 61 557 q 215 695 142 665 q 382 725 288 725 q 542 702 463 725 q 678 640 622 679 l 601 474 q 489 529 547 510 q 376 549 431 549 q 307 537 331 549 q 283 507 283 525 q 314 467 283 482 q 410 435 344 453 q 535 392 485 414 q 623 328 586 371 q 660 219 660 286 q 576 49 660 110 q 344 -11 492 -11 m 685 1085 l 472 796 l 326 796 l 160 1085 l 343 1085 l 411 936 l 490 1085 l 685 1085 m 572 1317 l 554 1090 l 292 1090 l 308 1317 l 572 1317 z "},"ş":{"ha":704,"x_min":4,"x_max":678,"o":"m 283 507 q 314 467 283 482 q 410 435 344 453 q 535 392 485 414 q 623 328 586 371 q 660 219 660 286 q 584 56 660 115 q 374 -11 508 -4 l 364 -56 l 367 -56 q 452 -81 419 -56 q 485 -151 485 -107 q 433 -242 485 -206 q 290 -278 382 -278 q 212 -272 251 -278 q 144 -254 172 -265 l 167 -164 q 283 -183 233 -183 q 336 -153 336 -183 q 296 -129 336 -129 q 250 -136 282 -129 l 225 -106 l 247 -6 q 4 74 119 11 l 83 244 q 213 184 142 206 q 350 163 283 163 q 417 174 396 163 q 439 204 439 186 q 409 242 439 228 q 315 272 379 256 q 187 315 238 293 q 99 378 136 336 q 61 488 61 419 q 101 611 61 557 q 215 695 142 665 q 382 725 288 725 q 542 702 463 725 q 678 640 622 679 l 601 474 q 489 529 547 510 q 376 549 431 549 q 307 537 331 549 q 283 507 283 525 z "},"ŝ":{"ha":704,"x_min":4,"x_max":678,"o":"m 344 -11 q 167 9 249 -11 q 4 74 85 29 l 83 244 q 213 184 142 206 q 350 163 283 163 q 417 174 396 163 q 439 204 439 186 q 409 242 439 228 q 315 272 379 256 q 187 315 238 293 q 99 378 136 336 q 61 488 61 419 q 101 611 61 557 q 215 695 142 665 q 382 725 288 725 q 542 702 463 725 q 678 640 622 679 l 601 474 q 489 529 547 510 q 376 549 431 549 q 307 537 331 549 q 283 507 283 525 q 314 467 283 482 q 410 435 344 453 q 535 392 485 414 q 623 328 586 371 q 660 219 660 286 q 576 49 660 110 q 344 -11 492 -11 m 138 796 l 349 1085 l 494 1085 l 663 796 l 478 796 l 411 943 l 331 796 l 138 796 z "},"ș":{"ha":704,"x_min":4,"x_max":678,"o":"m 344 -11 q 167 9 249 -11 q 4 74 85 29 l 83 244 q 213 184 142 206 q 350 163 283 163 q 417 174 396 163 q 439 204 439 186 q 409 242 439 228 q 315 272 379 256 q 187 315 238 293 q 99 378 136 336 q 61 488 61 419 q 101 611 61 557 q 215 695 142 665 q 382 725 288 725 q 542 702 463 725 q 678 640 622 679 l 601 474 q 489 529 547 510 q 376 549 431 549 q 307 537 331 549 q 283 507 283 525 q 314 467 283 482 q 410 435 344 453 q 535 392 485 414 q 623 328 586 371 q 660 219 660 286 q 576 49 660 110 q 344 -11 492 -11 m 438 -89 l 431 -182 q 400 -302 424 -253 q 322 -394 376 -351 l 242 -336 q 294 -267 282 -304 l 183 -267 l 197 -89 l 438 -89 z "},"ṡ":{"ha":704,"x_min":4,"x_max":678,"o":"m 344 -11 q 167 9 249 -11 q 4 74 85 29 l 83 244 q 213 184 142 206 q 350 163 283 163 q 417 174 396 163 q 439 204 439 186 q 409 242 439 228 q 315 272 379 256 q 187 315 238 293 q 99 378 136 336 q 61 488 61 419 q 101 611 61 557 q 215 695 142 665 q 382 725 288 725 q 542 702 463 725 q 678 640 622 679 l 601 474 q 489 529 547 510 q 376 549 431 549 q 307 537 331 549 q 283 507 283 525 q 314 467 283 482 q 410 435 344 453 q 535 392 485 414 q 623 328 586 371 q 660 219 660 286 q 576 49 660 110 q 344 -11 492 -11 m 551 1051 l 533 825 l 271 825 l 288 1051 l 551 1051 z "},"ṣ":{"ha":704,"x_min":4,"x_max":678,"o":"m 344 -11 q 167 9 249 -11 q 4 74 85 29 l 83 244 q 213 184 142 206 q 350 163 283 163 q 417 174 396 163 q 439 204 439 186 q 409 242 439 228 q 315 272 379 256 q 187 315 238 293 q 99 378 136 336 q 61 488 61 419 q 101 611 61 557 q 215 695 142 665 q 382 725 288 725 q 542 702 463 725 q 678 640 622 679 l 601 474 q 489 529 547 510 q 376 549 431 549 q 307 537 331 549 q 283 507 283 525 q 314 467 283 482 q 410 435 344 453 q 535 392 485 414 q 623 328 586 371 q 660 219 660 286 q 576 49 660 110 q 344 -11 492 -11 m 431 -79 l 413 -289 l 190 -289 l 210 -79 l 431 -79 z "},"ṩ":{"ha":704,"x_min":4,"x_max":678,"o":"m 344 -11 q 167 9 249 -11 q 4 74 85 29 l 83 244 q 213 184 142 206 q 350 163 283 163 q 417 174 396 163 q 439 204 439 186 q 409 242 439 228 q 315 272 379 256 q 187 315 238 293 q 99 378 136 336 q 61 488 61 419 q 101 611 61 557 q 215 695 142 665 q 382 725 288 725 q 542 702 463 725 q 678 640 622 679 l 601 474 q 489 529 547 510 q 376 549 431 549 q 307 537 331 549 q 283 507 283 525 q 314 467 283 482 q 410 435 344 453 q 535 392 485 414 q 623 328 586 371 q 660 219 660 286 q 576 49 660 110 q 344 -11 492 -11 m 431 -79 l 413 -289 l 190 -289 l 210 -79 l 431 -79 m 551 1051 l 533 825 l 271 825 l 288 1051 l 551 1051 z "},"ß":{"ha":1008,"x_min":49,"x_max":976,"o":"m 707 519 q 911 423 846 489 q 976 254 976 357 q 935 117 976 178 q 818 23 893 57 q 647 -11 743 -11 q 494 10 569 -11 q 358 74 418 32 l 438 244 q 554 189 494 210 q 656 168 614 168 q 723 188 699 168 q 747 244 747 207 q 678 338 747 297 q 454 417 608 379 l 469 599 q 619 658 578 622 q 661 754 661 694 q 626 831 661 804 q 532 858 590 858 q 405 811 449 858 q 354 660 361 764 l 300 0 l 49 0 l 97 622 q 223 932 114 828 q 539 1036 332 1036 q 799 969 701 1036 q 896 781 896 903 q 851 627 896 692 q 707 519 807 563 z "},"t":{"ha":578,"x_min":18,"x_max":586,"o":"m 383 293 q 408 217 381 243 q 479 192 435 192 q 549 201 506 192 l 532 10 q 399 -11 481 -11 q 199 59 267 -11 q 131 256 131 129 q 132 293 131 281 l 150 519 l 18 519 l 33 706 l 165 706 l 178 865 l 436 946 l 417 706 l 586 706 l 572 519 l 401 519 l 383 293 z "},"ŧ":{"ha":592,"x_min":26,"x_max":593,"o":"m 410 519 l 406 485 l 547 485 l 535 311 l 392 311 l 390 293 q 414 217 386 243 q 488 192 442 192 q 556 201 517 192 l 539 10 q 406 -11 488 -11 q 206 59 274 -11 q 138 256 138 129 q 139 293 138 281 l 140 311 l 39 311 l 51 485 l 154 485 l 157 519 l 26 519 l 40 706 l 172 706 l 185 865 l 444 946 l 425 706 l 593 706 l 579 519 l 410 519 z "},"ť":{"ha":578,"x_min":18,"x_max":688,"o":"m 688 992 l 614 744 l 472 744 l 499 992 l 688 992 m 417 706 l 586 706 l 572 519 l 401 519 l 383 293 q 408 217 381 243 q 479 192 435 192 q 549 201 506 192 l 532 10 q 399 -11 481 -11 q 199 59 267 -11 q 131 256 131 129 q 132 293 131 281 l 150 519 l 18 519 l 33 706 l 165 706 l 178 865 l 436 946 l 417 706 z "},"ţ":{"ha":578,"x_min":18,"x_max":586,"o":"m 383 293 q 408 217 381 243 q 479 192 435 192 q 549 201 506 192 l 532 10 q 399 -11 481 -11 l 383 -11 l 374 -56 l 376 -56 q 462 -81 429 -56 q 494 -151 494 -107 q 443 -242 494 -206 q 300 -278 392 -278 q 222 -272 261 -278 q 154 -254 182 -265 l 176 -164 q 293 -183 243 -183 q 346 -153 346 -183 q 306 -129 346 -129 q 260 -136 290 -129 l 235 -106 l 261 15 q 163 107 196 46 q 131 256 131 168 q 132 293 131 281 l 150 519 l 18 519 l 33 706 l 165 706 l 178 865 l 436 946 l 417 706 l 586 706 l 572 519 l 401 519 l 383 293 z "},"ț":{"ha":578,"x_min":18,"x_max":586,"o":"m 383 293 q 408 217 381 243 q 479 192 435 192 q 549 201 506 192 l 532 10 q 399 -11 481 -11 q 199 59 267 -11 q 131 256 131 129 q 132 293 131 281 l 150 519 l 18 519 l 33 706 l 165 706 l 178 865 l 436 946 l 417 706 l 586 706 l 572 519 l 401 519 l 383 293 m 447 -89 l 440 -182 q 410 -302 433 -253 q 332 -394 386 -351 l 251 -336 q 304 -267 292 -304 l 193 -267 l 207 -89 l 447 -89 z "},"ẗ":{"ha":578,"x_min":18,"x_max":586,"o":"m 383 293 q 408 217 381 243 q 479 192 435 192 q 549 201 506 192 l 532 10 q 399 -11 481 -11 q 199 59 267 -11 q 131 256 131 129 q 132 293 131 281 l 150 519 l 18 519 l 33 706 l 165 706 l 178 865 l 436 946 l 417 706 l 586 706 l 572 519 l 401 519 l 383 293 m 304 1211 l 288 1001 l 63 1001 l 81 1211 l 304 1211 m 583 1211 l 565 1001 l 342 1001 l 360 1211 l 583 1211 z "},"ṭ":{"ha":578,"x_min":18,"x_max":586,"o":"m 383 293 q 408 217 381 243 q 479 192 435 192 q 549 201 506 192 l 532 10 q 399 -11 481 -11 q 199 59 267 -11 q 131 256 131 129 q 132 293 131 281 l 150 519 l 18 519 l 33 706 l 165 706 l 178 865 l 436 946 l 417 706 l 586 706 l 572 519 l 401 519 l 383 293 m 440 -79 l 422 -289 l 200 -289 l 219 -79 l 440 -79 z "},"ṯ":{"ha":578,"x_min":18,"x_max":586,"o":"m 383 293 q 408 217 381 243 q 479 192 435 192 q 549 201 506 192 l 532 10 q 399 -11 481 -11 q 199 59 267 -11 q 131 256 131 129 q 132 293 131 281 l 150 519 l 18 519 l 33 706 l 165 706 l 178 865 l 436 946 l 417 706 l 586 706 l 572 519 l 401 519 l 383 293 m 103 -114 l 550 -114 l 539 -254 l 92 -254 l 103 -114 z "},"u":{"ha":860,"x_min":65,"x_max":813,"o":"m 813 706 l 757 0 l 511 0 l 518 79 q 425 13 482 36 q 300 -11 368 -11 q 125 53 185 -11 q 65 240 65 117 q 68 293 65 257 l 99 706 l 353 706 l 319 308 q 338 215 315 247 q 410 182 360 182 q 493 219 463 182 q 528 319 524 256 l 561 706 l 813 706 z "},"ú":{"ha":860,"x_min":65,"x_max":813,"o":"m 813 706 l 757 0 l 511 0 l 518 79 q 425 13 482 36 q 300 -11 368 -11 q 125 53 185 -11 q 65 240 65 117 q 68 293 65 257 l 99 706 l 353 706 l 319 308 q 338 215 315 247 q 410 182 360 182 q 493 219 463 182 q 528 319 524 256 l 561 706 l 813 706 m 386 796 l 539 1085 l 790 1085 l 539 796 l 386 796 z "},"ŭ":{"ha":860,"x_min":65,"x_max":813,"o":"m 813 706 l 757 0 l 511 0 l 518 79 q 425 13 482 36 q 300 -11 368 -11 q 125 53 185 -11 q 65 240 65 117 q 68 293 65 257 l 99 706 l 353 706 l 319 308 q 338 215 315 247 q 410 182 360 182 q 493 219 463 182 q 528 319 524 256 l 561 706 l 813 706 m 474 824 q 305 879 378 824 q 208 1036 232 935 l 321 1083 q 391 1002 349 1028 q 485 976 433 976 q 647 1083 579 976 l 754 1036 q 649 878 726 933 q 474 824 571 824 z "},"û":{"ha":860,"x_min":65,"x_max":813,"o":"m 813 706 l 757 0 l 511 0 l 518 79 q 425 13 482 36 q 300 -11 368 -11 q 125 53 185 -11 q 65 240 65 117 q 68 293 65 257 l 99 706 l 353 706 l 319 308 q 338 215 315 247 q 410 182 360 182 q 493 219 463 182 q 528 319 524 256 l 561 706 l 813 706 m 200 796 l 411 1085 l 557 1085 l 725 796 l 540 796 l 474 943 l 393 796 l 200 796 z "},"ȕ":{"ha":860,"x_min":65,"x_max":813,"o":"m 813 706 l 757 0 l 511 0 l 518 79 q 425 13 482 36 q 300 -11 368 -11 q 125 53 185 -11 q 65 240 65 117 q 68 293 65 257 l 99 706 l 353 706 l 319 308 q 338 215 315 247 q 410 182 360 182 q 493 219 463 182 q 528 319 524 256 l 561 706 l 813 706 m 225 1085 l 390 1085 l 411 796 l 308 796 l 225 1085 m 431 1085 l 596 1085 l 617 796 l 513 796 l 431 1085 z "},"ü":{"ha":860,"x_min":65,"x_max":813,"o":"m 813 706 l 757 0 l 511 0 l 518 79 q 425 13 482 36 q 300 -11 368 -11 q 125 53 185 -11 q 65 240 65 117 q 68 293 65 257 l 99 706 l 353 706 l 319 308 q 338 215 315 247 q 410 182 360 182 q 493 219 463 182 q 528 319 524 256 l 561 706 l 813 706 m 454 1043 l 438 832 l 213 832 l 231 1043 l 454 1043 m 733 1043 l 714 832 l 492 832 l 510 1043 l 733 1043 z "},"ụ":{"ha":860,"x_min":65,"x_max":813,"o":"m 813 706 l 757 0 l 511 0 l 518 79 q 425 13 482 36 q 300 -11 368 -11 q 125 53 185 -11 q 65 240 65 117 q 68 293 65 257 l 99 706 l 353 706 l 319 308 q 338 215 315 247 q 410 182 360 182 q 493 219 463 182 q 528 319 524 256 l 561 706 l 813 706 m 507 -79 l 489 -289 l 267 -289 l 286 -79 l 507 -79 z "},"ù":{"ha":860,"x_min":65,"x_max":813,"o":"m 813 706 l 757 0 l 511 0 l 518 79 q 425 13 482 36 q 300 -11 368 -11 q 125 53 185 -11 q 65 240 65 117 q 68 293 65 257 l 99 706 l 353 706 l 319 308 q 338 215 315 247 q 410 182 360 182 q 493 219 463 182 q 528 319 524 256 l 561 706 l 813 706 m 193 1085 l 418 1085 l 539 796 l 386 796 l 193 1085 z "},"ủ":{"ha":860,"x_min":65,"x_max":813,"o":"m 813 706 l 757 0 l 511 0 l 518 79 q 425 13 482 36 q 300 -11 368 -11 q 125 53 185 -11 q 65 240 65 117 q 68 293 65 257 l 99 706 l 353 706 l 319 308 q 338 215 315 247 q 410 182 360 182 q 493 219 463 182 q 528 319 524 256 l 561 706 l 813 706 m 524 796 l 404 796 l 407 831 q 424 878 408 860 q 464 915 439 897 q 488 938 481 929 q 496 957 496 947 q 457 985 496 985 q 390 974 421 985 l 365 1065 q 500 1088 431 1088 q 613 1058 574 1088 q 653 986 653 1029 q 633 927 653 949 q 575 879 614 906 q 539 853 551 865 q 525 828 526 842 l 524 796 z "},"ư":{"ha":900,"x_min":65,"x_max":985,"o":"m 985 883 l 981 824 q 926 683 975 743 q 804 603 878 622 l 757 0 l 511 0 l 518 79 q 425 13 482 36 q 300 -11 368 -11 q 125 53 185 -11 q 65 240 65 117 q 68 293 65 257 l 99 706 l 353 706 l 319 308 q 338 215 315 247 q 410 182 360 182 q 493 219 463 182 q 528 319 524 256 l 561 706 l 632 706 q 733 739 701 706 q 768 853 765 772 l 769 883 l 985 883 z "},"ứ":{"ha":900,"x_min":65,"x_max":985,"o":"m 985 883 l 981 824 q 926 683 975 743 q 804 603 878 622 l 757 0 l 511 0 l 518 79 q 425 13 482 36 q 300 -11 368 -11 q 125 53 185 -11 q 65 240 65 117 q 68 293 65 257 l 99 706 l 353 706 l 319 308 q 338 215 315 247 q 410 182 360 182 q 493 219 463 182 q 528 319 524 256 l 561 706 l 632 706 q 733 739 701 706 q 768 853 765 772 l 769 883 l 985 883 m 389 796 l 542 1085 l 793 1085 l 542 796 l 389 796 z "},"ự":{"ha":900,"x_min":65,"x_max":985,"o":"m 985 883 l 981 824 q 926 683 975 743 q 804 603 878 622 l 757 0 l 511 0 l 518 79 q 425 13 482 36 q 300 -11 368 -11 q 125 53 185 -11 q 65 240 65 117 q 68 293 65 257 l 99 706 l 353 706 l 319 308 q 338 215 315 247 q 410 182 360 182 q 493 219 463 182 q 528 319 524 256 l 561 706 l 632 706 q 733 739 701 706 q 768 853 765 772 l 769 883 l 985 883 m 508 -79 l 490 -289 l 268 -289 l 288 -79 l 508 -79 z "},"ừ":{"ha":900,"x_min":65,"x_max":985,"o":"m 985 883 l 981 824 q 926 683 975 743 q 804 603 878 622 l 757 0 l 511 0 l 518 79 q 425 13 482 36 q 300 -11 368 -11 q 125 53 185 -11 q 65 240 65 117 q 68 293 65 257 l 99 706 l 353 706 l 319 308 q 338 215 315 247 q 410 182 360 182 q 493 219 463 182 q 528 319 524 256 l 561 706 l 632 706 q 733 739 701 706 q 768 853 765 772 l 769 883 l 985 883 m 196 1085 l 421 1085 l 542 796 l 389 796 l 196 1085 z "},"ử":{"ha":900,"x_min":65,"x_max":985,"o":"m 985 883 l 981 824 q 926 683 975 743 q 804 603 878 622 l 757 0 l 511 0 l 518 79 q 425 13 482 36 q 300 -11 368 -11 q 125 53 185 -11 q 65 240 65 117 q 68 293 65 257 l 99 706 l 353 706 l 319 308 q 338 215 315 247 q 410 182 360 182 q 493 219 463 182 q 528 319 524 256 l 561 706 l 632 706 q 733 739 701 706 q 768 853 765 772 l 769 883 l 985 883 m 526 796 l 407 796 l 410 831 q 426 878 411 860 q 467 915 442 897 q 491 938 483 929 q 499 957 499 947 q 460 985 499 985 q 393 974 424 985 l 368 1065 q 503 1088 433 1088 q 616 1058 576 1088 q 656 986 656 1029 q 636 927 656 949 q 578 879 617 906 q 542 853 554 865 q 528 828 529 842 l 526 796 z "},"ữ":{"ha":900,"x_min":65,"x_max":985,"o":"m 985 883 l 981 824 q 926 683 975 743 q 804 603 878 622 l 757 0 l 511 0 l 518 79 q 425 13 482 36 q 300 -11 368 -11 q 125 53 185 -11 q 65 240 65 117 q 68 293 65 257 l 99 706 l 353 706 l 319 308 q 338 215 315 247 q 410 182 360 182 q 493 219 463 182 q 528 319 524 256 l 561 706 l 632 706 q 733 739 701 706 q 768 853 765 772 l 769 883 l 985 883 m 215 832 q 272 1001 222 947 q 386 1054 321 1054 q 441 1044 417 1054 q 500 1014 465 1033 q 574 985 547 985 q 635 1050 624 985 l 738 1050 q 681 881 729 935 q 565 828 632 828 q 511 838 536 828 q 454 868 486 849 q 412 890 428 883 q 379 897 396 897 q 339 883 354 897 q 318 832 324 868 l 215 832 z "},"ű":{"ha":860,"x_min":65,"x_max":813,"o":"m 813 706 l 757 0 l 511 0 l 518 79 q 425 13 482 36 q 300 -11 368 -11 q 125 53 185 -11 q 65 240 65 117 q 68 293 65 257 l 99 706 l 353 706 l 319 308 q 338 215 315 247 q 410 182 360 182 q 493 219 463 182 q 528 319 524 256 l 561 706 l 813 706 m 308 796 l 368 1085 l 546 1085 l 411 796 l 308 796 m 513 796 l 574 1085 l 751 1085 l 617 796 l 513 796 z "},"ȗ":{"ha":860,"x_min":65,"x_max":813,"o":"m 813 706 l 757 0 l 511 0 l 518 79 q 425 13 482 36 q 300 -11 368 -11 q 125 53 185 -11 q 65 240 65 117 q 68 293 65 257 l 99 706 l 353 706 l 319 308 q 338 215 315 247 q 410 182 360 182 q 493 219 463 182 q 528 319 524 256 l 561 706 l 813 706 m 474 1075 q 642 1019 569 1075 q 739 861 714 964 l 626 817 q 556 897 600 871 q 463 924 513 924 q 300 817 371 924 l 194 863 q 299 1019 221 964 q 474 1075 376 1075 z "},"ū":{"ha":860,"x_min":65,"x_max":813,"o":"m 813 706 l 757 0 l 511 0 l 518 79 q 425 13 482 36 q 300 -11 368 -11 q 125 53 185 -11 q 65 240 65 117 q 68 293 65 257 l 99 706 l 353 706 l 319 308 q 338 215 315 247 q 410 182 360 182 q 493 219 463 182 q 528 319 524 256 l 561 706 l 813 706 m 256 1013 l 703 1013 l 690 863 l 243 863 l 256 1013 z "},"ṻ":{"ha":860,"x_min":65,"x_max":813,"o":"m 813 706 l 757 0 l 511 0 l 518 79 q 425 13 482 36 q 300 -11 368 -11 q 125 53 185 -11 q 65 240 65 117 q 68 293 65 257 l 99 706 l 353 706 l 319 308 q 338 215 315 247 q 410 182 360 182 q 493 219 463 182 q 528 319 524 256 l 561 706 l 813 706 m 256 1013 l 703 1013 l 690 863 l 243 863 l 256 1013 m 475 1308 l 458 1097 l 233 1097 l 251 1308 l 475 1308 m 754 1308 l 735 1097 l 513 1097 l 531 1308 l 754 1308 z "},"ų":{"ha":860,"x_min":65,"x_max":813,"o":"m 692 -160 q 772 -143 726 -160 l 788 -257 q 647 -286 708 -286 q 509 -242 561 -286 q 457 -129 457 -197 q 519 0 457 -53 l 511 0 l 518 79 q 425 13 482 36 q 300 -11 368 -11 q 125 53 185 -11 q 65 240 65 117 q 68 293 65 257 l 99 706 l 353 706 l 319 308 q 338 215 315 247 q 410 182 360 182 q 493 219 463 182 q 528 319 524 256 l 561 706 l 813 706 l 757 0 l 731 0 q 648 -25 678 0 q 618 -92 618 -50 q 638 -141 618 -122 q 692 -160 658 -160 z "},"ů":{"ha":860,"x_min":65,"x_max":813,"o":"m 813 706 l 757 0 l 511 0 l 518 79 q 425 13 482 36 q 300 -11 368 -11 q 125 53 185 -11 q 65 240 65 117 q 68 293 65 257 l 99 706 l 353 706 l 319 308 q 338 215 315 247 q 410 182 360 182 q 493 219 463 182 q 528 319 524 256 l 561 706 l 813 706 m 474 786 q 361 831 407 786 q 315 942 315 875 q 362 1051 315 1006 q 474 1097 408 1097 q 585 1051 539 1097 q 632 942 632 1006 q 586 831 632 875 q 474 786 540 786 m 474 879 q 515 897 499 879 q 532 942 532 915 q 515 984 532 967 q 474 1001 499 1001 q 432 984 449 1001 q 415 942 415 967 q 432 897 415 915 q 474 879 449 879 z "},"ũ":{"ha":860,"x_min":65,"x_max":813,"o":"m 813 706 l 757 0 l 511 0 l 518 79 q 425 13 482 36 q 300 -11 368 -11 q 125 53 185 -11 q 65 240 65 117 q 68 293 65 257 l 99 706 l 353 706 l 319 308 q 338 215 315 247 q 410 182 360 182 q 493 219 463 182 q 528 319 524 256 l 561 706 l 813 706 m 213 832 q 269 1001 219 947 q 383 1054 318 1054 q 438 1044 414 1054 q 497 1014 463 1033 q 571 985 544 985 q 632 1050 621 985 l 735 1050 q 678 881 726 935 q 563 828 629 828 q 508 838 533 828 q 451 868 483 849 q 409 890 425 883 q 376 897 393 897 q 336 883 351 897 q 315 832 321 868 l 213 832 z "},"ṹ":{"ha":860,"x_min":65,"x_max":813,"o":"m 813 706 l 757 0 l 511 0 l 518 79 q 425 13 482 36 q 300 -11 368 -11 q 125 53 185 -11 q 65 240 65 117 q 68 293 65 257 l 99 706 l 353 706 l 319 308 q 338 215 315 247 q 410 182 360 182 q 493 219 463 182 q 528 319 524 256 l 561 706 l 813 706 m 213 832 q 269 1001 219 947 q 383 1054 318 1054 q 438 1044 414 1054 q 497 1014 463 1033 q 571 985 544 985 q 632 1050 621 985 l 735 1050 q 678 881 726 935 q 563 828 629 828 q 508 838 533 828 q 451 868 483 849 q 409 890 425 883 q 376 897 393 897 q 336 883 351 897 q 315 832 321 868 l 213 832 m 407 1061 l 560 1350 l 811 1350 l 560 1061 l 407 1061 z "},"v":{"ha":776,"x_min":1,"x_max":835,"o":"m 835 704 l 463 0 l 254 0 l 1 704 l 256 704 l 389 304 l 582 704 l 835 704 z "},"w":{"ha":1250,"x_min":13,"x_max":1293,"o":"m 1293 706 l 942 0 l 735 0 l 619 350 l 461 0 l 251 0 l 13 706 l 264 706 l 388 301 l 571 706 l 735 706 l 856 294 l 1043 706 l 1293 706 z "},"ẃ":{"ha":1250,"x_min":13,"x_max":1293,"o":"m 1293 706 l 942 0 l 735 0 l 619 350 l 461 0 l 251 0 l 13 706 l 264 706 l 388 301 l 571 706 l 735 706 l 856 294 l 1043 706 l 1293 706 m 585 796 l 738 1085 l 989 1085 l 738 796 l 585 796 z "},"ŵ":{"ha":1250,"x_min":13,"x_max":1293,"o":"m 1293 706 l 942 0 l 735 0 l 619 350 l 461 0 l 251 0 l 13 706 l 264 706 l 388 301 l 571 706 l 735 706 l 856 294 l 1043 706 l 1293 706 m 399 796 l 610 1085 l 756 1085 l 924 796 l 739 796 l 672 943 l 592 796 l 399 796 z "},"ẅ":{"ha":1250,"x_min":13,"x_max":1293,"o":"m 1293 706 l 942 0 l 735 0 l 619 350 l 461 0 l 251 0 l 13 706 l 264 706 l 388 301 l 571 706 l 735 706 l 856 294 l 1043 706 l 1293 706 m 653 1043 l 636 832 l 411 832 l 429 1043 l 653 1043 m 932 1043 l 913 832 l 690 832 l 708 1043 l 932 1043 z "},"ẁ":{"ha":1250,"x_min":13,"x_max":1293,"o":"m 1293 706 l 942 0 l 735 0 l 619 350 l 461 0 l 251 0 l 13 706 l 264 706 l 388 301 l 571 706 l 735 706 l 856 294 l 1043 706 l 1293 706 m 392 1085 l 617 1085 l 738 796 l 585 796 l 392 1085 z "},"x":{"ha":788,"x_min":-76,"x_max":849,"o":"m 539 363 l 810 0 l 518 0 l 385 192 l 222 0 l -76 0 l 253 365 l -4 706 l 286 706 l 406 538 l 549 706 l 849 706 l 539 363 z "},"y":{"ha":776,"x_min":-12,"x_max":836,"o":"m 836 706 l 449 -25 q 273 -234 374 -168 q 31 -317 172 -300 l -12 -126 q 136 -74 85 -106 q 217 10 188 -43 l 239 50 l 3 706 l 257 706 l 390 304 l 583 706 l 836 706 z "},"ý":{"ha":776,"x_min":-12,"x_max":836,"o":"m 836 706 l 449 -25 q 273 -234 374 -168 q 31 -317 172 -300 l -12 -126 q 136 -74 85 -106 q 217 10 188 -43 l 239 50 l 3 706 l 257 706 l 390 304 l 583 706 l 836 706 m 349 796 l 501 1085 l 753 1085 l 501 796 l 349 796 z "}}}
